<svg xmlns="http://www.w3.org/2000/svg" viewBox="0 0 21 21"><path d="M12.538 6.458a1.331 1.331 0 0 1-.388-.97c0-.37.132-.686.388-.947a1.3 1.3 0 0 1 .962-.39c.383 0 .704.13.964.39.257.26.385.576.385.946A1.329 1.329 0 0 1 13.5 6.85a1.3 1.3 0 0 1-.962-.392zm3.275 7.158a2.469 2.469 0 0 0-.707-1.744 2.418 2.418 0 0 0-.771-.525 2.378 2.378 0 0 0-.95-.19c-.34 0-.657.063-.95.19a2.539 2.539 0 0 0-.783.525c-.225.222-.4.482-.526.78-.125.3-.189.62-.189.964a2.466 2.466 0 0 0 .715 1.753 2.429 2.429 0 0 0 2.683.533c.296-.126.55-.304.771-.533.218-.229.392-.492.518-.79.125-.299.189-.62.189-.963zM18 15v1h-1.798c-.317.371-.695.433-1.135.659-.44.228-1.17.341-1.692.341-.454 0-.885-.086-1.29-.259a3.304 3.304 0 0 1-1.776-1.775c-.173-.405-.309-.887-.309-1.341 0-.564.178-1.025.434-1.486.252-.46.153-.46.566-.764V9H9.577L8.313 7.188 7.856 9.61l1.331 1.97s.303.25.303.576c0 0 .01.237.01 4.02a.75.75 0 0 1-1.5 0v-3.831l-.956-1.057-.679 2.11-1.598 3.17c-.12.247-.363.493-.802.304-.283-.107-.58-.281-.58-.602 0-.2.102-.423.22-.63l1.754-3.52.995-5.952s.435-1.306 1.17-1.306c.734 0 1.142.626 1.142.626L10.202 8H14v2h2.228c.083.014.15.007.206.062a.862.862 0 0 1 .156.155.38.38 0 0 1 .07.237.417.417 0 0 1-.06.237.613.613 0 0 1-.146.156.375.375 0 0 1-.206.103H16l.186.185s.814.24.814 1.282V15h1zM8.5 4.85a1.35 1.35 0 1 0 0-2.699 1.35 1.35 0 0 0 0 2.699z"/></svg>