<svg id="symbol" xmlns="http://www.w3.org/2000/svg" viewBox="0 0 17 17"><path d="M7.271 3.998h-.542A.729.729 0 0 1 6 3.269v-.542c0-.403.326-.729.729-.729h.542c.403 0 .729.326.729.729v.542a.729.729 0 0 1-.729.729zM11 2.269v-.542a.729.729 0 0 0-.729-.729h-.542A.729.729 0 0 0 9 1.727v.542c0 .403.326.729.729.729h.542A.729.729 0 0 0 11 2.269zM9 5.275v2.723h3.5l1.258 2.654a3.084 3.084 0 0 1 0 1.695L12.5 14.998h-8l-1.258-2.653a3.084 3.084 0 0 1 0-1.695L4.5 7.998H8V5.521L2 6.998v-.8l13-3.2v.8L9 5.275zM7 8.998H6l-1 3h2v-3zm1 0v3h4l-1-3H8z"/></svg>