<svg xmlns="http://www.w3.org/2000/svg" viewBox="0 0 21 21"><path d="M13 9.95c0 .763-.292.946-.8.964V8.99c.41.019.8.174.8.959zM20 17H1l9.5-17zm-9.951-8.916l-.1-.058a1.639 1.639 0 0 0-.897-.226C6.8 7.8 6.8 10.667 6.8 11.608c0 2.384.78 3.592 2.316 3.592a1.5 1.5 0 0 0 .84-.221l.093-.06v-1.233l-.292.15a.949.949 0 0 1-.458.114c-.77 0-1.128-.764-1.128-2.405 0-1.234.13-2.495 1.092-2.495a1.134 1.134 0 0 1 .497.151l.289.143zm3.681 3.448a2.448 2.448 0 0 0 .47-1.657C14.2 7.8 12.886 7.8 12.18 7.8H10.8v7.4h1.4v-3.097a1.933 1.933 0 0 0 1.53-.57z" id="aac737ae-8158-419b-921e-aaa14f92e234" data-name="New Symbols"/></svg>