<svg xmlns="http://www.w3.org/2000/svg" viewBox="0 0 13 13"><path d="M11.684 8.045l-.375.144a1.891 1.891 0 0 1-.059-.392c-.33.123-.442.084-.442.084l-.112-.393-.513.033s-.024.001-.08-.039a2.114 2.114 0 0 1-.203-.174.48.48 0 0 1-.138-.226 1.97 1.97 0 0 1 .28-.127l.322.183.308-.297.42.114.239-.273a4.175 4.175 0 0 0 .502.088.568.568 0 0 0-.055-.642c-.107-.145-.476-.411-.697-.257a1.887 1.887 0 0 1-1.11.393 1.715 1.715 0 0 1-1.125-.328c-.117-.092-.18-.265-.423-.265-.252 0-.366.368-.439.387a5.475 5.475 0 0 1-1.845-.474c-.084-.057-.293.037-.386.032-.117-.031-.1-.073-.565-.028a3.493 3.493 0 0 1-1.135-.192c-.481-.103-.078-1.302 2.949-1.507 1.61-.109 1.61-.206 1.61-.32 0-.268-1.301-.378-1.568-.385-.574-.015-.867-.07-1.801-.07a4.453 4.453 0 0 0-1.78.247 2.107 2.107 0 0 0-1.465 1.921 2.608 2.608 0 0 0 .353 1.289c-.001.03-.002.079 0 .134-.454-.223-.54.02-.64.1a.713.713 0 0 0-.203.376c-.159.575-.665.158-.673.51s.29.366.54.347.776-.172.821-.29a.601.601 0 0 0 .98-.341l.058.047a1.84 1.84 0 0 0 .799.418c.458.106.795.186 1.377.27-.569.529-.02.855.745.988a2.526 2.526 0 0 0 1.403.845c.176-.066.315-.02.388-.297.038-.251-.37-.629-.574-.753a1.714 1.714 0 0 0-.679-.523 5.953 5.953 0 0 1 1.723.108c.565.267.494.144.99.385a2.107 2.107 0 0 0 1.145.248c.991.046 1.1-.31 1.308-.68.046-.082-.194-.233-.175-.418z"/></svg>