<svg data-name="New Symbols" xmlns="http://www.w3.org/2000/svg" viewBox="0 0 21 21"><path d="M11 4h-1V2h1zm-3.047.424L6.58 3.05l-.521.522L7.43 4.945zm5.616.521l1.372-1.372-.521-.522-1.373 1.373zM19 16h-2.058a1.237 1.237 0 0 1 .058.288v.423A1.288 1.288 0 0 1 15.712 18h-.424A1.288 1.288 0 0 1 14 16.711v-.423a1.237 1.237 0 0 1 .058-.288H6.942a1.237 1.237 0 0 1 .058.288v.423A1.288 1.288 0 0 1 5.712 18h-.424A1.288 1.288 0 0 1 4 16.711v-.423A1.237 1.237 0 0 1 4.058 16H2v-4h1.823l1.636 2.8L7.5 10.6 8.6 12H11v-1H9.1L7.526 8.3 5.44 12.6 4.477 11H2V7h7v-.825A1.175 1.175 0 0 1 10.175 5h.65A1.175 1.175 0 0 1 12 6.175V7h2l2.8 4 2.2 2zm-3.4-5l-1.9-3H12v3z"/></svg>