<svg xmlns="http://www.w3.org/2000/svg" viewBox="0 0 21 21"><path d="M18.784 6.599c-.554-.75-2.482-1.695-3.15-2.003.018-.5-.676-1.513-1.702-1.54-1.724-.048-1.754 1.542-2.021 1.792-3.875 1.02-7.508 2.648-9.448 6.648-.043.089-.928 1.587-.087 2.942.27.435.696.655 1.097.751-.19.212-.325.462-.287.713C3.282 16.48 4.752 17 4.752 17h6.982c.113-.02.21-.174.247-.289.039-.116.02-.231-.076-.309L8 15.708s2.25-.508 3.786-2.46L13.667 17h3.168s.018-.769 0-.827c-.039-.096-.134-.153-.23-.173h-1.869l-.859-2.333.096-2.003c.21-.25.401-.52.572-.79.44-.693.86-1.348 1.852-1.599 1.07-.269 2.253-.904 2.559-1.713a1.098 1.098 0 0 0-.172-.963zM8.15 14.242s.906-1.186.642-2.305c-.244-1.032-1.693-1.993-1.693-1.993s2.054-.181 2.805 1.25c.985 1.879-1.754 3.048-1.754 3.048zM15 6.229a.77.77 0 0 1-.77.771h-.46a.77.77 0 0 1-.77-.77v-.46a.77.77 0 0 1 .77-.77h.46a.77.77 0 0 1 .77.77v.46z"/></svg>