<svg id="symbol" xmlns="http://www.w3.org/2000/svg" viewBox="0 0 21 21"><path d="M9 12.698c-2.157-.589-1.474-.772-1.97-.578-.703.275-1.231 1.586-1.231 1.586L4.899 16H4v-2a12.556 12.556 0 0 1 1-3.605c.542-.833-.654-1.218-1.21-2a4.297 4.297 0 0 1-.596-2.008 6.135 6.135 0 0 1 1.31-3.193L5.294 7h5.761a4.264 4.264 0 0 0 .847-.098l1.408-.592L14 5V3l1.175 1h1L17 3v2a1.088 1.088 0 0 0 .55.972c.625.437 1.45.451 1.375.951C18.833 7.542 17.991 8 16.428 8a3.45 3.45 0 0 0-1.279.15l-.605 1.394-.3.8a.99.99 0 0 0-1.585.115l-1.597 2.485A7.883 7.883 0 0 1 9 12.698zM18 18H9l4.5-7zm-4-2h-1v1h1zm0-1v-2h-1v2z"/></svg>