<svg xmlns="http://www.w3.org/2000/svg" viewBox="0 0 21 21"><path d="M8.137 7.496A2.342 2.342 0 0 1 9.76 5.273a5.248 5.248 0 0 1 .74-.075 5.236 5.236 0 0 1 .703.07 2.345 2.345 0 1 1-3.066 2.228zm2.363 3.502a4.466 4.466 0 0 0-3.981 2.965 5.236 5.236 0 0 0 7.962 0 4.466 4.466 0 0 0-3.981-2.965zm8.5 0h-1.225A7.29 7.29 0 0 1 11 17.773v1.225h-1v-1.225a7.29 7.29 0 0 1-6.775-6.775H2v-1h1.225A7.29 7.29 0 0 1 10 3.223V1.998h1v1.225a7.29 7.29 0 0 1 6.775 6.775H19zm-1.9-.5a6.6 6.6 0 1 0-6.6 6.6 6.608 6.608 0 0 0 6.6-6.6z"/></svg>