<svg id="Names" xmlns="http://www.w3.org/2000/svg" viewBox="0 0 21 21"><path d="M17 13.44a2.22 2.22 0 0 1-.655.107c-1.168 0-2.098-.718-2.845-1.55-.829.832-1.808 1.449-2.879 1.449h-.242c-1.071 0-2.05-.617-2.879-1.449-.747.832-1.677 1.55-2.845 1.55-.22 0-.438-.04-.655-.107v1.418c.246.086.477.14.68.14 1.235 0 2.155-.593 2.82-1.293.585.727 1.54 1.292 2.807 1.292h.386c1.267 0 2.222-.565 2.807-1.292.665.7 1.585 1.292 2.82 1.292.195 0 .429-.056.68-.146v-1.41zm-3-7.943V9a1 1 0 0 1-1 1H8a1 1 0 0 1-1-1V5.497C3.487 6.524 1.02 9.046 1.02 12c0 3.866 4.233 7 9.48 7s9.48-3.134 9.48-7c0-2.954-2.467-5.476-5.98-6.503zm4 9.354a1 1 0 0 1-.663.942c-.384.137-.717.204-1.017.204a4.588 4.588 0 0 1-2.793-.933 4.657 4.657 0 0 1-2.834.933h-.386a4.657 4.657 0 0 1-2.834-.933c-.835.62-1.77.933-2.794.933-.303 0-.633-.064-1.009-.195a1 1 0 0 1-.67-.944V13.44a1 1 0 0 1 1.295-.955c.134.041.252.061.36.061.688 0 1.356-.386 2.1-1.217a.998.998 0 0 1 .719-.331H7.5a1 1 0 0 1 .709.294c.763.766 1.492 1.154 2.17 1.154h.242c.678 0 1.407-.388 2.17-1.154a1 1 0 0 1 1.453.037c.745.83 1.413 1.217 2.1 1.217.107 0 .23-.02.361-.061A1.002 1.002 0 0 1 18 13.44v1.411zM13 2a1 1 0 0 0-1 1v1H9V3h1V2H9a1 1 0 0 0-1 1v6h1V7h3v2h1V3h1V2h-1zm-1 4H9V5h3v1z"/></svg>