<svg xmlns="http://www.w3.org/2000/svg" viewBox="0 0 13 13"><path d="M5.858 12h-.274l-.777-.657a1.713 1.713 0 0 1-.437-1.117 6.625 6.625 0 0 0-.389-2.337 19.439 19.439 0 0 1-.986-2.937A7.45 7.45 0 0 1 5.667 7.89a5.633 5.633 0 0 1 .327 1.168A14.751 14.751 0 0 0 5.858 12zM6.5 7.334a6.405 6.405 0 0 1 1.459-1.902v-.175a8.327 8.327 0 0 0-.64-3.203l-.28-.67a.584.584 0 0 0-1.078 0l-.28.67a8.327 8.327 0 0 0-.64 3.203v.176a6.4 6.4 0 0 1 1.459 1.9zM7.416 12l.777-.657a1.712 1.712 0 0 0 .437-1.117 6.624 6.624 0 0 1 .39-2.337 19.44 19.44 0 0 0 .985-2.937A7.45 7.45 0 0 0 7.333 7.89 10.523 10.523 0 0 0 6.858 12z"/></svg>