<svg xmlns="http://www.w3.org/2000/svg" viewBox="0 0 17 17"><path d="M5.531 10.76l4.99-4.99-2.793-2.793a4.457 4.457 0 0 1 2.772-.979 4.5 4.5 0 0 1 4.5 4.5 4.457 4.457 0 0 1-.98 2.772l-2.792-2.793-4.978 4.978a.998.998 0 0 1-.709-.674c-.002-.008-.008-.014-.01-.021zm8.969 1.736a2 2 0 0 1-1.918-1.43c-.026-.09-.138-.09-.164 0a2 2 0 0 1-3.836 0c-.026-.09-.138-.09-.164 0a2 2 0 0 1-3.836 0c-.026-.09-.138-.09-.164 0a2 2 0 0 1-1.918 1.43c-.174 0-.34-.03-.5-.07v2.001c.16.042.326.071.5.071a2 2 0 0 0 1.918-1.43c.026-.09.138-.09.164 0a2 2 0 0 0 3.836 0c.026-.09.138-.09.164 0a2 2 0 0 0 3.836 0c.026-.09.138-.09.164 0a2 2 0 0 0 1.918 1.43c.174 0 .34-.03.5-.07v-2.003a1.96 1.96 0 0 1-.5.071z"/></svg>