<svg id="symbols" xmlns="http://www.w3.org/2000/svg" viewBox="0 0 13 13"><path d="M2.528 6.931c-.167-.255-.398-.36-.435-.687a.394.394 0 0 1-.108.018.454.454 0 0 1-.447-.46.462.462 0 0 1 .198-.38l1.278-.915c.268-.17.583-.495.921-.507l3.173.01 1.99-.35v-.037a.482.482 0 0 1 .482-.433.435.435 0 0 1 .406.545l.543.03a.505.505 0 0 1 .375.546.262.262 0 0 1-.003.048l.927.382a.28.28 0 0 1 .172.26.285.285 0 0 1-.022.108l-.17.4a.54.54 0 0 1-.4.262l-1.821.194-1.425 1.72.814 1.447.536.257a.34.34 0 0 1 .142.276.329.329 0 0 1-.325.333L8.296 10a.69.69 0 0 1-.611-.377l-.882-1.579-1.991.003.703 1.05.52.244a.337.337 0 0 1 .16.289.363.363 0 0 1-.324.37H4.837a.722.722 0 0 1-.595-.383l-.845-1.645-.8.738-.056.442.227.154a.333.333 0 0 1 .101.082.428.428 0 0 1-.048.535.303.303 0 0 1-.208.075L2.16 10a.452.452 0 0 1-.312-.181l-.53-1.13a.73.73 0 0 1-.079-.33c0-.181.065-.223.177-.35z"/></svg>