<svg xmlns="http://www.w3.org/2000/svg" viewBox="0 0 21 21"><path d="M4.084 11.043c-.27-.413-.643-.891-.702-1.418a.636.636 0 0 1-.176.029.733.733 0 0 1-.722-.743c0-.257.13-.482.32-.615L4.87 6.82c.433-.274.941-.799 1.488-.819l5.125.017 3.746-.258V5.7c0-.386.402-.699.778-.699s.678.313.678.699c0 .06-.007.124-.023.18l.347.048c.403.08.606.447.606.884 0 .028 0 .052-.004.076l1.112.618a.453.453 0 0 1 .243.595l-.277.646a.874.874 0 0 1-.645.422l-2.557.313-2.302 2.78L14.5 14.6l.867.414c.136.096.23.26.23.445a.53.53 0 0 1-.527.538L13.401 16c-.428 0-.8-.248-.987-.61l-1.424-2.55-3.217.004 1.136 1.698.84.394c.156.096.257.27.257.466 0 .297-.234.598-.523.598h-1.67c-.407 0-.766-.28-.96-.618l-1.365-2.658-1.294 1.193-.09.714.367.248a.537.537 0 0 1 .164.133c.18.233.148.68-.078.864a.49.49 0 0 1-.336.12L3.488 16a.73.73 0 0 1-.505-.292l-.855-1.825A1.178 1.178 0 0 1 2 13.349c0-.292.105-.36.286-.565l1.798-1.741z"/></svg>