<svg id="Symbols" xmlns="http://www.w3.org/2000/svg" viewBox="0 0 13 13"><path d="M6.604 1.674c.19-.34.644-1.173 1.438-.908s.568.87.455 1.249a2.594 2.594 0 0 1-.492.795 6.42 6.42 0 0 1 .416 1.056A2.152 2.152 0 0 0 9.818 5.14c.72.228 1.06.795.984 1.136a1.229 1.229 0 0 1-.454.605 1.378 1.378 0 0 0-.454-.34A8.701 8.701 0 0 1 8.08 5.53a5.319 5.319 0 0 1-.454-.605s-.53.681-.416 1.135 1.214 1.552 1.365 2.006a17.605 17.605 0 0 1 .114 2.37c.041.307-.079.545.186.62s1.222.363 1.146.552-.522.343-1.26.343c-.606 0-.957.038-1.184-.265s-.152-1.571-.303-2.14a5.2 5.2 0 0 0-.818-1.393s-.18 1.253-.533 1.551a4.803 4.803 0 0 0-.946.946c-.114.227 0 .379.227.53s.681.378.606.605-.87.228-1.136.038l-.265-.189a2.493 2.493 0 0 1-.794-.795c-.152-.378-.19-.454.265-.832a3.373 3.373 0 0 0 .983-1.828 2.985 2.985 0 0 0-.492-1.248 1.146 1.146 0 0 1 .076-1.287S3.422 6.819 2.701 6.867a1.962 1.962 0 0 1-1.448-.465s-.303-.227.075-.265a1.873 1.873 0 0 0 1.297-.568 30.121 30.121 0 0 0 1.898-2.346c.378-.568.681-1.057 1.097-1.095a5.547 5.547 0 0 0 .833-.151z"/></svg>