<svg xmlns="http://www.w3.org/2000/svg" viewBox="0 0 21 21"><path d="M15.679 10.893c.141.342.221.715.221 1.107a2.89 2.89 0 0 1-1.983 2.738c-.005-.08-.017-.16-.017-.238 0-.233.035-.457.069-.68A2.065 2.065 0 0 0 15.07 12c0-.161-.022-.316-.057-.467.2-.235.421-.448.665-.64zM18.5 8a6.5 6.5 0 0 0-6.5 6.5c0 .517.067 1.018.18 1.5h.93a5.573 5.573 0 0 1-.21-1.5c0-2.92 2.246-5.32 5.1-5.575V16h1V8.025A6.537 6.537 0 0 0 18.5 8zm-7.571 4c0 .34.09.657.236.941-.08.379-.124.77-.145 1.168A2.884 2.884 0 0 1 10.1 12c0-1.254.8-2.312 1.915-2.717l-.32-1.228-3.884 3.263c.053.22.089.446.089.682A2.9 2.9 0 1 1 5 9.1c.128 0 .25.022.374.038L6.302 7H4V6h3v1h4.42l-.52-2H8V4h3.496l1.284 5.122c.074-.006.145-.022.22-.022.095 0 .185.019.277.028a7.552 7.552 0 0 0-.755.862A2.072 2.072 0 0 0 10.929 12zM7.07 12c0-1.142-.93-2.071-2.071-2.071s-2.071.93-2.071 2.071.93 2.071 2.071 2.071S7.07 13.141 7.07 12zm3.739-4H6.566l-.56 1.29a2.893 2.893 0 0 1 1.579 1.42L10.81 8z"/></svg>