<svg xmlns="http://www.w3.org/2000/svg" viewBox="0 0 13 13"><path d="M11.06 4.793c-.187 1.137-.903 2.133-2.252 1.718-.05-.028-.082-.06-.127-.09a3.36 3.36 0 0 0 .192-2.324 6.238 6.238 0 0 0-.197-.635c1.015-1.223 1.692-.993 1.821-.928.145.05.868.4.563 2.26zm-6.933-.696a5.396 5.396 0 0 1 .467-1.26c-.438-.939-.972-.978-1.094-.97-.153-.01-.955.029-1.401 1.86-.273 1.12-.003 2.316 1.401 2.46A1.884 1.884 0 0 0 4.148 6a3.602 3.602 0 0 1-.02-1.903zM6.5 2.473c-.154-.01-.955.029-1.401 1.86-.273 1.12-.003 2.316 1.401 2.461 1.404-.145 1.674-1.341 1.401-2.46-.446-1.832-1.247-1.87-1.401-1.86zm-.962 7.219a25.251 25.251 0 0 0 6.352-1.584 6.51 6.51 0 0 0 .727-2.094c.076-.46-.177-.88-.621-.841-.513 2.369-2.61 2.943-3.932 2.03a2.402 2.402 0 0 1-3.449-.311 2.358 2.358 0 0 1-3.105-.754 2.627 2.627 0 0 1-.396-.96l-.06-.01c-.48-.081-.75.367-.67.846a6.338 6.338 0 0 0 .864 2.343 6.375 6.375 0 0 0 9.5 1.198 13.186 13.186 0 0 1-5.21.137z"/></svg>