<svg xmlns="http://www.w3.org/2000/svg" viewBox="0 0 17 17"><path d="M14.763 6.268c-.245 1.487-1.18 2.789-2.945 2.246a2.687 2.687 0 0 1-.273-.192 4.05 4.05 0 0 0 .259-2.891 8.192 8.192 0 0 0-.24-.804c1.373-1.716 2.29-1.4 2.463-1.314.19.067 1.135.523.736 2.955zm-8.567-.837a7.47 7.47 0 0 1 .423-1.267C6.024 2.478 5.18 2.43 5 2.442c-.2-.014-1.25.037-1.832 2.432C2.81 6.338 3.163 7.902 5 8.092a2.262 2.262 0 0 0 1.189-.448 4.46 4.46 0 0 1 .007-2.213zM9 3.234c-.2-.013-1.25.038-1.832 2.433C6.81 7.13 7.163 8.695 9 8.885c1.837-.19 2.189-1.754 1.832-3.218C10.25 3.272 9.201 3.22 9 3.234zM7.242 11.76a32.836 32.836 0 0 0 8.372-2.102 9.564 9.564 0 0 0 .37-1.538.995.995 0 0 0-.385-1.036 3.156 3.156 0 0 1-3.004 2.557 3.663 3.663 0 0 1-1.071-.17 1.015 1.015 0 0 1-.19-.081 3.953 3.953 0 0 1-.412-.264 3.16 3.16 0 0 1-1.819.755 1.203 1.203 0 0 1-.206 0 3.034 3.034 0 0 1-2.275-1.24c-.017-.025-.026-.056-.043-.081a3.307 3.307 0 0 1-1.475.528 1.226 1.226 0 0 1-.207 0 3.03 3.03 0 0 1-2.274-1.24 3.01 3.01 0 0 1-.377-.765 26.276 26.276 0 0 1-.408-.07c-.587-.106-.918.48-.821 1.107a8.654 8.654 0 0 0 1.058 3.064 8.41 8.41 0 0 0 .668.94 15.991 15.991 0 0 0 5.49 1.468 11.095 11.095 0 0 1-3.798.098 6.535 6.535 0 0 0 3.679 1.137h.772a7.038 7.038 0 0 0 5.912-3.455 16.272 16.272 0 0 1-7.556.388z"/></svg>