<svg id="Symbols" xmlns="http://www.w3.org/2000/svg" viewBox="0 0 17 17"><path d="M6.679 3.876A1.821 1.821 0 0 1 8.5 2.055h.006A1.821 1.821 0 1 1 6.68 3.876zm2.467 7.49l1.456 1.252-1.233 1.524c-.633.66-.008 1.36.646.68l1.687-2.164a1.156 1.156 0 0 0 .08-1.51 807.92 807.92 0 0 1-1.215-1.27zm-1.411 0l-1.286 1.252 1.233 1.524c.629.66-.16 1.36-.808.68l-1.695-2.164a1.156 1.156 0 0 1-.072-1.51l1.206-1.27zm6.124-6.012a.622.622 0 0 1-.085.875l-1.957 1.38H11V9H6V7.609h-.817l-1.875-1.38h-.001a.622.622 0 0 1-.083-.876l.075-.126a.622.622 0 0 1 .875-.085L5.456 6h6.1l1.351-.858a.622.622 0 0 1 .876.085l.075.126z"/></svg>