<svg xmlns="http://www.w3.org/2000/svg" viewBox="0 0 13 13"><path d="M8.681 7.454l1.029 1.07a.884.884 0 0 1-.062 1.156l-1.29 1.408c-.5.52-.977-.016-.493-.52l.943-.919-1.214-1.058zm-4.353 0l-1.022 1.07A.884.884 0 0 0 3.36 9.68l1.296 1.408c.496.52 1.1-.016.619-.52l-.943-.919 1.083-1.058zM6.5 4.4a1.6 1.6 0 0 0 .006-3.2H6.5a1.6 1.6 0 1 0 0 3.2zm4.097-.13l-.057-.097a.475.475 0 0 0-.67-.065L8.538 5H4.472l-1.28-.891a.475.475 0 0 0-.67.064l-.057.097a.475.475 0 0 0 .064.67l1.435 1.055H5V7h3V5.995h1.036l1.497-1.055a.475.475 0 0 0 .065-.67z"/></svg>