<svg xmlns="http://www.w3.org/2000/svg" viewBox="0 0 21 21"><path d="M13.054 12.202s1.494 1.565 1.5 1.569c.476.5.353 1.385-.099 1.866l-2.084 2.275c-.807.839-1.579-.026-.797-.84l1.523-1.485-1.799-1.547 1.756-1.838zm-5.255 0s-1.49 1.565-1.49 1.569c-.482.5-.358 1.385.088 1.866l2.094 2.275c.801.839 1.775-.026.999-.84l-1.523-1.485 1.588-1.547-1.756-1.838zM10.5 6.55a2.251 2.251 0 0 0 2.25-2.25 2.246 2.246 0 0 0-2.25-2.25 2.25 2.25 0 0 0 0 4.5zm6.619-.337l-.093-.156a.768.768 0 0 0-1.082-.104L14.276 7H6.74L5.156 5.953a.768.768 0 0 0-1.081.104l-.093.156a.768.768 0 0 0 .104 1.082L6.403 9H8v2h5V9h1.597l2.418-1.705a.768.768 0 0 0 .104-1.082z"/></svg>