<svg id="symbols" xmlns="http://www.w3.org/2000/svg" viewBox="0 0 17 17"><path d="M13.002 6.456a2.776 2.776 0 0 1 .669-1.28l.3 1.28h.687l1.112-1.29a10.845 10.845 0 0 1-.4 1.74 1.213 1.213 0 0 1 .5.95l-.05.55a.622.622 0 0 1-.15.499 1.105 1.105 0 0 1-.65.2 2.594 2.594 0 0 0-1.15-.2 3.237 3.237 0 0 1-.918.05l-.55.9a12.17 12.17 0 0 1 2.63 1.555c.35.5.05.8-.4.7a11.073 11.073 0 0 1-1.88-.738c-.589-.278-2.698-1.118-2.698-1.118V12.4s.917-.147.9.6H9.508a.511.511 0 0 1-.35-.5c0-.4-.405-2.446-.405-2.446a9.681 9.681 0 0 0-1.249-.35 4.234 4.234 0 0 1-1.149-.45s-.7.75-1.15 1.25a6.855 6.855 0 0 1-.699.7s.15.947.45 1.196c0 0 .85-.1.85.25V13h-1.45a11.99 11.99 0 0 1-1.099-1.896 1.912 1.912 0 0 1 .05-.7l-1.209.5-.2 1.446s.92-.05.92.3V13L1 12.952s.1-2.898.15-3.098a5.684 5.684 0 0 1 .959-1.05.663.663 0 0 0 .25-.549s-1.638-.188-1.3-.98c.194-.455 1.33.1 1.33.1s.32-1.218.77-1.268a14.398 14.398 0 0 1 3.347 0 29.721 29.721 0 0 0 3.636.168 2.421 2.421 0 0 1 1.311-.33 1.558 1.558 0 0 1 .9.461z"/></svg>