<svg id="Layer_4" xmlns="http://www.w3.org/2000/svg" viewBox="0 0 21 21"><path d="M3.5 10.5S5 10 5 7s0-6-4-6v19s4 0 4-5c0-4-1.5-4.5-1.5-4.5zM2 4h.213C3.2 4 4 4.8 4 5.787v1.425C4 8.2 3.2 9 2.213 9H2V4zm2 11.212C4 16.2 3.2 17 2.213 17H2v-5h.213C3.2 12 4 12.8 4 13.787v1.425zm6-4.712c0 5.247 0 9.5-2 9.5s-2-4.253-2-9.5c0-.512 0-9.01.002-9.5H7v10c0 3.59 0 6 1 6s1-2.41 1-6V1h.998L10 10.5zM16 1v19h-1V7.667L13.9 15h-.8L12 8v12h-1V1h.9l1.562 10.87L15.1 1h.9zm5 6c-.012-3.077-.227-6-4-6v19h.985v-7.086C20.808 12.429 20.99 9.785 21 7zm-2.957 3H18V4h.042C19.124 4 20 4.877 20 5.958v2.084A1.958 1.958 0 0 1 18.043 10z"/></svg>