<svg id="symbols" xmlns="http://www.w3.org/2000/svg" viewBox="0 0 17 17"><path d="M14.563 5.998h-1.447l-.943-1.927c-.218-.574-.692-1.073-1.59-1.073H6.411c-.894 0-1.368.499-1.59 1.073l-.946 1.927H2.437A.438.438 0 0 0 2 6.435v.73c0 .46.54.833 1 .833v4.167c0 .46.373.833.833.833h.334c.46 0 .833-.373.833-.833v-1.167h7v1.167c0 .46.373.833.833.833h.334c.46 0 .833-.373.833-.833V7.998c.46 0 1-.373 1-.833v-.73a.438.438 0 0 0-.437-.437zm-9.396 3.5a1.245 1.245 0 0 1-1.25-1.25 1.24 1.24 0 0 1 1.25-1.25c.69-.006 1.25.556 1.25 1.25 0 .691-.56 1.252-1.25 1.25zm.416-3.5h-.632l.909-1.807c.106-.335.17-.36.557-.36h4.2c.381 0 .546.025.656.36l1.006 1.807H5.583zm7.5 2.25a1.25 1.25 0 0 1-1.244 1.25 1.249 1.249 0 1 1 0-2.5 1.247 1.247 0 0 1 1.244 1.25z" stroke-width="0"/></svg>