<svg id="Names" xmlns="http://www.w3.org/2000/svg" viewBox="0 0 21 21"><path d="M11 7v3h.418a.796.796 0 0 0 .645-.33L13.268 8l2.249.986a.5.5 0 0 1 .246.683l-.093.185a.5.5 0 0 1-.65.232l-.31-.138a.66.66 0 0 0-.822.245l-.461.712a1.242 1.242 0 0 0-.069 1.229l1.285 2.577a.2.2 0 0 1-.179.289h-.825a.2.2 0 0 1-.181-.114l-.955-2.006a.933.933 0 0 0-.835-.516H11V16h6v2H4v-2h6v-3.636h-.567c-.368 0-.701.216-.852.55l-.85 1.965a.2.2 0 0 1-.183.121H6.71a.2.2 0 0 1-.182-.281l1.574-3.552h-.14c-.505 0-1 .143-1.426.413l-1.191.753.781-1.563c.236-.472.719-.77 1.246-.77H10V7H3V6l7.5-5L18 6v1h-7z"/></svg>