<svg xmlns="http://www.w3.org/2000/svg" viewBox="0 0 17 17"><path d="M2 2.998l5.5 3 8.2-3-7.2-2-6.5 2zm5 .265v-.53c0-.406.33-.735.735-.735h.53c.406 0 .735.33.735.735v.53c0 .406-.33.735-.735.735h-.53A.735.735 0 0 1 7 3.263zm9 .735l-8 3v9l8-3v-9zm-5 8.735v.53c0 .406-.33.735-.735.735h-.53A.735.735 0 0 1 9 13.263v-.53c0-.406.33-.735.735-.735h.53c.406 0 .735.33.735.735zm2-3v.53c0 .406-.33.735-.735.735h-.53a.735.735 0 0 1-.735-.735v-.53c0-.406.33-.735.735-.735h.53c.406 0 .735.33.735.735zm2-2.47c0 .406-.33.735-.735.735h-.53A.735.735 0 0 1 13 7.263v-.53c0-.406.33-.735.735-.735h.53c.406 0 .735.33.735.735v.53zm-8-.265l-5-3v9l5 3v-9zM5 8.263c0 .406-.33.735-.735.735h-.53A.735.735 0 0 1 3 8.263v-.53c0-.406.33-.735.735-.735h.53c.406 0 .735.33.735.735v.53zm1 4c0 .406-.33.735-.735.735h-.53A.735.735 0 0 1 4 12.263v-.53c0-.406.33-.735.735-.735h.53c.406 0 .735.33.735.735v.53z"/></svg>