<svg xmlns="http://www.w3.org/2000/svg" viewBox="0 0 17 17"><path d="M8.222 3.224a1.202 1.202 0 1 1 1.202 1.202 1.202 1.202 0 0 1-1.202-1.202zm5.155 5.004l.008-.007-2.623-2.89H6.588L4.7 3.162l-.005.004a.444.444 0 0 0-.356-.186.452.452 0 0 0-.452.452.442.442 0 0 0 .1.271l-.009.007 2.26 2.526h1.34a3.637 3.637 0 0 0-.114.277l-1.722 4.355-1.793 2.946a.783.783 0 0 0-.205.484.676.676 0 0 0 .44.63c.396.171.578-.07.816-.275l1.652-2.63 1.07-2.182 1.23 1.23v3.237a.594.594 0 1 0 1.175 0c0-3.423-.009-3.408-.009-3.408a.781.781 0 0 0-.274-.522L8.458 8.597 9.51 6.315l.686-.079 2.467 2.532.005-.003a.444.444 0 0 0 .356.185.452.452 0 0 0 .452-.452.443.443 0 0 0-.099-.27z"/></svg>