<svg id="Layer_4" xmlns="http://www.w3.org/2000/svg" viewBox="0 0 21 21"><path d="M21 6.5c-.012-2.82-.227-5.5-4-5.5v19h.985v-8.079c.454-.071.844-.19 1.171-.356L20 20h1l-.919-9.188c.83-1.044.912-2.65.919-4.312zM18 9V4h.213c.987 0 1.788.8 1.788 1.787v1.425C20 8.2 19.2 9 18.213 9h-.212zM3.933 15.555C3.81 18.222 3.468 20 2.5 20 1 20 1 15.747 1 10.5S1 1 2.5 1c.968 0 1.31 1.778 1.432 4.445l-1.048.437C2.799 4.66 2.67 3.9 2.5 3.9c-.338 0-.508 2.955-.508 6.6s.17 6.6.508 6.6c.171 0 .3-.76.384-1.982l1.048.437zM15.1 20h.9L14.9 1h-.8L13 20h.9l.158-3h.884l.158 3zm-.884-6l.284-5.4.284 5.4h-.568zM10 4v4h2v3h-2v6h2v3H9V1h3v3h-2zM8 17v3H5V1h1v16h2z"/></svg>