<svg xmlns="http://www.w3.org/2000/svg" viewBox="0 0 21 21"><path d="M18 4.998h-1v3h-4v-3h-1l3-2 3 2zm-5.008 4c-.205 5.71-4.221 6.195-7.992 6H3v2h15v-8h-5.008zm-1.703 2.876c-.283-.297-.547-.606-.789-.876-.829.831-1.808 1.953-2.879 1.953H7.38c-1.071 0-2.05-1.122-2.879-1.953-.434.483-.932 1.092-1.5 1.523v1.156c.602-.295 1.098-.75 1.5-1.173.558.693 1.455 1.415 2.635 1.481.856-.06 1.585-.21 2.198-.451a4.43 4.43 0 0 0 1.167-1.03c.057.06.119.122.18.183.238-.236.439-.51.609-.813zM3 9.52v1.156c.602-.295 1.098-.75 1.5-1.173.585.727 1.54 1.494 2.807 1.494h.386c1.267 0 2.222-.767 2.807-1.494.351.37.776.763 1.278 1.054a7.8 7.8 0 0 0 .162-1.084c-.543-.427-1.022-1.01-1.44-1.476-.829.831-1.808 1.953-2.879 1.953H7.38c-1.071 0-2.05-1.122-2.879-1.953-.434.483-.932 1.092-1.5 1.523z"/></svg>