<svg xmlns="http://www.w3.org/2000/svg" viewBox="0 0 21 21"><path d="M20 5h-6.706L10.5 0 7.706 5H1v1h6.147L1 17h19L13.853 6H20zM8 10.102c-.1.045-1.864-1.37-1.864 1.923 0 1.435.355 2.103 1.119 2.103a1.055 1.055 0 0 0 .461-.101L8 13.896v1.133l-.102.057a1.618 1.618 0 0 1-.826.194c-1.526 0-2.3-1.076-2.3-3.198 0-2.25.752-3.39 2.237-3.39A1.802 1.802 0 0 1 8 8.945zm4 5.098h-1.194l-.949-3.134.042.707V15.2H8.6V8.771h1.217l.939 3.058-.055-.691-.001-2.367H12zm2.284-6.509c1.481 0 1.537 1.225 1.708 1.55l-1.145.47c-.124-.475-.102-.868-.54-.868-.43 0-.502.663-.502 2.15 0 2.135.365 2.135.503 2.135.615 0 .452-1.23.488-1.415h-.672v-1.095h1.871c.024 2.434-.178 2.849-.583 3.259a1.425 1.425 0 0 1-1.056.403c-1.66 0-1.8-1.62-1.8-3.279 0-1.317 0-3.31 1.728-3.31z" id="f5a8cd08-df0b-4a5d-ab2f-0ecaf76e16c1" data-name="New Symbols"/></svg>