<svg xmlns="http://www.w3.org/2000/svg" viewBox="0 0 17 17"><path d="M6.75 7.098l1.107 1.107-4.95 4.95L1.8 12.048zm2.865 1.45l2.121-2.12-3.209-3.209-2.12 2.121zm-5.17-3.754a.401.401 0 0 0 .566 0l2.97-2.97a.401.401 0 0 0 0-.566l-.142-.141a.401.401 0 0 0-.566 0l-2.97 2.97a.401.401 0 0 0 0 .565zm5.716 5.715l.141.142a.401.401 0 0 0 .566 0l2.97-2.97a.401.401 0 0 0 0-.566l-.142-.141a.401.401 0 0 0-.566 0l-2.97 2.97a.401.401 0 0 0 0 .565zM13 13v-.492a.508.508 0 0 0-.508-.508H9.508a.508.508 0 0 0-.508.508V13h-.492a.508.508 0 0 0-.508.508V15h6v-1.492a.508.508 0 0 0-.508-.508z"/></svg>