<svg xmlns="http://www.w3.org/2000/svg" viewBox="0 0 13 13"><path d="M9.92 4.259A2.512 2.512 0 0 1 10.402 3l.503 1.33a2.306 2.306 0 0 1 .718.467 1.319 1.319 0 0 1 .18.493l.574.323s-.03.519-.389.519a3.848 3.848 0 0 1-1.19-.509 3.92 3.92 0 0 1-1.114.567H9.29l-.215.777 1.357.85-.67 1.403a.387.387 0 0 1-.504.22c-.129-.055-.184-.238-.092-.458.193-.463.431-.954.431-.954L8.37 7.475l-.416-.782a5.065 5.065 0 0 0-.32 1.264c0 .43.069 1.584.069 1.584s.656.01.656.45H7.174l-.272-2.07.036-.516a5.246 5.246 0 0 1-2.28-.51 2.872 2.872 0 0 1-.421.81 6.529 6.529 0 0 0-.448.515l.835.707s.394.302.174.56c-.165.192-.404.146-.651-.065-.175-.15-1.141-.962-1.141-.962l.18-.862-1.148.826-.114 1.122s.728.041.728.454H1.23l-.172-1.864s1.254-.861 1.254-1.04a5.342 5.342 0 0 1 .047-1.832s-1.124-.077-1.173.826C1.12 7.313.77 7.588.232 7.84a7.206 7.206 0 0 1 .022-2.325 1.428 1.428 0 0 1 .863-.985 1.448 1.448 0 0 1 1.26.391 2.531 2.531 0 0 1 1.419-.555c.826-.035 3.842.216 3.842.216a7.158 7.158 0 0 0 1.887.108.59.59 0 0 0 .395-.431z"/></svg>