<svg xmlns="http://www.w3.org/2000/svg" viewBox="0 0 21 21"><path d="M16.024 6.88a3.371 3.371 0 0 1 .78-1.693l.812 1.808a3.725 3.725 0 0 1 1.16.754 2.13 2.13 0 0 1 .29.796l.928.522s-.048.838-.628.838a6.215 6.215 0 0 1-1.924-.822 6.332 6.332 0 0 1-1.798.917h-.638l-.348 1.578 2.086 1.214-.832 1.92a.448.448 0 0 1-.656.224.416.416 0 0 1-.172-.578c.3-.75.492-1.262.492-1.262l-2.542-1.344-.348-1.102a8.28 8.28 0 0 0-.68 2.204c0 .696.135 2.459.135 2.459s.906.093.951.673H11.7l-.406-.812-.306-2.378.058-.834a7.944 7.944 0 0 1-3.522-.822 4.64 4.64 0 0 1-.68 1.308 24.882 24.882 0 0 0-.944 1.044l.82.734s.386.35.14.645c-.239.287-.484.204-.87-.135a57.034 57.034 0 0 1-1.134-1.07l.29-1.392-1.208 1.334v1.736s.968 0 .968.656h-1.79L3 13.144a8.423 8.423 0 0 0 1.218-1.682c0-.29-.596-2.088-.248-2.958 0 0-1.26-.116-1.086 1.334a2.787 2.787 0 0 1-1.702 2.826 11.64 11.64 0 0 1 .036-3.754 2.307 2.307 0 0 1 1.395-1.592 1.287 1.287 0 0 1 1.389.631 3.324 3.324 0 0 1 2.13-.896c1.334-.058 6.206.348 6.206.348a11.563 11.563 0 0 0 3.048.174.952.952 0 0 0 .638-.696z"/></svg>