<svg xmlns="http://www.w3.org/2000/svg" viewBox="0 0 13 13"><path d="M6.5 4.392h-.005a4.186 4.186 0 0 0-.525.067c-.014-.292-.254-.65-.55-.65a.552.552 0 0 0-.551.552.547.547 0 0 0 .086.29 3.41 3.41 0 0 0-.7.419.095.095 0 0 0-.04-.084c-.008-.006-.852-.787-.826-1.478a2.376 2.376 0 0 0 1.549-.324c.223-.177.536-.418.564-.717a.096.096 0 0 0-.13-.098 5.536 5.536 0 0 1-1.342.253 2.784 2.784 0 0 1 1.207-1.378.107.107 0 0 0 .06-.102.096.096 0 0 0-.084-.083c-.087-.01-2.255.397-2.543 1.568a2.779 2.779 0 0 0 .154 2.034l.984.846a2.65 2.65 0 0 0-.299.457c-.26-.127-1.3-.502-1.411-.889a5.382 5.382 0 0 1-.67-1.73.094.094 0 0 0-.1-.074.096.096 0 0 0-.089.086 4.586 4.586 0 0 0 .022 2.142 6.071 6.071 0 0 0 2.204 1.033c.02.087.08.41.08.41s-1.338.131-1.67.098a.093.093 0 0 0-.094.05 4.013 4.013 0 0 0-.725 1.372 3.328 3.328 0 0 0 .001.743.096.096 0 0 0 .081.08h.014a.096.096 0 0 0 .086-.054l.917-1.483c.214.052 1.046-.204 1.697-.139h.003c.044.07.09.14.143.209a3.071 3.071 0 0 0-1.23.462 1.617 1.617 0 0 0-.537 1.184c0 .542.88 1.002.99 1.024l.018.002a.096.096 0 0 0 .067-.165 1.995 1.995 0 0 1-.359-.943 1.531 1.531 0 0 1 .137-.484l1.319-.58a.094.094 0 0 0 .043-.032 2.851 2.851 0 0 0 .366.254l-.893.785a.096.096 0 0 0-.025.11c.02.048.756 1.427 1.402 1.513a2.2 2.2 0 0 0 .387.046 1.954 1.954 0 0 0 .293-.017.096.096 0 0 0 .026-.18A3.825 3.825 0 0 1 4.83 9.758l-.095-.222.674-.726a4.253 4.253 0 0 0 1.091.21 4.253 4.253 0 0 0 1.092-.209l.674.726-.095.222a3.825 3.825 0 0 1-1.173 1.037.096.096 0 0 0 .026.181 1.954 1.954 0 0 0 .293.017 2.2 2.2 0 0 0 .387-.046c.646-.086 1.382-1.465 1.402-1.513a.096.096 0 0 0-.025-.11l-.893-.785a2.851 2.851 0 0 0 .366-.254.094.094 0 0 0 .043.033l1.319.58a1.531 1.531 0 0 1 .137.483 2.21 2.21 0 0 1-.459.943.096.096 0 0 0 .067.165l.019-.002c.11-.022 1.09-.482 1.09-1.024a1.617 1.617 0 0 0-.538-1.184 3.071 3.071 0 0 0-1.23-.462c.052-.07.1-.14.143-.209h.003c.651-.065 1.483.19 1.697.139l.917 1.483a.096.096 0 0 0 .086.054h.014a.096.096 0 0 0 .08-.08 3.328 3.328 0 0 0 .002-.743 4.013 4.013 0 0 0-.725-1.372.093.093 0 0 0-.094-.05c-.332.033-1.67-.098-1.67-.098s.06-.323.08-.41a6.071 6.071 0 0 0 2.204-1.033 4.586 4.586 0 0 0 .022-2.142.096.096 0 0 0-.09-.086.094.094 0 0 0-.1.073 5.382 5.382 0 0 1-.669 1.731c-.11.387-1.15.762-1.411.89a2.65 2.65 0 0 0-.3-.458l.985-.846a2.779 2.779 0 0 0 .154-2.034C10.042 1.456 7.874 1.05 7.787 1.06a.096.096 0 0 0-.085.083.107.107 0 0 0 .06.102A2.784 2.784 0 0 1 8.97 2.622a5.536 5.536 0 0 1-1.342-.253.096.096 0 0 0-.13.098c.028.299.34.54.564.717a2.376 2.376 0 0 0 1.55.324c.025.691-.819 1.472-.828 1.478a.095.095 0 0 0-.04.084 3.41 3.41 0 0 0-.699-.42.547.547 0 0 0 .086-.289.552.552 0 0 0-.552-.552c-.295 0-.535.358-.549.65a4.186 4.186 0 0 0-.525-.067z"/></svg>