<svg xmlns="http://www.w3.org/2000/svg" viewBox="0 0 17 17"><path d="M13.195 9.92l-.514-.88c.591-.044 1.65-.022 2.006-.057a.121.121 0 0 1 .123.065 7.02 7.02 0 0 1 .947 2.018 4.352 4.352 0 0 1-.001.972.125.125 0 0 1-.106.103l-.018.001a.125.125 0 0 1-.112-.07l-1.2-2.163a7.952 7.952 0 0 1-1.125.012zm-6.059 4.576l.206-.353a7.121 7.121 0 0 1-1.027-1.381l-.124-.29.882-.95a5.562 5.562 0 0 0 1.427.273c.082-.005.15-.02.229-.029l1.907-3.27a1 1 0 0 1 1.728 0l.086.148c.007-.04.013-.077.019-.103a5.641 5.641 0 0 0 3.09-1.25 7.042 7.042 0 0 0 .159-2.901.126.126 0 0 0-.117-.113.123.123 0 0 0-.13.096 7.581 7.581 0 0 1-.845 2.264c-.145.505-1.874.995-2.215 1.162a3.462 3.462 0 0 0-.391-.597l1.288-1.107a3.914 3.914 0 0 0 .4-2.898c-.376-1.532-3.412-2.063-3.525-2.05a.125.125 0 0 0-.111.108.14.14 0 0 0 .079.133A3.641 3.641 0 0 1 11.73 3.19a8.834 8.834 0 0 1-1.755-.231.126.126 0 0 0-.17.129c.036.39.446.706.738.937a2.958 2.958 0 0 0 2.025.323 4.292 4.292 0 0 1-1.08 2.172.124.124 0 0 0-.053.11 5.134 5.134 0 0 0-1.014-.549.714.714 0 0 0 .112-.378.722.722 0 0 0-.722-.721c-.386 0-.7.467-.718.85a4.932 4.932 0 0 0-.587-.088h-.012a4.932 4.932 0 0 0-.587.087c-.018-.382-.332-.85-.718-.85a.722.722 0 0 0-.722.722.714.714 0 0 0 .112.378 5.134 5.134 0 0 0-1.014.549.124.124 0 0 0-.052-.11c-.012-.008-1.115-.767-1.081-1.672a4.057 4.057 0 0 0 2.025-.823c.292-.231.702-.546.738-.937a.126.126 0 0 0-.17-.129 8.834 8.834 0 0 1-1.755.23 3.641 3.641 0 0 1 1.579-1.8.14.14 0 0 0 .079-.134.125.125 0 0 0-.11-.108c-.114-.013-3.15.518-3.527 2.05a3.914 3.914 0 0 0 .401 2.898L4.98 7.202a3.462 3.462 0 0 0-.391.597c-.341-.167-2.17-.757-2.315-1.262a10.498 10.498 0 0 1-.744-2.264.123.123 0 0 0-.131-.096.126.126 0 0 0-.117.113 6.12 6.12 0 0 0 .06 2.801 5.535 5.535 0 0 0 3.19 1.45c.025.114.059.402.103.536-.4-.095-1.887-.05-2.322-.094a.121.121 0 0 0-.123.065 10.084 10.084 0 0 0-.947 2.318 4.352 4.352 0 0 0 .001.972.125.125 0 0 0 .106.103l.018.001a.125.125 0 0 0 .112-.07l1.2-2.463c.28.068 1.506-.043 2.358.042h.004s.118.182.186.272a4.978 4.978 0 0 0-1.809.605 2.085 2.085 0 0 0-.44 1.548c0 .71 1.219 1.31 1.363 1.34a.132.132 0 0 0 .025.002.126.126 0 0 0 .086-.216 2.89 2.89 0 0 1-.599-1.233 2.979 2.979 0 0 1 .18-.764l1.724-.627a.122.122 0 0 0 .055-.042 3.727 3.727 0 0 0 .48.332l-1.169 1.027a.125.125 0 0 0-.032.144c.027.061.989 2.296 1.834 2.408l.105.016a.99.99 0 0 1 .105-.267zM15 15H8l3.5-6zm-3-2h-1v1h1zm0-1v-2h-1v2z"/></svg>