<svg id="symbols" xmlns="http://www.w3.org/2000/svg" viewBox="0 0 21 21"><path d="M8.553 17.846c-1.043-.142-2.23-2.528-2.263-2.604a.155.155 0 0 1 .04-.178l1.443-1.268a4.608 4.608 0 0 1-.592-.41.15.15 0 0 1-.069.052l-2.13.775a3.68 3.68 0 0 0-.221.943 3.57 3.57 0 0 0 .74 1.523.155.155 0 0 1-.107.267.16.16 0 0 1-.03-.003c-.178-.037-1.437-.779-1.437-1.655a2.575 2.575 0 0 1 .544-1.912 4.96 4.96 0 0 1 1.987-.747 4.595 4.595 0 0 1-.23-.337h-.005a19.1 19.1 0 0 1-2.418-.422l-1.482 3.042a.155.155 0 0 1-.14.087l-.022-.001a.155.155 0 0 1-.13-.128 5.37 5.37 0 0 1-.002-1.2 12.456 12.456 0 0 1 1.17-2.863.15.15 0 0 1 .153-.081c.536.054 1.88.369 2.373.487-.054-.166-.096-.521-.128-.662-1.246-.067-3.02-1.598-3.076-1.668a8.124 8.124 0 0 1-.196-3.46.155.155 0 0 1 .144-.14.153.153 0 0 1 .162.12 12.968 12.968 0 0 0 .92 2.796c.178.624 1.696 1.23 2.118 1.435a4.277 4.277 0 0 1 .483-.737L4.562 7.53c-.043-.052-.743-.958-.25-2.963.467-1.893 3.97-2.549 4.11-2.533a.154.154 0 0 1 .136.134.173.173 0 0 1-.098.165 4.498 4.498 0 0 0-1.95 2.225 8.94 8.94 0 0 0 2.168-.409.155.155 0 0 1 .21.16c-.045.482-.55.871-.912 1.157a3.838 3.838 0 0 1-2.502.523c-.04 1.117 1.321 2.056 1.336 2.065a.153.153 0 0 1 .065.136 5.508 5.508 0 0 1 1.129-.678.882.882 0 0 1-.139-.467.892.892 0 0 1 .892-.891c.477 0 .865.578.887 1.05a6.747 6.747 0 0 1 .848-.109h.016a6.747 6.747 0 0 1 .848.108c.022-.471.41-1.05.887-1.05a.892.892 0 0 1 .892.892.882.882 0 0 1-.139.467 5.508 5.508 0 0 1 1.13.678.153.153 0 0 1 .064-.136c.015-.01 1.377-.948 1.336-2.065a3.838 3.838 0 0 1-2.502-.523c-.361-.286-.867-.675-.912-1.158a.155.155 0 0 1 .21-.159 8.94 8.94 0 0 0 2.167.409 4.498 4.498 0 0 0-1.95-2.225.173.173 0 0 1-.097-.165.154.154 0 0 1 .137-.134c.14-.016 3.642.64 4.108 2.533.494 2.005-.206 2.911-.248 2.963l-1.59 1.367a4.277 4.277 0 0 1 .482.737c.422-.206 1.94-.811 2.118-1.435a12.968 12.968 0 0 0 .92-2.796.153.153 0 0 1 .162-.12.155.155 0 0 1 .144.14 8.124 8.124 0 0 1-.197 3.46c-.054.07-1.829 1.601-3.075 1.668-.032.14-.074.496-.128.662.493-.118 1.837-.433 2.373-.487a.15.15 0 0 1 .153.08 12.456 12.456 0 0 1 1.17 2.863 5.37 5.37 0 0 1-.002 1.201.155.155 0 0 1-.13.128l-.023.001a.155.155 0 0 1-.139-.087l-1.482-3.042a19.36 19.36 0 0 1-2.325.411l-.529-.821a1 1 0 0 0-1.682 0l-1.986 3.088c-.06.006-.111.018-.173.023a6.87 6.87 0 0 1-1.763-.337l-1.09 1.171.154.36a6.452 6.452 0 0 0 1.218 1.357zm7.976-4.47a3.531 3.531 0 0 0-1.338-.596l1.824 2.838a1.016 1.016 0 0 0 .058-.33 2.575 2.575 0 0 0-.544-1.912zM18 19H9l4.5-7zm-4-2h-1v1h1zm0-1v-2h-1v2z"/></svg>