<svg xmlns="http://www.w3.org/2000/svg" viewBox="0 0 21 21"><path d="M18 10.767c0 .33 0 .652-.412.652-.455 0-.533-.302-.511-.628.011-.206-.008-2.408-.008-2.408l-2.383-.611c.054.108 1.02 1.678 1.02 1.678l-1.071 2.838c-.087.184-.287.69-.705.476-.466-.238-.11-.818-.067-.915.01-.033.834-2.156.834-2.156L11.413 6.12s-.616.36-.941.523c-.33.19-.663.368-.663.368s-.727-.562-1.367-1.126c-.65-.574-1.057-.852-1.078-1.113-.022-.206.038-.352.179-.439a.354.354 0 0 1 .45.058c.2.19 1.779 1.625 1.779 1.625l1.716-1.037c-.402-.021-.824-.081-.986-.18-.217-.15-.326-.406-.326-.764 0-.227.104-.428.31-.602.36-.276.988-.28 1.238-.183.315.12.472.443.472.693v.66c.076-.043 1.644-.774 1.644-.774s.699.2 1.415.46c.315.12 1.334.424 1.485.5.087.054.13.146.13.276 0 .337-.212.507-.542.435-.041-.01-2.373-.79-2.373-.79s-.499.35-.748.534c.474.442 1.253 1.232 2.025 1.672.14.076 2.705.9 2.705.9s.063 2.52.063 2.952zM12 12v2H9v2H6.04l-.24 1H4l1.2-5H10v-1h1v1h1zm-4 2H7v1h1v-1z"/></svg>