<svg xmlns="http://www.w3.org/2000/svg" viewBox="0 0 21 21"><path d="M16.833 10.998V9.141l-1.167-1.143h-.716c-.252-2.247-1.136-4-3.45-4-.947 0-1.806.316-2.528.818l-.819-.818h-1.23L5.61 5.088a3.379 3.379 0 0 0-2.62.97c-1.34 1.34-1.317 3.532.05 4.9 1.367 1.367 3.56 1.39 4.9.05a3.375 3.375 0 0 0 .97-2.62l1.107-1.313L10 5.845l-.31-.31a3.414 3.414 0 0 1 1.81-.537c1.758 0 2.204 1.308 2.45 3h-.617l-1.167 1.143v1.857A3.379 3.379 0 0 0 11 13.538c0 1.893 1.566 3.428 3.5 3.428S18 15.43 18 13.537a3.377 3.377 0 0 0-1.167-2.539zm-9.872-.987c-.75.75-2.166.723-2.932-.043-.765-.766-.792-2.18-.042-2.93s2.25-.809 3.016-.043c.765.766.707 2.266-.042 3.016zm7.538 5.455c-1.03 0-1.999-.934-1.999-1.943s.97-2.057 2-2.057 2 1.048 2 2.057-.97 1.943-2 1.943z"/></svg>