<svg xmlns="http://www.w3.org/2000/svg" viewBox="0 0 13 13"><path d="M7.5 4.551a.836.836 0 1 0-.835-.835.835.835 0 0 0 .835.835zm.805.401l2.151-1.844a.317.317 0 0 1 .427-.042.283.283 0 0 1 .042.414L8.5 5.755V7.86l.403 3.768a.33.33 0 0 1-.372.372.369.369 0 0 1-.372-.31l-.474-3.023h-.37l-.474 3.023a.369.369 0 0 1-.372.31.33.33 0 0 1-.372-.372L6.5 7.86V5.755L4.076 3.482a.283.283 0 0 1 .042-.413.317.317 0 0 1 .427.041l2.15 1.842zM8 1.857H7V0h1zm-2.417.573l-.557-1.106.553-.278.557 1.106zm3.22-.278l.556-1.106.553.278-.557 1.106zm3.176 5.324l-.288.548-1.096-.576.288-.548zm-1.798.997l.72 1.007-.503.36-.72-1.007zM3.5 7.646a.836.836 0 1 0-.835-.835.835.835 0 0 0 .835.835zm2.371-1.643v2.272a.588.588 0 0 1-.13.433.536.536 0 0 1-.445.142h-.963V11H2.576V8.85h-.862a.536.536 0 0 1-.446-.142.588.588 0 0 1-.13-.433V6.003a.392.392 0 0 1 .392-.391h.02a.392.392 0 0 1 .39.391v2.045h3.13V6.003a.392.392 0 0 1 .391-.391h.02a.392.392 0 0 1 .391.391zM13 6h-1.857V5H13z"/></svg>