<svg id="Symbols" xmlns="http://www.w3.org/2000/svg" viewBox="0 0 17 17"><path d="M9.5 5.951A1.093 1.093 0 1 0 8.407 4.86 1.092 1.092 0 0 0 9.5 5.95zm1.052.525l2.74-2.332a.415.415 0 0 1 .557-.055.37.37 0 0 1 .055.542l-3.19 2.895v2.753l.49 5.235a.43.43 0 0 1-.486.486.482.482 0 0 1-.487-.405l-.49-4.262h-.483l-.49 4.262a.482.482 0 0 1-.486.405.43.43 0 0 1-.486-.486l.49-5.235V7.526l-3.19-2.894a.37.37 0 0 1 .055-.541.415.415 0 0 1 .558.054l2.739 2.331zM10 3H9V1h1zm-3.372.178L5.9 1.732l.723-.364.728 1.446zm5.021-.364l.728-1.446.723.364-.728 1.446zm4.216 6.531l-.376.717-1.434-.753.377-.717zm-2.843 1.012l.942 1.317-.658.471-.943-1.316zM4 10.285a1.093 1.093 0 1 0-1.093-1.092A1.092 1.092 0 0 0 4 10.285zM7 7.85v3.397a.769.769 0 0 1-.17.567.701.701 0 0 1-.583.186h-1.27L5 15H3l.022-3h-1.27a.701.701 0 0 1-.582-.186.769.769 0 0 1-.17-.567V7.85a.512.512 0 0 1 .512-.512h.026a.512.512 0 0 1 .512.512V11h3.9V7.85a.512.512 0 0 1 .512-.512h.026A.512.512 0 0 1 7 7.85zM16 7h-2V6h2z"/></svg>