<svg xmlns="http://www.w3.org/2000/svg" viewBox="0 0 21 21"><path d="M17 16.851c-.251.09-.485.146-.68.146-1.235 0-2.155-.592-2.82-1.292-.585.727-1.54 1.292-2.807 1.292h-.386c-1.267 0-2.222-.565-2.807-1.292-.665.7-1.585 1.292-2.82 1.292-.203 0-.434-.053-.68-.14V15.44c.217.067.435.107.655.107 1.168 0 2.098-.716 2.845-1.547.829.831 1.808 1.446 2.879 1.446h.242c1.071 0 2.05-.615 2.879-1.446.747.831 1.677 1.547 2.845 1.547.22 0 .438-.04.655-.107v1.411zM8 10.6C8 9.164 9.12 8 10.5 8S13 9.164 13 10.6c0 1.082-.636 2.009-1.54 2.4H20l-3-9H4l-3 9h8.54C8.636 12.609 8 11.682 8 10.6z"/></svg>