<svg xmlns="http://www.w3.org/2000/svg" viewBox="0 0 21 21"><path d="M6.083 5.088h3.644c.68 0 1.36.094 2.04.28.68.187 1.296.48 1.845.882.55.4.995.914 1.335 1.54.34.625.51 1.376.51 2.253 0 .85-.17 1.585-.51 2.205a4.686 4.686 0 0 1-1.335 1.541 5.91 5.91 0 0 1-1.844.91 7.2 7.2 0 0 1-2.04.301H6.082V5.088zm1.484 8.693h1.86c.64 0 1.233-.084 1.778-.252a4.189 4.189 0 0 0 1.41-.728c.395-.317.702-.71.922-1.176s.33-.994.33-1.582c0-.615-.11-1.156-.33-1.623s-.527-.857-.922-1.17a4.161 4.161 0 0 0-1.41-.713 6.141 6.141 0 0 0-1.777-.246h-1.86v7.49z"/></svg>