<svg xmlns="http://www.w3.org/2000/svg" viewBox="0 0 13 13"><path d="M11.743 7.129l-.77 1.313-2.48 1.657-.383-.207a18.527 18.527 0 0 0 2.194-1.944c-.01-.009-1.637 0-1.637 0a2.16 2.16 0 0 1-1.306.657 5.732 5.732 0 0 0-.688.032s-.076.224-.482.417a2.73 2.73 0 0 1-.813.232l-1.864 1.657h-.696l1.827-2.137.265-.6.042-.148s.002-.492-.001-.503a5.052 5.052 0 0 0-.41-.585.753.753 0 0 1-.294-.454 4.877 4.877 0 0 0 .07-.782c.02.07.554.693.628.785a2.447 2.447 0 0 0 .236.307.158.158 0 0 0 .084.012c.018 0 .548-.257.674-.296a14.881 14.881 0 0 0 1.623-.73c-.065-.176.06-.374-.022-.593a4.384 4.384 0 0 1-.112-.883c0-.018-.022-.03-.07-.04-.045-.008-.524.057-.524-.013a1.057 1.057 0 0 1 .132-.359c.046-.052.474-.023.474-.023l-.286-.6s-.431-.125-.594-.183c-.13-.046-1.164-.202-1.562-.26a.149.149 0 0 1-.124-.178l.025-.118a.148.148 0 0 1 .164-.117l1.431.18.631-.013-.739-.708L5.168.681A.148.148 0 0 1 5.17.47l.136-.134a.148.148 0 0 1 .208 0l1.495 1.478L7.622.41a.2.2 0 0 1 .25-.109l.048.017a.149.149 0 0 1 .089.196 10.363 10.363 0 0 0-.548 1.56 18.525 18.525 0 0 0 .706 1.985 1.025 1.025 0 0 1 .431-.013 6.344 6.344 0 0 0 1.21.022.666.666 0 0 1 .097.197 2.644 2.644 0 0 1-.209.364l-1.098.367a1.09 1.09 0 0 0 .084.414c.074.1.368.542.437.664a1.431 1.431 0 0 1 .14.516 2.846 2.846 0 0 1-.146.56z"/></svg>