<svg xmlns="http://www.w3.org/2000/svg" viewBox="0 0 21 21"><path d="M10.15 4.5a1.35 1.35 0 1 1 2.699 0 1.35 1.35 0 0 1-2.699 0zm5.74 5.702l.01-.008L13 7H8.387L5.9 4.202l-.005.004A.49.49 0 0 0 5.5 4a.5.5 0 0 0-.5.5.49.49 0 0 0 .11.3l-.01.006L8 8h1.481c-.08.174-.127.306-.127.306l-1.902 4.813-2.157 3.52c-.128.159-.227.334-.227.535 0 .32.203.59.486.697.439.189.64-.077.902-.305l2.002-3.17 1.183-2.412L11 13.344v3.831c0 .415.235.75.65.75.413 0 .648-.335.648-.75 0-3.783-.01-4.02-.01-4.02 0-.327-.302-.577-.302-.577l-1.533-1.969 1.163-2.521.759-.088 2.726 2.798.006-.003A.49.49 0 0 0 15.5 11a.5.5 0 0 0 .5-.5.49.49 0 0 0-.11-.298z"/></svg>