<svg xmlns="http://www.w3.org/2000/svg" viewBox="0 0 21 21"><path d="M12.797 16.738V18H8.231v-1.262c.046-.398.116-.842.21-1.332.093-.491 1.156-2.963 1.319-3.209.164-.245.42-.197.771-.197.28 0 .62-.058.772.197.09.154 1.197 2.747 1.301 3.226.106.479.17.917.193 1.315zm-6.15-5.418a2.468 2.468 0 0 1-.036-.385c0-.351.053-.848.159-1.49a4.012 4.012 0 0 1 .718-1.737c.35-.49.626-.993.825-1.507a9.377 9.377 0 0 0 .613-2.595c.023-.327.038-.466.038-.606H7v.105c0 .233-.049.577-.143 1.22-.093.643-.35 1.303-.771 1.981a7.08 7.08 0 0 0-.736 1.368 8.757 8.757 0 0 0-.421 1.332c-.093.42-.152.8-.176 1.14-.022.338-.034.613-.034.824v.35L3 11l2.7 3.861L8.26 11l-1.613.32zM16.26 7L13.7 3.139 11 7l1.719-.32v.35c0 .21.012.486.034.824.024.34.083.72.176 1.14.094.42.234.865.42 1.332.188.468.433.924.737 1.368.42.678.678 1.338.771 1.98.094.644.143.988.143 1.221V15h1.964c0-.14-.015-.279-.038-.606a9.377 9.377 0 0 0-.613-2.595 6.822 6.822 0 0 0-.825-1.507 4.012 4.012 0 0 1-.718-1.736c-.106-.643-.159-1.14-.159-1.49 0-.117.013-.246.036-.386L16.26 7z"/></svg>