<svg xmlns="http://www.w3.org/2000/svg" viewBox="0 0 21 21"><path d="M4 3.5C3.99 1.705 3.83 0 1 0v9c2.834 0 2.991-1.702 3-3.5v-2zM3 6.135A.865.865 0 0 1 2.135 7H2V2h.134c.478 0 .865.387.865.865v3.27zM13 0v9h-.9L11 4.5V9h-.985V.066L10 0h.9L12 4.5V0h1zm2.993 17c-.035 2.334-.24 4-1.493 4-1.5 0-1.5-2.462-1.5-5.5s0-5.5 1.5-5.5c.968 0 1.31 1.029 1.432 2.573l-1.023.247c-.091-.74-.228-1.199-.409-1.199-.367 0-.55 1.866-.55 4.168s.183 4.169.55 4.169c.302 0 .478-1.223.53-2.958h.963zM6.5 0C5 0 5 2.015 5 4.5S5 9 6.5 9 8 6.985 8 4.5 8 0 6.5 0zm0 7.25c-.367 0-.55-1.231-.55-2.75s.183-2.75.55-2.75.55 1.231.55 2.75-.183 2.75-.55 2.75zm4 2.75c-1.5 0-1.49 2.462-1.49 5.5S9 21 10.5 21s1.5-2.462 1.5-5.5 0-5.5-1.5-5.5zm0 9.35c-.367 0-.55-1.724-.55-3.85s.183-3.85.55-3.85.55 1.724.55 3.85-.183 3.85-.55 3.85zM15.5 0C14 0 14 2.015 14 4.5S14 9 15.5 9 17 6.985 17 4.5 17 0 15.5 0zm0 7.25c-.367 0-.55-1.231-.55-2.75s.183-2.75.55-2.75.55 1.231.55 2.75-.183 2.75-.55 2.75zM3.125 15.501c.798-.557.87-1.511.875-2.501-.01-1.538-.17-3-3-3v11c2.834 0 2.991-1.373 3-2.914V18c-.006-.987-.078-1.941-.875-2.499zM3 18.21a.79.79 0 0 1-.79.79H2v-2.5h.21a.79.79 0 0 1 .79.79v.92zm0-4.5a.79.79 0 0 1-.79.79H2V12h.21a.79.79 0 0 1 .79.79v.92zM21 2h-1v7h-1V2h-1V0h3v2zM8 19v2H5V10h1v9h2zm11-6l1 8h-.9l-.755-6.036L18 16v5h-1V10h1v3.3l1.1-3.3h.9l-1 3z"/></svg>