<svg xmlns="http://www.w3.org/2000/svg" viewBox="0 0 13 13"><path d="M6.267 6.927c.192.196.528.54.721.74L5.73 8.925a.519.519 0 0 1-.734-.733s.906-.904 1.27-1.265zM11 3.998v7H2v-7h2V3.16a1.162 1.162 0 0 1 1.162-1.162h2.676A1.162 1.162 0 0 1 9 3.16v.838zm-6 0h3v-.626c0-.262-.112-.374-.374-.374H5.374c-.262 0-.374.112-.374.374zm4.259 1.844a1.586 1.586 0 0 0-1.201-1.184 1.616 1.616 0 0 0-.342-.037 1.576 1.576 0 0 0-1.122.464L4.06 7.62a1.587 1.587 0 0 0 0 2.243 1.578 1.578 0 0 0 1.122.464 1.599 1.599 0 0 0 .492-.077 1.573 1.573 0 0 0 .63-.387l2.534-2.535a1.575 1.575 0 0 0 .422-1.486z"/></svg>