<svg xmlns="http://www.w3.org/2000/svg" viewBox="0 0 21 21"><path d="M5.198 13.1C6.945 13.114 7.06 16 7.06 16H3c.292-1.458.818-2.91 2.198-2.9zM19 13h-1.906c.5 0 .906.406.906.906v.188c0 .5-.406.906-.906.906h-.188a.906.906 0 0 1-.906-.906v-.188c0-.5.406-.906.906-.906h-6.812c.5 0 .906.406.906.906v.188c0 .5-.406.906-.906.906h-.188A.906.906 0 0 1 9 14.094v-.188c0-.5.406-.906.906-.906H7v-.763L4.529 8.824l-1.964 4.023L2 12.395l2.202-4.238 6.82-5.072.513.48-.902 1.387L12.773 8l-3.93 3H14V7h3.403L19 10v3zm-1.133-3l-1.064-2H15v2h2.867z"/></svg>