<svg xmlns="http://www.w3.org/2000/svg" viewBox="0 0 21 21"><path d="M4 4v4h2v3H4v6h2v3H3V1h3v3H4zm4.942 13h-.884L7.9 20H7L8.1 1h.8L10 20h-.9l-.158-3zm-.158-3L8.5 8.6 8.216 14h.568zm4.986-3.377l-1.42-2.181a1.758 1.758 0 0 1-.264-.968C12.086 5 12 4 12.5 4s.374 1 .374 1.886l1.058-.44C13.81 2.777 13.468 1 12.5 1c-1.252 0-1.466 1.969-1.5 6v2.547c0 .295.087.584.251.83l1.477 2.221c.114.238.162.504.162.767C12.89 16 13 17 12.432 17c-.432 0-.374-1-.374-1.886l-1.058.44c.122 2.668.464 4.446 1.432 4.446 1.352 0 1.555-1.475 1.568-6l.013-2.55a1.5 1.5 0 0 0-.243-.827zM15 1v3h1v16h1V4h1V1h-3z"/></svg>