<svg xmlns="http://www.w3.org/2000/svg" viewBox="0 0 17 17"><path d="M14.563 7h-1.447l-1.091-2.21-.688.786L12.053 7h-1.97L10 7.092a1.201 1.201 0 0 1-1.397.3A1.183 1.183 0 0 1 8.141 7h-3.19l.909-1.807c.154-.32.199-.36.557-.36h.73c-.046-.046-.093-.091-.13-.146A1.197 1.197 0 0 1 6.808 4H6.41c-.894 0-1.368.499-1.59 1.073L3.876 7H2.437A.438.438 0 0 0 2 7.437v.73C2 8.627 2.54 9 3 9v4.167c0 .46.373.833.833.833h.334c.46 0 .833-.373.833-.833V12h7v1.167c0 .46.373.833.833.833h.334c.46 0 .833-.373.833-.833V9c.46 0 1-.373 1-.833v-.73A.438.438 0 0 0 14.563 7zm-9.396 3.5a1.245 1.245 0 0 1-1.25-1.25A1.24 1.24 0 0 1 5.167 8c.69-.006 1.25.556 1.25 1.25 0 .691-.56 1.252-1.25 1.25zm6.672 0a1.25 1.25 0 1 1 0-2.5 1.25 1.25 0 0 1 0 2.5zM9.1 6.3L9.402 4H8l1.1-3h2.1L9.4 3H12L9.1 6.3z"/></svg>