<?xml version="1.0" encoding="UTF-8"?><svg id="point_symbols" xmlns="http://www.w3.org/2000/svg" viewBox="0 0 21 21"><path d="M18.47577,9h-1.43616l-1.13245-2.71289c-.16663-.44012-.47943-.82446-.95032-1.05823l-.62549.78174c.18021.05488.21381.12383.34043.42096l1.08783,2.56842h-3.8198l-1.00281,1.25342c-.22852.28613-.57031.45068-.9375.45068-.18994,0-.37158-.04346-.54053-.12939-.50391-.25439-.76416-.83496-.61865-1.38037l.05188-.19434h-3.65149l1.09125-2.56842c.12701-.40228.20325-.43158.66803-.43158h1.25116c-.1261-.0816-.2417-.18024-.33075-.30566-.14514-.2049-.21234-.44867-.21265-.69434h-.71405c-1.07281,0-1.64209.59857-1.90784,1.28711l-1.13629,2.71289h-1.42542c-.28827,0-.52417.23578-.52417.52417v.47583c0,.55219.44769,1,1,1v6c0,.55219.44769,1,1,1h1c.55231,0,1-.44781,1-1v-1h9v1c0,.55219.44769,1,1,1h1c.55231,0,1-.44781,1-1v-6c.55231,0,1-.44781,1-1v-.47583c0-.28839-.2359-.52417-.52423-.52417ZM5.5,14c-.83112.00238-1.50391-.67041-1.5-1.49951-.00391-.8335.66888-1.50781,1.5-1.50049.82806-.00732,1.50098.66699,1.49951,1.50049.00146.8291-.67145,1.50189-1.49951,1.49951ZM15.50677,14c-.83246.00238-1.50189-.67041-1.50677-1.49951.00488-.8335.67432-1.50781,1.50677-1.50049.81891-.00732,1.48834.66699,1.49323,1.50049-.00488.8291-.67432,1.50189-1.49323,1.49951ZM10,9.50397l1.2016-4.50397h-2.30243l1.4032-4h3.00006l-2.60486,3h3.70563l-4.4032,5.50397Z"/></svg>