<svg xmlns="http://www.w3.org/2000/svg" viewBox="0 0 17 17"><path d="M14.495 7.71c-.577-1.398-.843-2.677-2.495-2.677-.264 0-.521.058-.773.138 0 0-1.177.941-1.177 2.13 0 .625.358 1.17.74 1.46a.436.436 0 0 1 .15.483l-.011.037a.436.436 0 0 1-.649.231c-.638-.407-1.23-1.108-1.23-2.211 0-1.104.64-1.942 1.108-2.409A5.982 5.982 0 0 0 7 3.998c-2.691 0-5 1.93-5 4.284 0 .6.154 1.069.422 1.437L4 13.967h.984v-3.08c.623.082 1.304.111 2.016.111.697 0 1.375-.04 2-.136v3.105h1l2-3.969c.603-.015.954-.274 1.372-.67l.26-.04c.096-.01.162.006.242.011.077.426.126.883.126 1.332 0 1.167-.64 1.249-1 1.367v1c.9-.17 2-.788 2-2.366 0-1.02-.167-2.133-.505-2.922zM13 7.758a.24.24 0 0 1-.24.24h-.52a.24.24 0 0 1-.24-.24v-.52a.24.24 0 0 1 .24-.24h.52a.24.24 0 0 1 .24.24v.52z"/></svg>