<svg xmlns="http://www.w3.org/2000/svg" viewBox="0 0 21 21"><path d="M13.42 5.689a6.799 6.799 0 0 1-1.01.856 2.09 2.09 0 0 1-1.546.069l1.5-1.137-1.091-.227a2.895 2.895 0 0 1-.841.91 2.557 2.557 0 0 1-1.737.207 6.707 6.707 0 0 0 .917-.461 2.38 2.38 0 0 0 .678-.687 3.267 3.267 0 0 1-.88-.446 2.21 2.21 0 0 1-.502-.862 13.633 13.633 0 0 1 1.695.995c.26.261.624-.247.624-.247a5.403 5.403 0 0 1-1.022-.773 7.594 7.594 0 0 1-.137-1.75 9.615 9.615 0 0 0 1.227 1.66 9.14 9.14 0 0 0 1.133 1.058 15.311 15.311 0 0 1-.417-1.773 7.694 7.694 0 0 0-1.02-2.1 3.064 3.064 0 0 1 1.304.769A4.093 4.093 0 0 1 13 4.182a.697.697 0 0 0 .42.672 2.66 2.66 0 0 0 .617-.93 6.657 6.657 0 0 0 .122-1.765 2.638 2.638 0 0 1 .723 1.541 2.107 2.107 0 0 1-.537 1.467l.535.365a5.328 5.328 0 0 0 1.043-1.146 4.1 4.1 0 0 0 .463-1.477 1.798 1.798 0 0 1 .341 1.296 4.117 4.117 0 0 1-.908 1.484l.365.365a8.16 8.16 0 0 0 1.147-.004c.365-.053 1.604-.066 1.656.3s-.156.625-.626.938a6.261 6.261 0 0 0-2.021 2.504c-.85 1.695-1.878 1.408-2.451 1.773a2.428 2.428 0 0 0-.796 1.304l-.052 1.304.437 3.097L14 18h-.926l-.421-.665L11.99 13h-.79a17.433 17.433 0 0 1-.379 2.751A8.552 8.552 0 0 1 9.5 17.9l-.513-.372a4.601 4.601 0 0 0 1.108-2.781l-.586-2.139c-1.252.052-3.608.104-3.608.104l-.88 1.725 1.115 2.93.821.633H5.883l-.513-.472-1.378-3.042.717-2.139a4.867 4.867 0 0 1-.858 1.073 5.448 5.448 0 0 1-.851.666v3.234l.55.68H2.522L2 17.272v-3.344a3.706 3.706 0 0 0 1.001-1.334c.163-.489-.678-1.271-.774-2.276s.275-1.886 1.546-1.886H7.62a12.786 12.786 0 0 0 2.583-.8 7.577 7.577 0 0 1 2.966.24 1.601 1.601 0 0 0 1.435-.575l.014-.93z"/></svg>