<svg id="symbols" xmlns="http://www.w3.org/2000/svg" viewBox="0 0 13 13"><path d="M8.307 3.522a4.209 4.209 0 0 1-.625.53 1.294 1.294 0 0 1-.957.042l.929-.703-.676-.141a1.792 1.792 0 0 1-.52.563 1.583 1.583 0 0 1-1.075.128 4.152 4.152 0 0 0 .567-.285 1.474 1.474 0 0 0 .42-.425 2.022 2.022 0 0 1-.545-.276 1.369 1.369 0 0 1-.31-.534 8.439 8.439 0 0 1 1.049.616c.161.162.386-.153.386-.153a3.345 3.345 0 0 1-.633-.478 4.701 4.701 0 0 1-.084-1.083 5.953 5.953 0 0 0 .76 1.027 5.658 5.658 0 0 0 .7.655 9.48 9.48 0 0 1-.257-1.098 4.763 4.763 0 0 0-.632-1.3 1.897 1.897 0 0 1 .807.476 2.533 2.533 0 0 1 .437 1.506.432.432 0 0 0 .26.416 1.647 1.647 0 0 0 .381-.576 4.121 4.121 0 0 0 .076-1.092 1.633 1.633 0 0 1 .448.953 1.304 1.304 0 0 1-.333.909l.331.226a3.299 3.299 0 0 0 .646-.71 2.538 2.538 0 0 0 .287-.914 1.113 1.113 0 0 1 .21.802 2.549 2.549 0 0 1-.562.919l.226.226a5.05 5.05 0 0 0 .71-.003c.227-.032.994-.04 1.026.186s-.097.387-.388.58a3.876 3.876 0 0 0-1.25 1.55c-.527 1.05-1.163.872-1.518 1.098a4.7 4.7 0 0 0-.822.808l.138 2.581.323.452h-.573l-.28-.412s-.087-.955-.152-1.213-.545-1.486-.545-1.486-.129.998-.205 1.468A5.884 5.884 0 0 1 5.557 11l-.378-.268A6.421 6.421 0 0 0 5.91 9.18l-.025-1.374c-.775.032-1.933.065-1.933.065l-.517.968.662 1.77.47.392h-.64l-.404-.292-.753-1.74a8.88 8.88 0 0 0 .344-1.324s-.405.365-.731.664a3.373 3.373 0 0 1-.527.412v1.797l.34.483h-.573l-.386-.45V8.621a2.295 2.295 0 0 0 .62-.826c.1-.302-.42-.787-.48-1.409s.17-1.167.958-1.167h2.382a7.915 7.915 0 0 0 1.599-.495 4.69 4.69 0 0 1 1.836.148.991.991 0 0 0 .888-.356l.009-.576z"/></svg>