<svg id="symbols" xmlns="http://www.w3.org/2000/svg" viewBox="0 0 17 17"><path d="M10.5 8a.999.999 0 0 1 .5.134V5H5v6h3.176l1.46-2.504A1 1 0 0 1 10.5 8zM8 9H6V8h2zM6 7V6h4v1zm7-1.5a.5.5 0 0 0 .5.5h.5v1h-.5a.5.5 0 0 0-.5.5v1a.5.5 0 0 0 .5.5h.5v1h-.5a.5.5 0 0 0-.5.5v.5h-.176L12 9.587V4H4v8h3.592l-1.166 2H6v-.5a.5.5 0 0 0-.5-.5h-1a.5.5 0 0 0-.5.5v.5H3v-.5a.5.5 0 0 0-.5-.5H2v-1h.5a.5.5 0 0 0 .5-.5v-1a.5.5 0 0 0-.5-.5H2V9h.5a.5.5 0 0 0 .5-.5v-1a.5.5 0 0 0-.5-.5H2V6h.5a.5.5 0 0 0 .5-.5v-1a.5.5 0 0 0-.5-.5H2V3h.5a.5.5 0 0 0 .5-.5V2h1v.5a.5.5 0 0 0 .5.5h1a.5.5 0 0 0 .5-.5V2h1v.5a.5.5 0 0 0 .5.5h1a.5.5 0 0 0 .5-.5V2h1v.5a.5.5 0 0 0 .5.5h1.392A.108.108 0 0 0 12 2.892V2h1v.5a.5.5 0 0 0 .5.5h.5v1h-.5a.5.5 0 0 0-.5.5zM7 15h7l-3.5-6zm4-1h-1v-1h1zm0-2h-1v-2h1z"/></svg>