<svg id="symbols" xmlns="http://www.w3.org/2000/svg" viewBox="0 0 13 13"><path d="M4 4h3v1.134a.999.999 0 0 0-.364.362L5.76 7H4zm-1 6v-.408a.505.505 0 0 1 .329-.474 1.36 1.36 0 0 1 1.173.037L5.176 8H3V3h5v2.134a.999.999 0 0 1 .364.362l.698 1.197.114-.349A.5.5 0 0 1 9.651 6H10V5h-.5a.5.5 0 0 1-.5-.5v-1a.5.5 0 0 1 .5-.5h.5V2h-.5a.5.5 0 0 1-.5-.5V1H8v.5a.5.5 0 0 1-.5.5h-1a.5.5 0 0 1-.5-.5V1H5v.5a.5.5 0 0 1-.5.5h-1a.5.5 0 0 1-.5-.5V1H2v.495A.505.505 0 0 1 1.495 2H1v1h.495A.505.505 0 0 1 2 3.505v.99A.505.505 0 0 1 1.495 5H1v1h.495A.505.505 0 0 1 2 6.505v.99A.505.505 0 0 1 1.495 8H1v1h.495A.505.505 0 0 1 2 9.505V10zm8 2H4l3.5-6zm-3-2H7v1h1zm0-1V7H7v2z"/></svg>