<svg xmlns="http://www.w3.org/2000/svg" viewBox="0 0 21 21"><path d="M10.5 3.2a7.3 7.3 0 1 0 0 14.6 7.3 7.3 0 0 0 0-14.6zM5.915 13.338c.028.045.037.1.024.151a.199.199 0 0 1-.088.124l-.597.37a.2.2 0 0 1-.275-.065A6.481 6.481 0 0 1 4 10.5c0-1.205.339-2.387.979-3.418a.2.2 0 0 1 .275-.065l.597.37a.198.198 0 0 1 .088.124.195.195 0 0 1-.024.151c-.533.858-.814 1.839-.814 2.838s.28 1.98.814 2.838zm8.202-3.99c-.006.004-.577.425-.573 1.01.002.27.042.539.081.808.05.349.104.71.078 1.076-.11 1.631-1.608 2.958-3.339 2.958-1.613 0-2.996-1.102-3.288-2.62-.044-.697.076-1.256.364-1.738.38-.632.972-1.057 1.546-1.468.535-.383 1.038-.745 1.38-1.258.856-1.29.517-2.018.513-2.026a.202.202 0 0 1 .18-.29c.043 0 .085.014.12.04.044.034 1.068.831.84 2.083-.221 1.198-.568 1.65-1.505 2.635-.472.495-.538.909-.443 1.13.078.184.283.284.578.284.066 0 .134-.004.206-.014.946-.13.979-.283 1.193-1.271l.023-.109c.26-1.198 1.818-1.573 1.884-1.588a.2.2 0 0 1 .162.357zm1.735 4.665a.2.2 0 0 1-.106-.03l-.597-.37a.199.199 0 0 1-.088-.124.196.196 0 0 1 .024-.151c.533-.858.814-1.839.814-2.838s-.28-1.98-.814-2.838a.195.195 0 0 1-.024-.15.198.198 0 0 1 .088-.125l.597-.37a.2.2 0 0 1 .275.065A6.485 6.485 0 0 1 17 10.5a6.481 6.481 0 0 1-.979 3.418.2.2 0 0 1-.17.095z"/></svg>