<svg xmlns="http://www.w3.org/2000/svg" viewBox="0 0 21 21"><path d="M3 2v17h15V2zm3.786.847a.836.836 0 1 1-.836.836.836.836 0 0 1 .836-.836zM4.039 7.555a.278.278 0 1 1 0-.555h.921l1.097-2h3.104l1.742 1.36c.234.166-.119.624-.366.466L9.144 5.85H8.036L9.292 9h2.158s.54.018.54.501c0 .487-.54.5-.54.5H8.7l-.763-1.684L7 9.158v2.371c.033.222-.225.429-.447.461A.505.505 0 0 1 6 11.648a.405.405 0 0 1 0-.119V9.041a.532.532 0 0 1 .185-.357l.906-.856-.747-1.879-.907 1.606zM16 12h-3v2h-3v2H7v1H6v-2h3v-2h3v-2h4zm.673-5.111A2.382 2.382 0 0 1 14.046 9a2.051 2.051 0 0 1-2.041-1.622 1.783 1.783 0 0 1 .224-1.054c.459-.764.88-.943 1.371-1.683a5.53 5.53 0 0 0 .792-1.802s.864.823.726 1.578a2.44 2.44 0 0 1-.736 1.672c-.601.631-.741 1.364.005 1.368.998.005 1.09-.627 1.247-1.347C15.79 5.392 17 4.77 17 4.77a1.977 1.977 0 0 0-.433.997c.002.412.134.71.106 1.122z" data-name="New Symbols"/></svg>