<svg xmlns="http://www.w3.org/2000/svg" viewBox="0 0 21 21"><path d="M10.5 1.999v-.001c-.004.006-2.147 2.691-6.5 2.625v4.1c0 3.664.397 7.887 6.5 10.275C16.603 16.61 17 12.387 17 8.724V4.623c-4.353.066-6.496-2.619-6.5-2.624zm3.31 7.843c.004.694.225 1.384.178 2.077-.117 1.716-1.696 3.079-3.488 3.079-1.717 0-3.138-1.179-3.436-2.731-.037-.623.048-1.224.378-1.775.772-1.286 2.418-1.775 3.244-3.02 1.05-1.583.584-2.474.584-2.474s1.082.824.85 2.096c-.235 1.273-.602 1.75-1.615 2.815-1.013 1.064-.675 2.099.57 1.929 1.247-.172 1.275-.494 1.538-1.706.262-1.21 1.926-1.595 1.926-1.595s-.734.528-.73 1.305z"/></svg>