<svg xmlns="http://www.w3.org/2000/svg" viewBox="0 0 21 21"><path d="M20 10.5A9.5 9.5 0 1 1 10.5 1a9.5 9.5 0 0 1 9.5 9.5zM3.8 15.084h1.379v-3.988h1.789V9.684h-1.79V7.328h1.988V5.916H3.8zm13.456-7.79a1.521 1.521 0 0 1 .655.2l.29.143V6.141l-.1-.058a2.008 2.008 0 0 0-1.113-.283c-2.805 0-2.805 3.643-2.805 4.84 0 3.026.971 4.56 2.886 4.56a1.823 1.823 0 0 0 1.04-.276l.091-.059V13.4l-.294.156a1.244 1.244 0 0 1-.603.15c-1.333 0-1.488-1.796-1.488-3.148 0-.977 0-3.265 1.44-3.265zM9.79 5.915H7.8v9.168h1.49c2.193 0 3.63-.309 3.63-4.433 0-4.373-1.48-4.735-3.13-4.735zm-.24 7.774V7.302c1.742.051 1.806 1.344 1.797 3.36 0 2.17-.424 2.949-1.796 3.028z" data-name="New Symbols"/></svg>