<svg data-name="New Symbols" xmlns="http://www.w3.org/2000/svg" viewBox="0 0 21 21"><path d="M2 6v1h1v2H2v1h10V6zm2 3V7h1v2zm2 0V7h1v2zm2 0V7h1v2zm3 0h-1V7h1zm8 2l-1.597-3H16v-.825A1.175 1.175 0 0 0 14.825 6h-.65A1.175 1.175 0 0 0 13 7.175V11H2v5h2.052a1.34 1.34 0 0 0-.052.353v.294A1.353 1.353 0 0 0 5.353 18h.294A1.353 1.353 0 0 0 7 16.647v-.294A1.34 1.34 0 0 0 6.948 16h7.104a1.34 1.34 0 0 0-.052.353v.294A1.353 1.353 0 0 0 15.353 18h.294A1.353 1.353 0 0 0 17 16.647v-.294a1.34 1.34 0 0 0-.052-.353H19zm-4 0V9h1.803l1.064 2zm0-7h-1V2h1zm-3.569.945L10.06 3.573l.521-.522 1.373 1.373zm5.616-.521L18.42 3.05l.521.522-1.372 1.372z"/></svg>