<svg xmlns="http://www.w3.org/2000/svg" viewBox="0 0 21 21"><path d="M4 6H3V4h12v2h-1v3h-.463l-.01-.002H13.5L13.486 9H12V6h-2v3H8V6H6v3H4V6zm11 5.44a2.22 2.22 0 0 1-.655.107c-1.168 0-2.098-.716-2.845-1.547-.829.831-1.808 1.446-2.879 1.446H8.38c-1.071 0-2.05-.615-2.879-1.446-.747.831-1.677 1.547-2.845 1.547-.22 0-.438-.04-.655-.107v1.418c.246.086.477.14.68.14 1.235 0 2.155-.593 2.82-1.293.585.727 1.54 1.292 2.807 1.292h.386c1.267 0 2.222-.565 2.807-1.292.665.7 1.585 1.292 2.82 1.292.195 0 .429-.056.68-.146v-1.41zM17 4v12.5c0 .827-.673 1.802-1.5 1.802s-1.802-.975-1.802-1.802V16h1.604L13 14v2.5c0 1.38 1 2.5 2.5 2.5a2.5 2.5 0 0 0 2.5-2.5V4h-1z"/></svg>