<svg xmlns="http://www.w3.org/2000/svg" viewBox="0 0 17 17"><path d="M8.5 1.189a7.3 7.3 0 1 0 0 14.6 7.3 7.3 0 0 0 0-14.6zm0 13.9c-3.64 0-6.6-2.961-6.6-6.6s2.96-6.6 6.6-6.6 6.6 2.96 6.6 6.6-2.96 6.6-6.6 6.6zM10.5 7c-.651 0-1.441-.526-2.277-1.084C7.61 5.508 6.849 5 6.5 5c-.545 0-1.583.792-2.146 1.354l-.708-.708C3.815 5.478 5.326 4 6.5 4c.651 0 1.441.526 2.277 1.084C9.39 5.492 10.151 6 10.5 6c.545 0 1.583-.792 2.146-1.354l.708.708C13.185 5.522 11.674 7 10.5 7zm0 3c-.651 0-1.441-.526-2.277-1.084C7.61 8.508 6.849 8 6.5 8c-.545 0-1.583.792-2.146 1.354l-.708-.708C3.815 8.478 5.326 7 6.5 7c.651 0 1.441.526 2.277 1.084C9.39 8.492 10.151 9 10.5 9c.545 0 1.583-.792 2.146-1.354l.708.708C13.185 8.522 11.674 10 10.5 10zm0 3c-.651 0-1.441-.526-2.277-1.084C7.61 11.508 6.849 11 6.5 11c-.545 0-1.583.792-2.146 1.354l-.708-.708C3.815 11.478 5.326 10 6.5 10c.651 0 1.441.526 2.277 1.084.613.408 1.374.916 1.723.916.545 0 1.583-.792 2.146-1.354l.708.708C13.185 11.522 11.674 13 10.5 13z"/></svg>