<svg xmlns="http://www.w3.org/2000/svg" viewBox="0 0 13 13"><path d="M9.312 4.5l.382-.931-.545-.212a2.378 2.378 0 0 1 1.749-.473l.09-.796a3.288 3.288 0 0 0-2.747.905l-.42-.163-.352.857-.907-.387L5.867 2H2v9h9V5.22zM3 3h2.44l.536 1H3zm5.443 5.115A2.126 2.126 0 0 1 6.098 10a1.83 1.83 0 0 1-1.822-1.448 1.591 1.591 0 0 1 .2-.941c.41-.682.786-.842 1.224-1.502A4.938 4.938 0 0 0 6.407 4.5s.772.734.648 1.409A2.178 2.178 0 0 1 6.398 7.4c-.537.564-.661 1.218.005 1.221.89.005.973-.56 1.113-1.202.139-.64 1.22-1.197 1.22-1.197a1.765 1.765 0 0 0-.388.89c.003.369.12.635.095 1.002z"/></svg>