<svg xmlns="http://www.w3.org/2000/svg" viewBox="0 0 17 17"><path d="M14.616 3.045a4.094 4.094 0 0 0-3.543 1.278l-.606-.36L9.583 5.5l-1.002-.562L7.933 3H3v12h10V7.448l-1.27-.74.874-1.52-.699-.386a3.187 3.187 0 0 1 2.621-.861zM4 4h3.075l.309 1H4zm6.41 5.875c.003.555.18 1.107.143 1.662A2.769 2.769 0 0 1 7.762 14a2.763 2.763 0 0 1-2.749-2.185 2.4 2.4 0 0 1 .303-1.42C5.933 9.366 7.25 8.975 7.91 7.98 8.75 6.713 8.378 6 8.378 6a1.825 1.825 0 0 1 .88 1.677c-.188 1.018-.682 1.4-1.492 2.252-.81.85-.54 1.679.456 1.543.998-.138 1.02-.395 1.23-1.365.21-.967 1.541-1.276 1.541-1.276a1.448 1.448 0 0 0-.583 1.044z"/></svg>