<svg id="Symbols" xmlns="http://www.w3.org/2000/svg" viewBox="0 0 21 21"><path d="M13.53 5.846l-1.143-.657-.837 1.456-.95-.545L9.8 4H4v14h12V9.2l-.942-.54.836-1.453-1.497-.861a3.918 3.918 0 0 1 3.558-1.348l.09-.996a4.842 4.842 0 0 0-4.516 1.844zM5 5h4.11l.382 1H5zm7.857 6.562c.004.611.2 1.218.158 1.828a3.25 3.25 0 0 1-3.27 2.71 3.039 3.039 0 0 1-3.024-2.404 2.641 2.641 0 0 1 .333-1.561c.679-1.132 2.127-1.563 2.854-2.658.925-1.393.514-2.177.514-2.177a2.028 2.028 0 0 1 .748 1.845 4.087 4.087 0 0 1-1.42 2.476c-.892.937-.595 1.848.501 1.698 1.098-.152 1.122-.435 1.354-1.501.23-1.064 1.694-1.404 1.694-1.404a1.781 1.781 0 0 0-.442 1.148z"/></svg>