<svg xmlns="http://www.w3.org/2000/svg" viewBox="0 0 21 21"><path d="M10 13.75V16H2v-2h.543C3.9 14 5 12.9 5 11.543V9.457C5 8.1 3.9 7 2.543 7H2V5h8v2.25c-1.583.243-2.8 1.599-2.8 3.25s1.217 3.007 2.8 3.25zm3-3.25c0-1.207-.86-2.217-2-2.45v4.9c1.14-.233 2-1.243 2-2.45zm4-1.043v2.086c0 .804.654 1.457 1.457 1.457H19V8h-.543C17.654 8 17 8.653 17 9.457zM11 5v2.25c1.583.243 2.8 1.599 2.8 3.25s-1.217 3.007-2.8 3.25V16h8v-2h-.543A2.457 2.457 0 0 1 16 11.543V9.457C16 8.1 17.1 7 18.457 7H19V5h-8zm-3 5.5c0 1.207.86 2.217 2 2.45v-4.9c-1.14.233-2 1.243-2 2.45zM2 13h.543C3.346 13 4 12.347 4 11.543V9.457C4 8.653 3.346 8 2.543 8H2v5z"/></svg>