<svg xmlns="http://www.w3.org/2000/svg" viewBox="0 0 21 21"><path d="M20 5h-6.706L10.5 0 7.706 5H1v1h6.147L1 17h19L13.853 6H20zm-5.649 3.386l-1.115 1.162a2.842 2.842 0 0 0-2.3-1.016 3.053 3.053 0 0 0-1.262.252 2.837 2.837 0 0 0-.953.69 3.151 3.151 0 0 0-.61 1.021 3.588 3.588 0 0 0-.215 1.245 3.658 3.658 0 0 0 .216 1.263 3.06 3.06 0 0 0 .608 1.02 2.766 2.766 0 0 0 .963.677 3.23 3.23 0 0 0 1.289.248 5.098 5.098 0 0 0 1.062-.104 3.748 3.748 0 0 0 .766-.239v-2.041h-1.932v-1.408h3.46v4.436l-.106.056a6.383 6.383 0 0 1-1.512.57 7.57 7.57 0 0 1-1.774.198 5.157 5.157 0 0 1-1.904-.344 4.34 4.34 0 0 1-2.481-2.45 5.21 5.21 0 0 1 .006-3.777 4.324 4.324 0 0 1 .994-1.471 4.526 4.526 0 0 1 1.5-.948 5.115 5.115 0 0 1 1.873-.338 5.369 5.369 0 0 1 1.888.313 4.037 4.037 0 0 1 1.54.985z" id="a266f9a3-ddbe-4ef0-9638-05e3b215865b" data-name="New Symbols"/></svg>