<svg xmlns="http://www.w3.org/2000/svg" viewBox="0 0 21 21"><path d="M10.5 3a7.5 7.5 0 1 0 7.5 7.5A7.5 7.5 0 0 0 10.5 3zM4 10.5a6.478 6.478 0 0 1 .29-1.92L5 10v1a3.491 3.491 0 0 0 1 2 10.328 10.328 0 0 0 1.54 3.28A6.502 6.502 0 0 1 4 10.5zm6.5 6.5a6.451 6.451 0 0 1-2.708-.599C7.388 14.62 9 13 9 13a1.385 1.385 0 0 0 0-2L7 9H6c-.539 0-1.07-.574-1.45-1.107A6.486 6.486 0 0 1 5.032 7H6l3-2v-.818a6.34 6.34 0 0 1 3.711.214c.454.279.86.604.289.604v.5L12 6a2.357 2.357 0 0 1 .481.634L14 6h1.18a6.537 6.537 0 0 1 .788 1H13l-1 1v1.586s0 1 2 1a.98.98 0 0 1 1 1v2c0 .604.004 1.202.225 1.364A6.476 6.476 0 0 1 10.5 17z"/></svg>