<svg xmlns="http://www.w3.org/2000/svg" viewBox="0 0 21 21"><path d="M15.5 8.546a2.05 2.05 0 1 0-2.05-2.05 2.05 2.05 0 0 0 2.05 2.05zm-8.146 2.113A3.008 3.008 0 0 0 5.5 9.998c-1.843 0-3.35 1.762-3.487 3.998h4.52a5.567 5.567 0 0 1 2.096-1.597c-.03-.074-.07-.138-.103-.209a3.364 3.364 0 0 1-1.172-1.531zm8.146-.661a3.016 3.016 0 0 0-1.887.686 3.364 3.364 0 0 1-1.126 1.48c-.038.08-.083.153-.116.235a5.565 5.565 0 0 1 2.095 1.597h4.521c-.138-2.236-1.644-3.998-3.487-3.998zm-10-1.452a2.05 2.05 0 1 0-2.05-2.05 2.05 2.05 0 0 0 2.05 2.05zm7.337.95a2.35 2.35 0 1 1-2.35-2.35 2.35 2.35 0 0 1 2.35 2.35zM6 17.998c.178-2.796 2.122-5 4.5-5s4.322 2.204 4.5 5z"/></svg>