<svg xmlns="http://www.w3.org/2000/svg" viewBox="0 0 21 21"><path d="M9.102 9.851l-2.75 2.742a.788.788 0 0 1-.558.226.848.848 0 0 1-.603-.252.845.845 0 0 1-.255-.602c0-.211.08-.409.229-.556l2.75-2.742 1.187 1.184z"/><path d="M16.62 6.404c-.758-.751-2.067-1.266-3.134-1.266-.812 0-1.586.43-2.245.953l1.077 1.074c.396.396.606.95.578 1.52a2.207 2.207 0 0 1-.652 1.456 2.231 2.231 0 0 1-1.559.652 2.01 2.01 0 0 1-1.05-.296L6.892 13.23a.777.777 0 0 0-.226.571c.003.22.093.43.252.588a.847.847 0 0 0 .603.251c.212 0 .41-.079.558-.225l2.91-2.9.553.55-2.909 2.902a.77.77 0 0 0-.228.555.85.85 0 0 0 .253.602.85.85 0 0 0 .604.252c.21 0 .41-.08.557-.226l2.91-2.9.541.538-2.91 2.9a.78.78 0 0 0-.226.571c.004.22.093.428.252.587a.84.84 0 0 0 .603.254.78.78 0 0 0 .558-.228l3.408-3.37c.59-.587 1.168-1.165 1.67-1.661.842-.842 1.305-1.913 1.304-3.016-.002-1.047-.55-2.67-1.309-3.422z"/><path d="M11.613 7.873L9.656 5.924l-.099-.078a4 4 0 0 0-2.445-.829c-1.07 0-2.074.416-2.834 1.167a3.917 3.917 0 0 0-1.177 2.79c0 .904.325 1.78.902 2.532a1.75 1.75 0 0 1 .459-.807l2.72-2.714-.659-.657.632-.63 2.817 2.808c.187.185.44.287.713.287.312 0 .623-.132.852-.36.451-.45.484-1.15.076-1.56z"/></svg>