<svg id="Symbols" xmlns="http://www.w3.org/2000/svg" viewBox="0 0 13 13"><path d="M11.931 8.732l-1.01-2.108a13.022 13.022 0 0 0-2.266-1.186A1.725 1.725 0 0 0 9 4.337C9 2.903 7.571 1 6.5 1S4 2.903 4 4.337a1.725 1.725 0 0 0 .345 1.101 13.022 13.022 0 0 0-2.267 1.186l-1.01 2.108a.606.606 0 0 0 .292.83L3 10.628V8.31A1.312 1.312 0 0 1 4.31 7h4.38A1.312 1.312 0 0 1 10 8.31v2.317l1.64-1.064a.606.606 0 0 0 .291-.831zM6.5 5.548A1.55 1.55 0 0 1 4.952 4h3.096A1.55 1.55 0 0 1 6.5 5.548zM8.69 8H4.31a.31.31 0 0 0-.31.31v3.38a.31.31 0 0 0 .31.31h4.38a.31.31 0 0 0 .31-.31V8.31A.31.31 0 0 0 8.69 8zM7 11H6v-1h1z"/></svg>