<svg xmlns="http://www.w3.org/2000/svg" viewBox="0 0 21 21"><path d="M11.394 6.082s.722-.703.752-1.118c.03-.418.199-1.016.199-1.016s-.81-.796-2.008-1.074c-1.12-.262-2.342-.304-2.342-.304l.162-.18s2.31-.563 4.118-.222c1.807.338 2.753 1.024 3.169 1.387.23.203.684.782.653 1.065-.017.163-.015.53.228.756.247.228.744.576.744.576s.608-.233.894-.109c.286.125.942.698.942.698s.12.443.058.595a4.927 4.927 0 0 1-.418.759c-.162.234-.619.771-.823.87-.205.1-.335.077-.49.066-.152-.01-.547-.302-.547-.302s-.58-.668-.816-1.054c-.233-.382-.696-.804-1.112-.834-.416-.03-1.881.647-1.881.647s.124-.096-.644-.693c-.607-.47-.838-.513-.838-.513zM3.972 16.227c.596.524.898.602 1.257.481.43-.143 5.46-6.947 6.757-8.457-.024-.081-.149-.26-.656-.65-.456-.355-.702-.47-.801-.507-.512.591-7.152 7.694-7.316 7.917-.164.223-.254.322.76 1.216z"/></svg>