<svg xmlns="http://www.w3.org/2000/svg" viewBox="0 0 21 21"><path d="M10.491 4.002a1.5 1.5 0 1 1 1.5 1.5 1.5 1.5 0 0 1-1.5-1.5zm5.526 6.905L15 16.383c-.071.266-.266.47-.531.398l-.176-.047a.518.518 0 0 1-.293-.657L15 11h-3.703a4.498 4.498 0 1 1-5.517-.063l-.515-3.154a.625.625 0 0 1 .458-.58l4.12-1.36a.668.668 0 0 1 .266.016l1.515.364a.6.6 0 0 1 .334.777L11 10h4.578a.497.497 0 0 1 .49.452 1.493 1.493 0 0 1-.05.455zm-9.993 1.524a3.283 3.283 0 1 0 1.06-.838l.131.798a.501.501 0 0 1-.414.574l-.18.029a.501.501 0 0 1-.573-.414zm.503-4.255l.349 2.138a4.475 4.475 0 0 1 1.313-.283l.914-2.735z"/></svg>