<svg xmlns="http://www.w3.org/2000/svg" viewBox="0 0 17 17"><path d="M14 9.106v-1.18l-.896-.928h-.282c0-2.672-1.236-4.017-3.103-3.879a4.427 4.427 0 0 0-2.055.965L7 3.419H6l-1.066.885a2.536 2.536 0 0 0-2.029.79 2.814 2.814 0 0 0 .041 3.98 2.696 2.696 0 0 0 3.881.04 2.745 2.745 0 0 0 .788-2.128l.9-1.067-.014-1-.252-.252a4.23 4.23 0 0 1 1.47-.736c1.403-.209 2.291 1.05 2.291 3.067h-.8l-.95.929v1.18a2.745 2.745 0 0 0-.946 2.062 2.814 2.814 0 0 0 2.843 2.786A2.73 2.73 0 0 0 14.9 11.17a2.703 2.703 0 0 0-.9-2.063zm-7.97-.801a1.766 1.766 0 0 1-2.38-.035 1.766 1.766 0 0 1-.034-2.381 1.856 1.856 0 0 1 2.45-.035 1.857 1.857 0 0 1-.035 2.45zm6.126 4.377a1.726 1.726 0 0 1-1.67-1.623 1.814 1.814 0 0 1 1.67-1.717 1.814 1.814 0 0 1 1.67 1.717 1.727 1.727 0 0 1-1.67 1.623z"/></svg>