<svg id="symbols" xmlns="http://www.w3.org/2000/svg" viewBox="0 0 21 21"><path d="M20.13 11.286a8.14 8.14 0 0 1-.967.766c-.43.268-1.127-.215-1.127-.215a1.205 1.205 0 0 1-.86.376 15.621 15.621 0 0 1-1.77-.215s-1.482.522-1.482 1.113c0 .59.161 2.889.161 2.889l.43 1h-1.02s-.625-1.486-.744-1.957a9.294 9.294 0 0 1-.183-1.21s-3.175.053-3.766 0a10.624 10.624 0 0 1-2.04-.698 4.013 4.013 0 0 0-1.77 1.05c-.538.697.275 2.815.275 2.815h-.952l-.505-2.01a5.126 5.126 0 0 1 .43-2.094 2.752 2.752 0 0 1-1.265-2.308v-.599a2.155 2.155 0 0 1-1.857-1.94C.98 7.07 2.158 6.092 2.292 5.983a.35.35 0 0 1 .44.545c-.39.315-.983.98-.92 1.423a1.459 1.459 0 0 0 1.167 1.33 2.635 2.635 0 0 1 2.747-2.129c1.127 0 5.17.054 5.814-.054a14.8 14.8 0 0 1 3.436.054 4.95 4.95 0 0 0 1.342.107l.951-1.251a2.888 2.888 0 0 1 .43 1.312 1.978 1.978 0 0 1-.49 1.261s1.363 1.685 1.686 1.953a10.763 10.763 0 0 0 1.234.752z"/></svg>