<svg id="symbols" xmlns="http://www.w3.org/2000/svg" viewBox="0 0 13 13"><path d="M12.461 6.986a5.037 5.037 0 0 1-.598.475c-.266.166-.698-.133-.698-.133a.746.746 0 0 1-.532.232A3.265 3.265 0 0 1 9.537 7s-.907-.152-.917.492c-.006.366.1 1.889.1 1.889l.265.619h-.631s-.387-1.02-.46-1.311A5.512 5.512 0 0 1 7.78 8H5.45a2.476 2.476 0 0 1-1.39-.482 2.29 2.29 0 0 0-.97.639c-.333.432.17 1.843.17 1.843h-.589s-.213-.946-.312-1.345a3.838 3.838 0 0 1 .124-1.282A.917.917 0 0 1 2 6.554v-.511A1.255 1.255 0 0 1 .756 4.7a1.696 1.696 0 0 1 .679-1.4.35.35 0 0 1 .44.544.877.877 0 0 0-.425.758c0 .559.194.665.623.726a1.452 1.452 0 0 1 1.471-1.202c.698 0 3.201.034 3.6-.033a9.16 9.16 0 0 1 2.127.033 3.063 3.063 0 0 0 .83.067l.59-1.075a2.414 2.414 0 0 1 .265.913 2.58 2.58 0 0 1-.303.98 15.985 15.985 0 0 0 1.044 1.51 6.664 6.664 0 0 0 .764.464z"/></svg>