<svg xmlns="http://www.w3.org/2000/svg" viewBox="0 0 17 17"><path d="M16.295 9.374s-.434.303-.782.52c-.348.218-.913-.174-.913-.174a.976.976 0 0 1-.695.305 12.645 12.645 0 0 1-1.434-.174s-.899.522-.899 1 .33 2.34.33 2.34l.348.809h-.926a11.484 11.484 0 0 1-.702-1.484 5.07 5.07 0 0 0-.148-.516H8a4.001 4.001 0 0 1-2.685-1.185 3.585 3.585 0 0 0-1.175.906c-.434.565.224 2.279.224 2.279h-.97l-.41-1.627a4.15 4.15 0 0 1 .348-1.695 2.196 2.196 0 0 1-1.123-1.869v-.721a1.774 1.774 0 0 1-1.17-1.563 2.211 2.211 0 0 1 .544-1.605.35.35 0 0 1 .501.489 1.432 1.432 0 0 0-.352 1.019 1.122 1.122 0 0 0 .633.968 2.42 2.42 0 0 1 2.27-1.368c.913 0 4.186.043 4.707-.044a11.978 11.978 0 0 1 2.781.044 2.044 2.044 0 0 0 .757.087l.77-1.013a2.338 2.338 0 0 1 .348 1.062 1.602 1.602 0 0 1-.397 1.02s1.434 1.364 1.695 1.582a8.71 8.71 0 0 0 1 .608z"/></svg>