<svg xmlns="http://www.w3.org/2000/svg" viewBox="0 0 21 21"><path d="M13.371 11.238l-.371.338v4.7c0 .445-.576.724-1.022.724-.446 0-.978-.279-.978-.725v-4.778c-.365-.04-2.138-.291-2.549-.382a20.23 20.23 0 0 1-1.338-.35s-.556.18-1.113.348v5.162c0 .446-.55.725-.996.725C4.56 17 4 16.721 4 16.275v-4.934c-.42.503-.892 1.407-.892 1.407l-1.007.436c-.037-1.512.232-2.363.194-2.553-.098-.64-.194-2.051-.194-2.215 0-.53.263-1.213.424-1.417C3.23 6.103 4.597 6 4.658 6c.344 0 2.164.12 2.464.165.302.043 2.12.173 2.281.185 0 0 1.45.144 1.587.144.159 0 .294-.017.406-.056.11-.025 4.062-2.57 4.356-2.76.38-.338.972-.565 1.772-.678l-.5 1.058C18.343 5.368 19 6.238 19 6.665c0 .075-.054.176-.166.302-.111.126-.202.19-.276.19h-.019a3.967 3.967 0 0 1-.989-.247 12.18 12.18 0 0 1-1.301-.586c-.01-.011-2.51 4.234-2.878 4.914zM18 14h-2v-1h-1v4h4v-4h-1v1z"/></svg>