<svg xmlns="http://www.w3.org/2000/svg" viewBox="0 0 21 21"><path d="M10.5 1a9.5 9.5 0 1 0 9.5 9.5A9.5 9.5 0 0 0 10.5 1zm-.406 14.084H8.531v-4.337H6.476v4.337H4.912V5.916h1.564v3.419H8.53V5.916h1.563zm5.111-7.447l-.29-.144a1.48 1.48 0 0 0-.654-.2c-1.44 0-1.44 2.288-1.44 3.265 0 1.352.154 3.149 1.486 3.149a1.251 1.251 0 0 0 .605-.151l.293-.155v1.464l-.092.06a1.82 1.82 0 0 1-1.039.275c-1.915 0-2.886-1.534-2.886-4.56 0-1.197 0-4.84 2.805-4.84a2.004 2.004 0 0 1 1.113.284l.1.057z" data-name="New Symbols"/></svg>