<svg id="Symbols" xmlns="http://www.w3.org/2000/svg" viewBox="0 0 17 17"><path d="M13.945 5.234L2.36 12.373l-.524-.852 1.504-.926-1.612-.93.5-.867 2.081 1.2 2.55-1.57L4.384 6.96 2.43 8.002l-.5-.868 1.467-.76-1.515-.898.51-.86L4 5.566V4h1v2.157L7 7.34v-3.09L4.957 2.872l.5-.667L7 3.245V1h1v2.246l1.523-1.041.5.667L8 4.249v3.478l3-1.848V3h1v2.264l1.42-.881zM14 7.287v2.429l2.19-1.214zm-4.69 4.857a3.643 3.643 0 0 0 3.642-3.642 3.542 3.542 0 0 0-.234-1.216L6.695 11.02a3.61 3.61 0 0 0 2.615 1.124zm-4.672.151L4.2 13.612l2.576-.859-1.1-1.1zm7.206.458l2.576.859-.859-2.576zm-2.334 2.63L10.7 13H8.295z"/></svg>