<svg id="Symbols" xmlns="http://www.w3.org/2000/svg" viewBox="0 0 13 13"><path d="M10.36 4.188L1.577 9.671l-.464-.751 1.373-.858-1.165-.672.383-.663 1.518.876 1.884-1.177-1.775-1.095-1.427.74-.383-.663 1.065-.537-1.283-.791.42-.682L3 4.186V3.028h.814v1.66L5 5.42V3.326l-1.18-.724.383-.663.797.503V1h1v1.442l.959-.503.383.663L6 3.326v2.543L8 4.62V3h1v.995l.895-.559zm.464 1.385V7.43L12.38 6.5zm-1.098-.001L5.12 8.427a2.776 2.776 0 0 0 4.785-1.926 2.709 2.709 0 0 0-.18-.93zm-6.18 3.83l-.335 1.007 1.97-.657-.842-.841zm5.711.55l1.77.457-.457-1.77zM7.12 11.764L8.048 10H6.19z"/></svg>