<svg xmlns="http://www.w3.org/2000/svg" viewBox="0 0 17 17"><path d="M12 5.643c0 1.593-1.433 1.966-2.027 2.921-.44.708-.194 2.157.6 3.75s.634 3.586-1.746 3.586-2.38-3.883-2.38-4.68-1.41-1.416-1.41-3.01.65-3.087 3.085-3.806C9.62 3.96 12 4.05 12 5.643zM11.333.81c-.447 0-.81.543-.81 1.214s.363 1.214.81 1.214.81-.544.81-1.214S11.78.81 11.333.81zM9.241.963A1.053 1.053 0 0 0 8.3 2.1a1.053 1.053 0 0 0 .94 1.137 1.053 1.053 0 0 0 .942-1.137A1.053 1.053 0 0 0 9.24.963zm-2.132.646c-.397 0-.718.492-.718 1.098s.321 1.098.718 1.098.718-.492.718-1.098-.321-1.098-.718-1.098zm-1.88 1.572c-.217.054-.306.45-.198.883s.371.742.588.688.305-.45.198-.883-.371-.742-.588-.688zM4.065 4.956c-.196.107-.182.512.032.904s.547.624.743.517.182-.512-.032-.904-.547-.624-.743-.517z"/></svg>