<svg data-name="New Symbols" xmlns="http://www.w3.org/2000/svg" viewBox="0 0 25 25"><path d="M14.767 8.978s-1.084-.53-1.084-1.08c0-.91 2.917-1.821 2.917-1.821a6.611 6.611 0 0 0-3.794.548 8.647 8.647 0 0 0-3.84 3.12c-.01.014-.01.024-.019.038A5.317 5.317 0 0 0 8.2 12.5a4.083 4.083 0 0 0 2.033 3.522s1.084.53 1.084 1.08c0 .91-2.917 1.821-2.917 1.821a6.611 6.611 0 0 0 3.794-.548 8.647 8.647 0 0 0 3.84-3.12c.01-.014.01-.024.019-.038A5.317 5.317 0 0 0 16.8 12.5a4.083 4.083 0 0 0-2.033-3.522zm-.718 3.65a1.424 1.424 0 0 1-1.422 1.421h-.254a1.424 1.424 0 0 1-1.422-1.422v-.254a1.424 1.424 0 0 1 1.422-1.422h.254a1.424 1.424 0 0 1 1.422 1.422z"/></svg>