<svg xmlns="http://www.w3.org/2000/svg" viewBox="0 0 13 13"><path d="M7.256 4.83a5.75 5.75 0 0 1-1.149.264c-.518.045-1.255.827-1.75.895a5.592 5.592 0 0 1-1.65-.23c-.27-.067-1.203-.21-1.203-.21l-.256-.511s.27-.015.89-.06c.437-.032 1.16-.11 1.16-.11a2.932 2.932 0 0 1-.045-.517 8.292 8.292 0 0 1 .112-.947s.093-.036-.132-.306A2.479 2.479 0 0 1 3 2a3.423 3.423 0 0 1 .97.496A8.674 8.674 0 0 1 5.1 3.675a1.79 1.79 0 0 1 .383.678 2.032 2.032 0 0 0 .624.023 1.035 1.035 0 0 1 .72-.256c.473 0 .481.271.481.271L8 4.707zM4 7v4h7V7zm2 2H5V8h1zm2 1H7V8h1zm2 0H9V9h1z"/></svg>