<svg xmlns="http://www.w3.org/2000/svg" viewBox="0 0 21 21"><path d="M9 12v5h9v-5zm2 2h-1v-1h1zm2.5 2c-.552 0-1-.672-1-1.5s.448-1.5 1-1.5 1 .672 1 1.5-.448 1.5-1 1.5zm3.5 0h-1v-1h1zm-.883-7.446l-1.454-.68s-.194-.63-1.21-.63a1.612 1.612 0 0 0-1.399.632 16.452 16.452 0 0 1-2.612-.048 4.01 4.01 0 0 0-.822-1.886 11.745 11.745 0 0 0-3.483-2.374 8.19 8.19 0 0 0-2.134-.432s.683.968 1.167 1.548a2.399 2.399 0 0 0 .726.677 17.802 17.802 0 0 0-.242 2.032 6.295 6.295 0 0 0 .096 1.112s-1.305.436-2.224.629a3.927 3.927 0 0 1-1.548.048l.483.823s2.129.193 2.71.338a7.69 7.69 0 0 0 2.853.435 9.08 9.08 0 0 0 2.95-1.015 3.818 3.818 0 0 1 2.08-.774 18.983 18.983 0 0 0 2.467-.435z"/></svg>