<svg xmlns="http://www.w3.org/2000/svg" viewBox="0 0 21 21"><path d="M16 8.048V3.666a1.668 1.668 0 0 0-1.668-1.668h-2.664A1.668 1.668 0 0 0 10 3.666v.332H9v6H8v-6H4v15h4v-6h1v6h4V15.56a4.822 4.822 0 0 1-1-.806v2.244h-2v-4h.948a4.656 4.656 0 0 1 0-3H10v-4h2v2.244a4.822 4.822 0 0 1 1-.806V3.998h-2v-.332a.669.669 0 0 1 .668-.668h2.664a.669.669 0 0 1 .668.668v4.382a3.5 3.5 0 1 0 1 0zm-9 8.95H5v-4h2zm0-7H5v-4h2zm9 3.95v-1.95h1.95a2.507 2.507 0 0 1-1.95 1.95zm0-2.95h-1v2.95a2.5 2.5 0 1 1 2.95-2.95z"/></svg>