<svg xmlns="http://www.w3.org/2000/svg" viewBox="0 0 17 17"><path d="M12 6.998V4.666a1.668 1.668 0 0 0-1.668-1.668H8.668A1.668 1.668 0 0 0 7 4.666v.332H6v4H5v-4H2v10h3v-4h1v4h3v-2.1a4.167 4.167 0 0 1-1-1.654v1.754H7v-2h.93a3.902 3.902 0 0 1 0-2H7v-2h1v1.754a4.167 4.167 0 0 1 1-1.653V4.998H8v-.332a.669.669 0 0 1 .668-.668h1.664a.669.669 0 0 1 .668.668v2.516a2.971 2.971 0 1 0 1-.184zm-8 6H3v-2h1zm0-4H3v-2h1zm6 1a1.994 1.994 0 0 1 3.722-1H11v2.722a1.994 1.994 0 0 1-1-1.722zm2 2v-2h2a2.002 2.002 0 0 1-2 2z"/></svg>