<svg id="Symbols" xmlns="http://www.w3.org/2000/svg" viewBox="0 0 21 21"><path d="M13.835 13.603a.5.5 0 0 1-.943.334 22.832 22.832 0 0 0-.554-1.373 1.495 1.495 0 0 1 .86-.533c.38.855.616 1.512.637 1.572zm4.219 3.743l-.708.708-1.759-1.76a3.53 3.53 0 1 1 .708-.707zM16 13.5a2.5 2.5 0 1 0-2.5 2.5 2.503 2.503 0 0 0 2.5-2.5zM7.771 1.318a7.003 7.003 0 0 1 5.06.755 8.055 8.055 0 0 1 3.85 4.744.5.5 0 0 0 .485.377.511.511 0 0 0 .123-.015.499.499 0 0 0 .361-.607 8.92 8.92 0 0 0-4.373-5.394 7.812 7.812 0 0 0-5.845-.8.5.5 0 0 0 .34.94zm1.474 8.854a.5.5 0 0 0-.984.175 9.16 9.16 0 0 0 .383 1.339 5.164 5.164 0 0 1 .665-1.237 6.353 6.353 0 0 1-.064-.277zm-7.19-.166c.511-3.586 2.53-5.938 5.537-6.453 3.471-.596 6.305 1.212 7.374 4.721.031.104.05.188.08.287a5.163 5.163 0 0 1 1.187.535c-.088-.347-.19-.716-.31-1.113a7.286 7.286 0 0 0-8.501-5.416c-3.462.594-5.78 3.253-6.358 7.297-.534 3.741 1.788 7.199 1.887 7.345a.5.5 0 0 0 .826-.563c-.021-.033-2.2-3.29-1.722-6.64zm6.583 5.287a8.22 8.22 0 0 1-1.642-5.227 1.854 1.854 0 0 1 1.11-1.728 2.37 2.37 0 0 1 2.34.974 5.184 5.184 0 0 1 .866-.512c-.039-.046-.074-.102-.113-.146a3.325 3.325 0 0 0-3.397-1.268 2.796 2.796 0 0 0-1.8 2.577 9.542 9.542 0 0 0 2.07 6.28 8.88 8.88 0 0 0 2.738 2.109.501.501 0 0 0 .223.052.49.49 0 0 0 .347-.167 5.209 5.209 0 0 1-2.742-2.944zm-4.139-3.936C4.449 7.1 6.334 6.158 7.757 5.82c2.229-.526 4.004 1.32 4.837 2.571A5.167 5.167 0 0 1 13.5 8.3c.077 0 .149.02.225.023-.906-1.638-3.188-4.192-6.199-3.476-2.755.654-4.072 2.788-4.027 6.522.044 3.692 3.184 6.937 3.316 7.073a.5.5 0 0 0 .715-.7c-.03-.03-2.992-3.098-3.031-6.385z"/></svg>