<svg id="finals" xmlns="http://www.w3.org/2000/svg" viewBox="0 0 21 21"><path d="M4 15H2V7l7.5-6 6.22 4.976c-.03.028-.07.062-.098.087l-.026.024-.978.629L9.5 2.899 4 7v8zm13.737-5.781c.347.181.705.342 1.07.482.262.102.535.17.814.203h.015c.061 0 .136-.053.227-.156.093-.104.137-.187.137-.249 0-.35-.54-1.066-1.625-2.144l.512-1.273c-.658.093-1.246.682-1.559.96-.241.157-3.492 2.25-3.582 2.27a1.023 1.023 0 0 1-.334.047c-.113 0-1.306-.119-1.306-.119-.132-.01-1.627-.016-1.876-.051a34.955 34.955 0 0 0-2.027-.136c-.05 0-1.174.085-1.754.822A1.999 1.999 0 0 0 6.1 10.94c0 .134.08 1.295.16 1.821.031.157-.19.857-.16 2.1 0 0 .527-.152.91-.477s.71-.625 1.055-1.039v4.059c0 .367.461.596.826.596.367 0 .82-.23.82-.596V13.56c.508-.073 1.045-.195 1.045-.195.363.108 1.098.39 1.78.452.339.075 1.49.026 1.791.059v3.527c0 .367.438.596.804.596s.841-.23.841-.596v-4.873l.305-.278c.303-.56 1.452-3.043 1.46-3.034z"/></svg>