<svg xmlns="http://www.w3.org/2000/svg" viewBox="0 0 21 21"><path d="M20 5h-6.706L10.5 0 7.706 5H1v1h6.147L1 17h19L13.853 6H20zM8.243 15.2H5.7V8.771h1.2v5.333h1.343zm3.857 0h-1.246l-.95-3.134.043.707V15.2H8.7V8.771h1.163l.94 3.058-.055-.691-.001-2.367H12.1zM14.3 8.691c1.482 0 1.537 1.225 1.708 1.55l-1.145.47c-.124-.475-.101-.868-.539-.868-.43 0-.503.663-.503 2.15 0 2.135.365 2.135.503 2.135.615 0 .452-1.23.488-1.415h-.672v-1.095h1.871c.024 2.434-.177 2.849-.583 3.259a1.425 1.425 0 0 1-1.056.403c-1.66 0-1.799-1.62-1.799-3.279 0-1.317 0-3.31 1.727-3.31z" id="a204c3ba-d8f0-4ac1-97aa-e19d08ecab39" data-name="New Symbols"/></svg>