<svg xmlns="http://www.w3.org/2000/svg" viewBox="0 0 17 17"><path d="M14.174 14.995c-.378-.69-1.878-3.161-3.954-3.161-1.029 0-2.201.823-3.336 1.619-1.04.73-2.107 1.48-3.024 1.48-.203 0-.379-.018-.53-.081a1.004 1.004 0 0 1-.29-.112c-.633-.343-1.573-1.48-.741-3.382l.54.263c-.29.67-.345 1.265-.166 1.77.125.35.342.587.502.717 0 0 .325.229.695.22.722-.018 1.712-.695 2.67-1.366 1.21-.85 2.461-1.728 3.68-1.728 2.458 0 4.099 2.756 4.497 3.5l-.543.26zm-7.72-9.978L2.55 10.062l1.145 1.145L8.74 7.305 6.452 5.017zm4.63 1.51c.02-.018.044-.028.064-.048a2.625 2.625 0 1 0-3.713-3.712c-.02.02-.03.044-.048.064l3.696 3.697zM7.015 3.322a2.585 2.585 0 0 0-.322 1.18l2.719 2.72a2.58 2.58 0 0 0 1.18-.322L7.017 3.32z"/></svg>