<svg xmlns="http://www.w3.org/2000/svg" viewBox="0 0 17 17"><path d="M15 4.576l-2.578-2.578c-.528.45-1.262 1.194-2.01 1.194S9.028 2.448 8.5 1.998c-.528.45-1.164 1.194-1.912 1.194s-1.482-.744-2.01-1.194L2 4.575a4.319 4.319 0 0 1 .918 2.394C2.918 8.575 2 8.834 2 10.29a3.673 3.673 0 0 0 3.586 3.687 3.155 3.155 0 0 1 2.915 1.02 3.153 3.153 0 0 1 2.913-1.02A3.673 3.673 0 0 0 15 10.29c0-1.462-.918-1.71-.918-3.322A4.316 4.316 0 0 1 15 4.576zm-3.586 8.401l-.56-.008a3.95 3.95 0 0 0-2.353.666 3.95 3.95 0 0 0-2.352-.666l-.563.008A2.673 2.673 0 0 1 3 10.291a2.147 2.147 0 0 1 .332-1.116 4.392 4.392 0 0 0 .583-2.177h9.17a4.381 4.381 0 0 0 .583 2.178A2.14 2.14 0 0 1 14 10.29a2.673 2.673 0 0 1-2.586 2.686z"/></svg>