<svg id="symbols" xmlns="http://www.w3.org/2000/svg" viewBox="0 0 17 17"><path d="M15.855 7.179c-.115-.18.257-.561-.969-2.1-1.56-1.867-4.448-1.84-4.89-1.802-.444.039-.792-.756-1.961-1.128-.456-.087-1.602-.19-.597.585 1.04 1.02.131.559-2.122 3.158a6.012 6.012 0 0 0-1.708 4.532c-.312.195-1.105-.202-1.708.189a1.813 1.813 0 0 0-.799 1.003c-.047.121-.137.33-.03.378.106.048.254-.188.448-.285a4.928 4.928 0 0 1 2.043.159 1.562 1.562 0 0 1 1.066 1.088c.022.046.002.133.068.133.1 0 .264-.433.26-.529-.03-.624-.009-1.354-.558-1.743l-.034-.08a5.686 5.686 0 0 1 3.956-3.87 12.701 12.701 0 0 1 3.346-.215 4.823 4.823 0 0 1-1.223.732c-.565.116.419.642 1.33.616.693-.02 1.099-.773 1.294-1.061a13.268 13.268 0 0 1 1.806.739c.65.545 1.047.54 1.265.322.22-.22-.167-.642-.283-.821z"/></svg>