<svg xmlns="http://www.w3.org/2000/svg" viewBox="0 0 21 21"><path d="M17.966 10.268l-3.957 2.23 1.362.964a7.139 7.139 0 0 1-3.51 1.912l-.722-6.376H15v-1h-3.975l-.118-1.041a2.495 2.495 0 0 0-.407-4.959 2.495 2.495 0 1 0-.407 4.959l-.118 1.041H6v1h3.861l-.723 6.376a6.974 6.974 0 0 1-3.495-1.922l1.348-.954-3.957-2.23.448 4.713 1.268-.897c1.182 1.69 2.87 2.782 4.747 3.07L10 18.998h1l.503-1.843c1.887-.29 3.584-1.385 4.778-3.05l1.237.876.448-4.713zM9 4.498c0-.827.673-1.5 1.5-1.5s1.5.673 1.5 1.5-.673 1.5-1.5 1.5S9 5.325 9 4.498z"/></svg>