<svg id="symbols" xmlns="http://www.w3.org/2000/svg" viewBox="0 0 13 13"><path d="M12.125 5.566c-.089-.137.196-.505-.741-1.682a4.866 4.866 0 0 0-3.74-1.378c-.34.03-.752-.65-1.576-.71-.133 0-1.001-.15-.457.295.796.78.177.427-1.546 2.415A4.597 4.597 0 0 0 2.76 7.97c-.238.15-.629.14-.858.305a1.457 1.457 0 0 0-.611.691c-.036.093-.105.252-.023.289s.194-.144.343-.218a1.758 1.758 0 0 1 1.114.037 1.195 1.195 0 0 1 .815.833c.017.034.001.101.052.101s.08-.061.099-.111a.579.579 0 0 0 .023-.217c-.022-.477.07-1.035-.35-1.333l-.026-.061A4.424 4.424 0 0 1 6.362 5.25a9.713 9.713 0 0 1 2.56-.164 3.688 3.688 0 0 1-.936.56c-.432.088.32.49 1.017.471.53-.015.84-.591.99-.812a5.729 5.729 0 0 1 1.38.642c.498.417.8.413.968.246.168-.167-.128-.49-.216-.628z"/></svg>