<svg xmlns="http://www.w3.org/2000/svg" viewBox="0 0 21 21"><path d="M19.586 8.991c-.143-.222.317-.816-1.197-2.716C16.462 3.967 12.894 4 12.347 4.049c-.547.047-1.213-1.052-2.545-1.147-.214 0-1.617-.242-.737.476 1.284 1.26.285.69-2.498 3.9a7.426 7.426 0 0 0-2.11 5.599c-.385.24-1.016.227-1.387.493a2.353 2.353 0 0 0-.987 1.116c-.057.149-.169.407-.037.466s.314-.232.554-.352a2.84 2.84 0 0 1 1.8.06 1.93 1.93 0 0 1 1.316 1.345c.028.056.003.164.086.164.082 0 .13-.1.159-.18a.935.935 0 0 0 .037-.35c-.036-.771.113-1.672-.565-2.153l-.042-.1a7.146 7.146 0 0 1 4.887-4.903 15.69 15.69 0 0 1 4.134-.265 5.958 5.958 0 0 1-1.512.904c-.697.142.518.793 1.643.76.856-.023 1.357-.954 1.598-1.31a9.254 9.254 0 0 1 2.232 1.036c.803.674 1.292.668 1.562.398.271-.27-.206-.793-.349-1.015z"/></svg>