<svg xmlns="http://www.w3.org/2000/svg" viewBox="0 0 21 21"><path d="M17 12.723v1.412C17 16.811 14.508 19 11.833 19S7 16.81 7 14.135V12.86A3.99 3.99 0 0 1 4 9V4.84A.84.84 0 0 1 4.84 4h.32a.84.84 0 0 1 .84.84v.32a.84.84 0 0 1-.84.84H5v3c0 1.654 1.346 3.1 3 3.1s3-1.446 3-3.1V6h-.16a.84.84 0 0 1-.84-.84v-.32a.84.84 0 0 1 .84-.84h.32a.84.84 0 0 1 .84.84V9a3.99 3.99 0 0 1-3 3.858v1.277C9 15.715 10.253 17 11.832 17 13.412 17 15 15.715 15 14.135v-1.412c-.595-.347-1-.985-1-1.723a2 2 0 1 1 4 0c0 .738-.405 1.376-1 1.723z"/></svg>