<svg xmlns="http://www.w3.org/2000/svg" viewBox="0 0 17 17"><path d="M6.183 14.936l.517-1.938h3.6l.517 1.938h1.816L11.6 12.998c.884 0 1.4-.116 1.4-1v-2.04c0-.236-.02-.478-.058-.71-.757-4.641-.67-5.25-2.342-5.25H6.4c-1.672 0-1.587.619-2.342 5.25a4.397 4.397 0 0 0-.058.71v2.04c0 .884.516 1 1.4 1l-1.033 1.938h1.816zM8.5 11.248a.75.75 0 1 1 0-1.5.75.75 0 0 1 0 1.5zm-2.2-6.25h4.4l.362 3-2.562 1-2.763-1 .563-3zm-3.3 10H2v-8c0-2.75 2.25-5 5-5h3c2.75 0 5 2.25 5 5v8h-1v-8c0-2.206-1.794-4-4-4H7c-2.206 0-4 1.794-4 4v8z"/></svg>