<svg id="symbols" xmlns="http://www.w3.org/2000/svg" viewBox="0 0 13 13"><path d="M9.308 6.391l.672.307-.017.016-.707.116a5.752 5.752 0 0 1-1.149.264c-.518.045-1.255.827-1.75.895a5.593 5.593 0 0 1-1.65-.23c-.27-.067-1.203-.21-1.203-.21l-.256-.511s.27-.015.89-.06c.437-.032 1.16-.11 1.16-.11a2.933 2.933 0 0 1-.045-.517 8.29 8.29 0 0 1 .112-.947.507.507 0 0 0-.132-.306A2.458 2.458 0 0 1 5 4a3.423 3.423 0 0 1 .97.496A8.674 8.674 0 0 1 7.1 5.675a1.791 1.791 0 0 1 .383.678 2.031 2.031 0 0 0 .624.023 1.036 1.036 0 0 1 .72-.256c.473 0 .481.271.481.271zM12 7h-1.2A4.321 4.321 0 0 1 7 10.8V12H6v-1.2A4.321 4.321 0 0 1 2.2 7H1V6h1.2A4.322 4.322 0 0 1 6 2.2V1h1v1.2A4.322 4.322 0 0 1 10.8 6H12zm-2-.5A3.5 3.5 0 1 0 6.5 10 3.504 3.504 0 0 0 10 6.5z"/></svg>