<svg xmlns="http://www.w3.org/2000/svg" viewBox="0 0 21 21"><path d="M17.775 10A7.292 7.292 0 0 0 11 3.223V2h-1v1.223A7.292 7.292 0 0 0 3.225 10H2v.998h1.225A7.29 7.29 0 0 0 10 17.773v1.225h1v-1.225a7.29 7.29 0 0 0 6.775-6.775H19V10zM10.5 17.098a6.6 6.6 0 1 1 6.6-6.6 6.6 6.6 0 0 1-6.6 6.6zm4.368-7.008l1.132.325-1.242.205a9.608 9.608 0 0 1-1.92.441c-.867.075-2.098 1.383-2.927 1.496a5.787 5.787 0 0 1-2.221-.442c-.452-.113-2.313-.57-2.313-.57L5 10.905a3.057 3.057 0 0 0 1.205-.038 14.03 14.03 0 0 1 1.937-.182 4.9 4.9 0 0 1-.076-.866 13.856 13.856 0 0 1 .189-1.582 1.867 1.867 0 0 1-.565-.527c-.377-.452-.909-1.205-.909-1.205a6.375 6.375 0 0 1 1.662.337 9.142 9.142 0 0 1 2.71 1.847 3.122 3.122 0 0 1 .641 1.468 3.395 3.395 0 0 0 1.043.038 1.255 1.255 0 0 1 1.09-.492c.79 0 .94.387.94.387z"/></svg>