<svg xmlns="http://www.w3.org/2000/svg" viewBox="0 0 17 17"><path d="M12.97 8.316l1.024.294-1.124.188a8.737 8.737 0 0 1-1.745.4c-.788.07-1.907 1.258-2.66 1.36a5.26 5.26 0 0 1-2.02-.4c-.41-.104-2.103-.52-2.103-.52L4 9.056a2.78 2.78 0 0 0 1.095-.034 12.762 12.762 0 0 1 1.761-.166 4.453 4.453 0 0 1-.068-.787 12.597 12.597 0 0 1 .17-1.437 1.698 1.698 0 0 1-.513-.48 21.97 21.97 0 0 1-.826-1.095 5.795 5.795 0 0 1 1.51.306 8.311 8.311 0 0 1 2.465 1.68 2.838 2.838 0 0 1 .582 1.334 3.088 3.088 0 0 0 .949.035 1.14 1.14 0 0 1 .99-.448c.719 0 .856.352.856.352zM16 9h-1.175A6.343 6.343 0 0 1 9 14.825V16H8v-1.175A6.343 6.343 0 0 1 2.175 9H1V8h1.175A6.343 6.343 0 0 1 8 2.175V1h1v1.175A6.343 6.343 0 0 1 14.825 8H16zm-2-.5A5.5 5.5 0 1 0 8.5 14 5.506 5.506 0 0 0 14 8.5z"/></svg>