<svg xmlns="http://www.w3.org/2000/svg" viewBox="0 0 17 17"><path d="M10.491 4.922l.002.003zm3.919 1.004a1.895 1.895 0 0 0 1.39-1.864s-1.52 1.145-1.675.72a6.55 6.55 0 0 1 .52-1.965s-1.416 1.384-1.614 1.34c-.398-.092-.404-.01-.656-.376a14.072 14.072 0 0 1-.844-1.625 6.048 6.048 0 0 1 .094 1.75c-.161.161-1.656-.844-1.656-.844A12.433 12.433 0 0 1 11.25 5.22c-1.077-.306-.747-.276-.757-.294l.232.733a11.787 11.787 0 0 0-2.66-.59 2.201 2.201 0 0 0-1.556.998s-1.365-.054-2.761-.054c-.763 0-1.41.015-1.801.46-.89.873-1.32 2.43-.762 2.43a.738.738 0 0 0 .458-.215c.27.662 1.309 1.106 1.309 1.106a13.086 13.086 0 0 0 .168 1.718 14.062 14.062 0 0 1-.16 2.576l.644.913h1.288c-.053-.268-.618-.78-.618-.78a2.613 2.613 0 0 1-.31-1.948A5.357 5.357 0 0 1 5.59 9.658a3.687 3.687 0 0 0 1.487.672 11.292 11.292 0 0 0 1.798.16c0 .27.296 3.382.296 3.382A3.581 3.581 0 0 1 9.654 15h1.182c-.054-.537-.941-1.101-.941-1.101l-.08-3.355a2.75 2.75 0 0 0 .86-.375c.697-.376.59-1.558.59-1.558.845.261 1.379 1.389 1.379 1.389A.58.58 0 0 0 13 9.45a11.501 11.501 0 0 0-.124-1.268s1.502 1.413 2.093.823-.804-2.327-.804-2.327a1.79 1.79 0 0 0 1.84-.434 2.93 2.93 0 0 1-1.595-.318z"/></svg>