<svg xmlns="http://www.w3.org/2000/svg" viewBox="0 0 21 21"><path d="M14.952 10.078C14.329 10.072 14 9.95 14 9.95l1.503 2.382c.37.202 1.69.832 2.736 1.157l-.354.51c-.012 0-3.087-1-3.087-1L13 10h-1l2 2.873v2.39s.996 3.352 1 3.357l-.426.38L13 15.227l.347-2.26L11.202 10c.05.405.798 2.477.798 3 0 2-1.024 2.88-1.5 3-.477-.12-1.5-1-1.5-3 0-.516.806-3 .806-3L8 12.967v2.32c-.145.386-2 3.7-2 3.7l-.403-.367c0-.005 1.403-3.313 1.403-3.313l.34-2.433L9 10c-.237.024-1 0-1 0l-1.908 3s-3.061.992-3.071 1l-.196-.672s2.36-.96 2.739-1.171L7 9.95c-.573.032-.727.1-1.353.1C3.47 10.02 2.09 9.899 2 8.92c0-.098.023-.195.074-.285.26-.521 1.023-.615 1.926-.625 1.566 0 3.69-.057 5.092.299l.442.092L7 7V5.171L5.91 3.41l.404-.387 1.443 1.67L8 6.827l2.025 1.184s-.334-.798-.33-.822c0 0-.398-.415-.397-.78v-.056c0-.68.674-.86.94-.989L10.375 2h.22l.242 3.364c.26.142.754.278.754.991l.002.054c0 .361-.29.783-.29.783.004.023-.336.824-.336.824l2.263-1.212-.33-2.197L14.67 3l.426.41-1.43 1.713L14 7l-2.524 1.4.434.11c1.402-.364 3.526-.499 5.09-.5.902.01 1.67.104 1.935.626a.62.62 0 0 1 .065.28c-.087.984-1.87 1.128-4.048 1.162z"/></svg>