<svg xmlns="http://www.w3.org/2000/svg" viewBox="0 0 21 21"><path d="M19 8.916a.62.62 0 0 0-.065-.28C18.67 8.114 17.902 8.02 17 8.01c-1.564.001-3.688.136-5.09.5l-.434-.11L14 7l-.336-1.877 1.43-1.713L14.67 3l-1.768 1.607.329 2.197-2.263 1.212s.34-.801.337-.824c0 0 .289-.422.289-.783l-.002-.054c0-.713-.494-.849-.754-.991L10.596 2h-.221l-.137 3.364c-.266.129-.94.31-.94.989v.056c-.001.365.397.78.397.78-.004.024.33.822.33.822L8 6.827l-.243-2.134-1.443-1.67-.405.387L7 5.17V7l2.534 1.4-.442-.091C7.69 7.953 5.566 8.01 4 8.01c-.903.01-1.666.104-1.926.625A.572.572 0 0 0 2 8.92c.09.978 1.471 1.1 3.647 1.132.626 0 1.485-.069 2.059-.101l-2.142 2.206c-.378.21-2.739 1.17-2.739 1.17l.196.673c.01-.008 3.07-1 3.07-1S8.764 10.024 9 10l-1.66 2.874L7 15.307s-1.403 3.308-1.403 3.313l.403.367s1.855-3.314 2-3.7v-2.32L9.806 10S9 12.484 9 13c0 2 1.023 2.88 1.5 3 .476-.12 1.5-1 1.5-3 0-.523-.749-2.595-.798-3l2.145 2.968L13 15.227 14.574 19l.426-.38c-.004-.005-1-3.357-1-3.357v-2.39L12 10l2.798 3s3.075 1 3.087 1l.354-.51c-1.046-.325-2.367-.955-2.736-1.157L13.496 9.95s.833.12 1.456.127c2.179-.034 3.961-.178 4.048-1.162z"/></svg>