<svg id="symbols" xmlns="http://www.w3.org/2000/svg" viewBox="0 0 13 13"><path d="M3 6a2 2 0 1 0 2 2 2 2 0 0 0-2-2zm0 3a1 1 0 1 1 1-1 1.001 1.001 0 0 1-1 1zm7.128-2.987l-.616-1.464A2.457 2.457 0 0 1 11 4.712v-.14a2.152 2.152 0 0 0-1.714-.62v-.619a.612.612 0 0 0-.539-.602L8.02 1H6.5a.5.5 0 0 0 0 1h.856l.662 1.574a6.3 6.3 0 0 0-1.827.997H4.952A2.839 2.839 0 0 0 3.095 4a2.069 2.069 0 0 0-1.733.743l.18.235A2.49 2.49 0 0 1 5.5 7c0 .093.071.772.071 1H7.43c0-.228.071-.908.071-1a2.498 2.498 0 0 1 1.091-2.063l.535 1.272a2.001 2.001 0 1 0 1.002-.196zM10 9a1 1 0 1 1 1-1 1.001 1.001 0 0 1-1 1z"/></svg>