<svg data-name="New Symbols" xmlns="http://www.w3.org/2000/svg" viewBox="0 0 21 21"><path d="M17.178 6.311l.552-1.257a3.504 3.504 0 0 0-1.703.914c-.134.086-1.07.981-1.981 1.854L10 5.412v-.14a.654.654 0 0 0-.654-.653h-.303a1.193 1.193 0 0 0-1.105.905L7.2 7.842a2.21 2.21 0 0 0 .075 1.312L9 10.952V15h1v-1.168c.674.074 1.802.157 2.057.184v4.224c0 .403.482.655.885.655s.925-.252.925-.655v-4.052l.335-.306c.334-.615 1.902-5.913 1.911-5.903.446.23 1.103.587 1.44.713a3.588 3.588 0 0 0 .895.222h.017c.067 0 .15-.057.25-.17a.481.481 0 0 0 .15-.274c0-.387-.495-.974-1.687-2.159zM12.216 9.54a1.128 1.128 0 0 1-.368.05c-.124 0-1.436-.13-1.436-.13L10 9.43V6.566l3.303 1.966c-.59.563-1.052.999-1.087 1.007zm-6.19-.206L8 11.354v2.165c-.309.062-.76.157-1.067.25v4.47c0 .404-.497.656-.9.656s-.91-.252-.91-.655v-4.265C4.744 14.43 4.369 15 4.369 15l-1.263.643a16.207 16.207 0 0 1 .176-2.31c-.101-.577-.176-1.856-.176-2.004a2.658 2.658 0 0 1 .384-1.282 3.922 3.922 0 0 1 2.426-.89 1.004 1.004 0 0 0 .11.176zm2.348-6.07a1.221 1.221 0 1 1 1.221 1.222 1.22 1.22 0 0 1-1.22-1.221z"/></svg>