<svg id="symbols" xmlns="http://www.w3.org/2000/svg" viewBox="0 0 21 21"><path d="M18.132 7.448s.435-.828.836-.597.134 1.027.134 1.027.769.264.902.694.1.53.234.629a.606.606 0 0 1 0 .86 1.272 1.272 0 0 1-1.237.066c-.334-.166-.768-.463-1.07-.43s-1.07.099-1.337.496-.2.562-.033 1.19.903 2.48 1.003 2.679.267.165.669.231.702.066.702.43-.368.265-.87.265a1.826 1.826 0 0 1-1.337-.629c-.368-.397-1.504-1.95-1.939-2.281s-.602-.496-1.738-.265a3.992 3.992 0 0 1-2.54-.033c-.536-.298-.703-.496-1.104-.298s-1.003.86-1.471 1.059-1.07.198-1.137.363a1.76 1.76 0 0 0 .301 1.224c.268.231.802.231.769.562s-.368.298-.836.298c-.658 0-.902-.199-1.003-.563a9.194 9.194 0 0 1-.2-2.48c.133-.264.735-1.058.969-1.455s.134-.694-.234-.76-.635.198-.836.661a4.993 4.993 0 0 1-2.607 2.383C1.852 13.072.219 13 .28 11.55c.06-1.423 1.003-1.326 1.203-1.194s.422.426-.066.995a.457.457 0 0 0 .4.73 3.344 3.344 0 0 0 2.842-1.887c.903-1.786 1.705-3.043 3.443-2.977a18.25 18.25 0 0 1 3.377.695c.902.1 2.039-.1 3.343-.1s2.64-.495 3.31-.363z"/></svg>