<svg xmlns="http://www.w3.org/2000/svg" viewBox="0 0 21 21"><path d="M8 0v9H7V4.667L6.5 7h-1L5 4.667V9H4V0h.9L6 4.867 7.1 0H8zm1.985 6.913V9H9V0c2.83 0 2.99 1.705 3 3.5-.008 1.56-.13 3.048-2.015 3.413zM11 2.865A.865.865 0 0 0 10.135 2H10v3h.135A.865.865 0 0 0 11 4.135v-1.27zM15 0v4h-1V0h-1v9h1V6h1v3h1V0h-1zM8.987 15.655V14.4c-.035-3.696-.014-4.4-1.5-4.4-1.514 0-1.31 1.63-1.432 4.075l1.058.404c0-.812-.126-2.479.374-2.479.513 0 .413.017.413 2.834 0 .314-.077.624-.264.888L6.243 18.8c-.16.225-.245.488-.243.757V21h2.973v-2H7.58l1.157-2.583c.163-.226.25-.49.25-.762zM12.465 13c-.185 0-.338.03-.478.076V12h2v-2H11v5.534l.94.466.07.035c.068-.468-.023-1.035.455-1.035.334 0 .535 0 .535 2 0 1.857-.013 2-.515 2-.498 0-.394-.5-.456-1.062l-1.004.511c.085 1.57.28 2.551 1.46 2.551C13.987 21 14 20 14 17s-.014-4-1.535-4z"/></svg>