<svg xmlns="http://www.w3.org/2000/svg" viewBox="0 0 17 17"><path data-name="Layer 1" d="M15 12.218c0 .385-.018.761-.5.761-.5 0-.525-.353-.5-.733.013-.24 0-2.897 0-2.897s-2.568-.6-3.01-.714c.063.127 1.191 1.96 1.191 1.96l-1.376 3.735c-.102.216-.335.807-.824.557-.543-.278-.129-.955-.078-1.07l1.1-2.937-3.838-4.177s-.72.422-1.1.612c-.386.222-.774.43-.774.43s-.85-.656-1.597-1.316c-.76-.671-1.632-1.275-1.657-1.58a.488.488 0 0 1 .21-.512.414.414 0 0 1 .526.068 273.53 273.53 0 0 0 2.475 2.178L7.253 5.37A3.245 3.245 0 0 1 6.1 5.161a1.01 1.01 0 0 1-.38-.893.9.9 0 0 1 .361-.704 1.366 1.366 0 0 1 1.233-.251.956.956 0 0 1 .565.846v.972C7.97 5.08 10 4.026 10 4.026s3.213.933 3.39 1.022a.633.633 0 0 1 .252.423c0 .393-.348.493-.733.408-.049-.011-2.673-.924-2.673-.924l-.975.725a14.097 14.097 0 0 0 2.367 1.953C11.793 7.723 15 8.685 15 8.685z"/></svg>