<svg id="Layer_4" xmlns="http://www.w3.org/2000/svg" viewBox="0 0 21 21"><path d="M6.5 1C5 1 5 5.253 5 10.5S5 20 6.5 20 8 15.747 8 10.5 8 1 6.5 1zm0 16.1c-.338 0-.508-2.955-.508-6.6s.17-6.6.508-6.6.508 2.955.508 6.6-.17 6.6-.508 6.6zM4 1v19h-.9L2 10.5V20H1V1h.9L3 11V1h1zm9 5.5C12.988 3.68 12.773 1 9 1v19h.985v-8.079c.454-.071.844-.19 1.171-.356L12 20h1l-.919-9.188c.83-1.044.912-2.65.919-4.312zM10 9V4h.213c.987 0 1.788.8 1.788 1.787v1.425C12 8.2 11.2 9 10.213 9H10zm7-8v3h-1v16h-1V4h-1V1h3zm4 0v19h-1v-7h-1v7h-1V1h1v9h1V1h1z"/></svg>