<svg xmlns="http://www.w3.org/2000/svg" viewBox="0 0 21 21"><path d="M7.534 10.998H3.225c-.011-.166-.025-.331-.025-.5a7.291 7.291 0 0 1 3.645-6.313l2.13 3.678A2.831 2.831 0 0 0 7.5 10.338v.32a2.787 2.787 0 0 0 .034.34zm3.126 2.5h-.32a2.806 2.806 0 0 1-1.21-.28L7.01 16.81A7.56 7.56 0 0 0 10.5 18a7.558 7.558 0 0 0 3.417-1.153l-2.12-3.59a2.816 2.816 0 0 1-1.137.241zm3.495-9.313l-2.13 3.678a2.831 2.831 0 0 1 1.475 2.475v.32a2.787 2.787 0 0 1-.034.34h4.309c.011-.166.025-.331.025-.5a7.291 7.291 0 0 0-3.645-6.313zM12 10.658v-.32a1.34 1.34 0 0 0-1.34-1.34h-.32A1.34 1.34 0 0 0 9 10.338v.32a1.34 1.34 0 0 0 1.34 1.34h.32a1.34 1.34 0 0 0 1.34-1.34z"/></svg>