<svg xmlns="http://www.w3.org/2000/svg" viewBox="0 0 17 17"><path d="M5.874 8.795l-.025-.182a1.365 1.365 0 0 1-.017-.185v-.26a2.137 2.137 0 0 1 1.11-1.862l.143-.08L5.2 2.97l-.138.08A6.089 6.089 0 0 0 2.03 8.299c0 .12.009.238.021.416l.01.149H5.7zm3.612 2.19a2.12 2.12 0 0 1-.856.181h-.26a2.105 2.105 0 0 1-.91-.211l-.132-.063-1.875 3.177.145.08a6.228 6.228 0 0 0 2.902.782 6.16 6.16 0 0 0 2.84-.753l.148-.078-1.872-3.173zm2.452-7.935l-.138-.08-1.885 3.257.142.079a2.137 2.137 0 0 1 1.111 1.862v.26a1.998 1.998 0 0 1-.026.255l-.022.18h3.669l.153-.06.011-.15c.008-.117.017-.235.017-.355a6.089 6.089 0 0 0-3.032-5.248z"/><rect x="7.003" y="7.001" width="2.994" height="2.994" rx="1.338" ry="1.338" transform="rotate(90 8.5 8.498)"/></svg>