<?xml version="1.0" encoding="utf-8"?>
<!-- Generator: Adobe Illustrator 24.2.1, SVG Export Plug-In . SVG Version: 6.00 Build 0)  -->
<svg version="1.1" id="Layer_1" xmlns="http://www.w3.org/2000/svg" xmlns:xlink="http://www.w3.org/1999/xlink" x="0px" y="0px"
	 viewBox="0 0 21 21" style="enable-background:new 0 0 21 21;" xml:space="preserve">
<path d="M3.4,7.9l1.7,1.7l-1.9,2L3.6,12l1.5-1.5l5.2,4.9l2.5,0.1l2.6,2.5l0.6-0.6l-2.6-2.5l-0.1-2L8,7.7l1.9-2L9.5,5.1L7.5,7.1
	L5.9,5.4l0.9-0.9L6.3,4L2,8.3l0.5,0.5C2.5,8.8,3.4,7.9,3.4,7.9z M5.6,10l1.9-1.9l3.5,3.5l-1.9,1.9L8,12.4l1.2-1.2l-0.5-0.5l-1.2,1.2
	C7.5,11.9,5.6,10,5.6,10z M4.1,7.3l1.1-1.1l1.7,1.7L5.8,8.9L4.1,7.3z M11,7.3c0,1.3,1.2,2.2,2,2.9c0.9,0.7,1.2,0.9,1.5,1.2
	c0.3-0.3,0.5-0.4,1.5-1.2c0.9-0.7,2-1.6,2-2.9c0-1.9-2.3-2.9-3.5-1.2C13.3,4.4,11,5.4,11,7.3z"/>
</svg>
