<svg xmlns="http://www.w3.org/2000/svg" viewBox="0 0 13 13"><path d="M2.8 5H1.031A.965.965 0 0 1 1 4.73C1 3.124 2.25 3.1 2.25 3.1A2.353 2.353 0 0 1 3.5 4.143 2.716 2.716 0 0 1 4.75 3.1S6 3.124 6 4.73a.965.965 0 0 1-.031.27h-.97l-.805-1.102-.847 1.975zm9.24 1.685l-.307.307-.564-.564-1.16 1.09 1.087 1.087-.495.495-.818-.818v.004L7.14 10.673l-1.489.03-1.286 1.3-.393-.393 1.334-1.348.08-1.221 2.647-2.503.003-.003-1.103-1.103.495-.495 1.109 1.11 1.16-1.09-.564-.563.307-.307zm-2.57 1.29L8.316 6.82 6.334 8.688 7.441 9.85zm1.385-1.8l-.897-.897-1.129 1.06.897.896zM5.64 6h-.88l-.415-.648-.836 2.25L2.523 6H1.36A7.797 7.797 0 0 0 3.5 8.4 7.797 7.797 0 0 0 5.64 6z"/></svg>