<svg xmlns="http://www.w3.org/2000/svg" viewBox="0 0 21 21"><path d="M18.499 8.78l.505-.505-4.279-4.28-.505.506.927.928-1.658 1.658-1.94-1.94-.494.496 1.937 2.038-5.17 5.11-.13 2.011-2.634 2.533.648.649 2.555-2.454 2.453-.05 5.158-4.92 1.485 1.486.495-.495-1.939-2.04 1.658-1.658zm-5.027 3.152l-1.244-1.244-.458.459 1.244 1.244-1.137 1.137-1.901-1.9 3.482-3.482 1.9 1.9zm1.758-3.004l-1.148-1.147 1.658-1.658 1.148 1.147zM3.114 7A3.48 3.48 0 0 1 3 6.154a1.892 1.892 0 0 1 1.75-2.152A3.286 3.286 0 0 1 6.5 5.379a3.789 3.789 0 0 1 1.75-1.377A1.892 1.892 0 0 1 10 6.154 3.48 3.48 0 0 1 9.886 7h-1.09L7.472 5.056 6.286 7.897 5.649 7zm5.153 1l-.583-.855-1.17 2.801L5.132 8H3.503A9.063 9.063 0 0 0 6.5 11a9.063 9.063 0 0 0 2.997-3z"/></svg>