<svg xmlns="http://www.w3.org/2000/svg" viewBox="0 0 21 21"><path d="M10.346 10.5c0 1.666-.102 3.207-.846 3.207s-.846-1.541-.846-3.207.102-3.207.846-3.207.846 1.541.846 3.207zM20 6h-6.147L20 17H1L7.147 6H1V5h6.706L10.5 0l2.794 5H20zm-8.02 4.5c0-1.525 0-4.7-2.48-4.7s-2.48 3.175-2.48 4.7 0 4.7 2.48 4.7 2.48-3.175 2.48-4.7zm1.04 2.493h1.299l-.021-.513c0-.272.033-.595.19-.595.183 0 .192.338.192.406 0 .6-.458 1.302-1.878 3.91H16v-1.249h-1.088c.707-1.376 1.094-1.873 1.094-2.694A1.39 1.39 0 0 0 14.48 10.8c-1.769 0-1.446 2.093-1.46 2.193z" data-name="New Symbols"/></svg>