<svg id="symbol" xmlns="http://www.w3.org/2000/svg" viewBox="0 0 17 17"><path d="M9 11v3h6v-3zm-7 3h4v-3H2zM9.187 1.203a4.352 4.352 0 1 0 3.61 3.609 4.355 4.355 0 0 0-3.61-3.61zM8 7.255A.744.744 0 0 1 7.256 8h-.512A.744.744 0 0 1 6 7.255v-.51A.744.744 0 0 1 6.744 6h.512A.744.744 0 0 1 8 6.744zM8.256 5h-.512A.744.744 0 0 1 7 4.255v-.51A.744.744 0 0 1 7.744 3h.512A.744.744 0 0 1 9 3.744v.511A.744.744 0 0 1 8.256 5zM11 6.255a.744.744 0 0 1-.744.745h-.512A.744.744 0 0 1 9 6.255v-.51A.744.744 0 0 1 9.744 5h.512a.744.744 0 0 1 .744.744z"/></svg>