<svg xmlns="http://www.w3.org/2000/svg" viewBox="0 0 17 17"><path d="M9 8.5l2 2.5h-1L8.5 9.125 7 11H6l2-2.5L6 6h1l1.5 1.875L10 6h1zm2.014 7.082c1.716-.68 4.718-2.405 5.079-4.56a2.834 2.834 0 0 0-1.16-2.694 2.706 2.706 0 0 1-.993-2.594 5.253 5.253 0 0 0-.455-2.63c-.836-1.72-4.313-2.132-5.4-2.079-1.558.075-4.797.229-5.185 3.477a5.725 5.725 0 0 0 .354 2.568 6.69 6.69 0 0 1 .408 2.423 7.577 7.577 0 0 1-.232 1.404c-.308 1.347-.658 2.873.993 4.196a5.7 5.7 0 0 0 3.543 1.045 8.5 8.5 0 0 0 3.048-.556zM8.132 2.024c1.286-.063 3.945.47 4.455 1.517a4.314 4.314 0 0 1 .353 2.173 3.657 3.657 0 0 0 1.342 3.373 1.888 1.888 0 0 1 .824 1.77c-.238 1.427-2.424 2.989-4.46 3.795-1.703.674-4.262.731-5.598-.34-1.16-.93-.933-1.929-.644-3.192a8.467 8.467 0 0 0 .258-1.594A7.663 7.663 0 0 0 4.21 6.77a4.777 4.777 0 0 1-.316-2.15c.239-2.006 1.8-2.48 4.239-2.597z"/></svg>