<svg xmlns="http://www.w3.org/2000/svg" viewBox="0 0 17 17"><path d="M5.047 13a3.857 3.857 0 0 0 1.03-2.185 2.746 2.746 0 0 0-.791-1.843c-.114-.155-.196-.266-.277-.386l-.133-.195A3.843 3.843 0 0 1 4 6.216 3.247 3.247 0 0 1 4.85 4l1.259.029a2.231 2.231 0 0 0-1.021 2.187 2.436 2.436 0 0 0 .771 1.878c.096.11.194.221.29.344.084.105.165.2.244.292a2.655 2.655 0 0 1 .673 2.085A3.815 3.815 0 0 1 6.309 13H5.047zm4.23 0a3.822 3.822 0 0 0 .756-2.185A2.655 2.655 0 0 0 9.36 8.73c-.079-.093-.16-.188-.244-.293q-.14-.174-.29-.343a2.44 2.44 0 0 1-.771-1.878 2.231 2.231 0 0 1 1.022-2.187L7.817 4a3.245 3.245 0 0 0-.85 2.216 3.836 3.836 0 0 0 .876 2.175l.134.195c.079.12.162.23.276.386a2.746 2.746 0 0 1 .791 1.843A3.863 3.863 0 0 1 8.014 13zm2.966 0A3.822 3.822 0 0 0 13 10.815a2.655 2.655 0 0 0-.673-2.085c-.079-.093-.16-.188-.244-.293q-.14-.174-.29-.343a2.44 2.44 0 0 1-.772-1.878 2.231 2.231 0 0 1 1.022-2.187L10.785 4a3.245 3.245 0 0 0-.85 2.216 3.836 3.836 0 0 0 .875 2.175l.134.195c.079.12.162.23.276.386a2.746 2.746 0 0 1 .791 1.843A3.863 3.863 0 0 1 10.981 13zM13 2H4a2 2 0 0 0-2 2v9a2 2 0 0 0 2 2h9a2 2 0 0 0 2-2V4a2 2 0 0 0-2-2zm1 11a1.001 1.001 0 0 1-1 1H4a1.001 1.001 0 0 1-1-1V4a1.001 1.001 0 0 1 1-1h9a1.001 1.001 0 0 1 1 1z"/></svg>