<svg id="symbol" xmlns="http://www.w3.org/2000/svg" viewBox="0 0 17 17"><path d="M9.65 11.885a.769.769 0 0 1-.767.767h-.766a.769.769 0 0 1-.767-.767v-.766a.769.769 0 0 1 .767-.767h.766a.769.769 0 0 1 .767.767zM15 4v9a2 2 0 0 1-2 2H4a2 2 0 0 1-2-2V4a2 2 0 0 1 2-2h9a2 2 0 0 1 2 2zm-1 0a1.001 1.001 0 0 0-1-1H4a1.001 1.001 0 0 0-1 1v9a1.001 1.001 0 0 0 1 1h9a1.001 1.001 0 0 0 1-1zm-5.5.098C6.035 4.098 5.145 7 6 7h1a.287.287 0 0 0 .3-.273c0-1.623 2.4-1.692 2.4-.184a1.157 1.157 0 0 1-1.212 1.092l-.5.017a.286.286 0 0 0-.288.273v1.8a.287.287 0 0 0 .3.273h1a.287.287 0 0 0 .3-.273v-.742c2.973-.806 2.548-4.885-.8-4.885z"/></svg>