<svg id="symbol" xmlns="http://www.w3.org/2000/svg" viewBox="0 0 17 17"><path d="M13 2H4a2 2 0 0 0-2 2v9a2 2 0 0 0 2 2h9a2 2 0 0 0 2-2V4a2 2 0 0 0-2-2zm1 11a1.001 1.001 0 0 1-1 1H4a1.001 1.001 0 0 1-1-1V4a1.001 1.001 0 0 1 1-1h9a1.001 1.001 0 0 1 1 1zM7.707 8H10v1H8.707l2.676 2.676A11.957 11.957 0 0 0 12 9V7.23A1.23 1.23 0 0 0 10.77 6H10V5h1V4H9v2H7V4H6v2.046a1.242 1.242 0 0 0-.18.067zm-.414 1H7v-.293L5.086 6.793A1.173 1.173 0 0 0 5 7.229v1.772c0 .697.821 4.089 1.5 4.089h4c.148 0 .303-.168.455-.428z"/></svg>