<svg xmlns="http://www.w3.org/2000/svg" viewBox="0 0 21 21"><path d="M19 5.998v1.2l-8.5-3-8.5 3v-1.2l8.5-3 8.5 3zm-2.133 5.623c.088.175.133.367.133.563v4.204a.61.61 0 0 1-.61.61H16v.666c0 .185-.15.334-.333.334h-1.334a.333.333 0 0 1-.333-.334v-.666H7v.666c0 .185-.15.334-.334.334H5.333A.333.333 0 0 1 5 17.664v-.666h-.39a.61.61 0 0 1-.611-.61v-4.204c0-.196.045-.388.133-.563l1.963-3.927a1.26 1.26 0 0 1 1.127-.696h6.554c.477 0 .913.27 1.127.696l1.963 3.927zM6 12.998H5v1h1v-1zm9.873-1l-1.927-3.856a.257.257 0 0 0-.233-.144H7.16c-.1 0-.189.055-.233.144L5 11.998h10.873zm.127 1h-1v1h1v-1z"/></svg>