<svg xmlns="http://www.w3.org/2000/svg" viewBox="0 0 21 21"><path d="M7 9.998H4v-4a2 2 0 0 1 2-2v-1h2v1h1v6H8v.5c0 .827.484 1.6 1.5 1.6 1.02 0 1.5-.773 1.5-1.6v-5a2.5 2.5 0 0 1 5 0v2.5h-1v-2.5c0-.827-.469-1.6-1.5-1.6-1.063 0-1.5.773-1.5 1.6v5.004a2.5 2.5 0 0 1-5 0v-.504zm9 0h1v-1h-1v1zm1 2h1v-1h-1v1zm-2-3h-1v1h1v-1zm2 6.443a2.22 2.22 0 0 1-.655.106c-1.168 0-2.098-.717-2.845-1.549-.829.832-1.808 1.449-2.879 1.449h-.242c-1.071 0-2.05-.617-2.879-1.449-.747.832-1.677 1.55-2.845 1.55-.22 0-.438-.04-.655-.107v1.418c.246.086.477.139.68.139 1.235 0 2.155-.592 2.82-1.292.585.727 1.54 1.292 2.807 1.292h.386c1.267 0 2.222-.565 2.807-1.292.665.7 1.585 1.292 2.82 1.292.195 0 .429-.056.68-.146v-1.41zm-1-4.443h-1v1h1v-1zm-3 1h1v-1h-1v1z"/></svg>