<svg xmlns="http://www.w3.org/2000/svg" viewBox="0 0 21 21"><path d="M7 10.504a2.5 2.5 0 0 0 5 0V5.5c0-.827.437-1.6 1.5-1.6 1.031 0 1.5.773 1.5 1.6V8h1V5.5a2.5 2.5 0 0 0-5 0v5c0 .827-.48 1.6-1.5 1.6-1.016 0-1.5-.773-1.5-1.6V10h1V4H8V3H6v1a2 2 0 0 0-2 2v4h3v.504zM16 9h1v1h-1zm1 2h1v1h-1z"/><path d="M14 9h1v1h-1zm3 6.443a2.22 2.22 0 0 1-.655.107c-1.168 0-2.098-.718-2.845-1.55-.829.832-1.808 1.449-2.879 1.449h-.242c-1.071 0-2.05-.617-2.879-1.449-.747.832-1.677 1.55-2.845 1.55-.22 0-.438-.04-.655-.107v1.418c.246.086.477.139.68.139 1.235 0 2.155-.592 2.82-1.292.585.727 1.54 1.292 2.807 1.292h.386c1.267 0 2.222-.565 2.807-1.292.665.7 1.585 1.292 2.82 1.292.195 0 .429-.056.68-.146v-1.41zM15 11h1v1h-1zm-2 0h1v1h-1z"/></svg>