<svg xmlns="http://www.w3.org/2000/svg" viewBox="0 0 21 21"><path d="M14.544 10.544l-.408 1.093c-.09.24-.136.494-.136.75V17h-1l-1-3.109s-1.533.207-3-.193c-2.157-.589-1.474-.772-1.97-.578-.703.275-1.231 1.586-1.231 1.586L4.899 17H4v-2c0-.294.477-2.8 1-3.605.542-.833-.654-1.218-1.21-2-.555-.781-.596-2.008-.596-2.008.083-1.42.847-2.561 1.31-3.193L5.294 8h5.761c.277 0 .563-.04.847-.098l2.642 2.642zm3.006-3.572C16.925 6.534 17 6 17 6V4l-.825 1h-1L14 4v2l-.69 1.31 1.84 1.84c.167-.076.52-.15 1.278-.15 1.563 0 2.405-.458 2.497-1.077.075-.5-.75-.514-1.375-.951z"/></svg>