<svg id="Names" xmlns="http://www.w3.org/2000/svg" viewBox="0 0 21 21"><path d="M15.85 16a1.85 1.85 0 1 1-3.7 0 1.85 1.85 0 0 1 3.7 0zM4.904 12.682l-2.122 2.121 1.415 1.415 2.121-2.122-1.414-1.414zM16.54 5.934L13.066 2.46a2.042 2.042 0 0 0-2.889 0L5.676 6.96a2.042 2.042 0 0 0-.309 2.493l.031.052.005.007c.244.406.42.847.51 1.306.08.409-.053.823-.315 1.144l1.44 1.44c.321-.262.735-.396 1.144-.315.459.09.9.266 1.306.51l.007.005.052.03c.803.481 1.83.354 2.493-.308l4.501-4.501a2.042 2.042 0 0 0 0-2.889z"/></svg>