<svg xmlns="http://www.w3.org/2000/svg" viewBox="0 0 17 17"><path d="M12.041 3.848c-2.294 0-4.123-1.72-6.417-1.72A5.967 5.967 0 0 0 2 3.239v10.724a24.327 24.327 0 0 1 3.625-.293c1.906 0 3.827 1.302 5.875 1.302a6.198 6.198 0 0 0 3.5-1.21V3.239s-.665.61-2.959.61zM12 10.596V12a1 1 0 0 1-1 1H6.313s-.808-.044-.538-.046A.986.986 0 0 1 5 12v-1.404A3.86 3.86 0 0 1 3.9 8.15 4.46 4.46 0 0 1 8.5 3.9a4.46 4.46 0 0 1 4.6 4.25 3.86 3.86 0 0 1-1.1 2.446zM8.5 5A3.283 3.283 0 0 0 5 8.15a2.882 2.882 0 0 0 1 2.043V12h1v-1h1v1h1v-1h1v1h1v-1.807a2.882 2.882 0 0 0 1-2.043A3.283 3.283 0 0 0 8.5 5zM7.243 8.5H6.85a.399.399 0 0 1-.384-.413v-.924a.399.399 0 0 1 .384-.413h.86a.399.399 0 0 1 .384.413v.51c0 .551-.046.827-.85.827zM9 10H8V9h1zm1.535-1.913a.399.399 0 0 1-.384.413h-.394c-.692 0-.85-.37-.85-.826v-.511a.399.399 0 0 1 .384-.413h.86a.399.399 0 0 1 .384.413z"/></svg>