<svg id="Symbols" xmlns="http://www.w3.org/2000/svg" viewBox="0 0 21 21"><path d="M15 5c-3 0-5-2-8-2a7.651 7.651 0 0 0-5 2v11.7a6.141 6.141 0 0 1 3.9-1.2c2.713 0 5.1 2.3 8.1 2.3a8.054 8.054 0 0 0 5-1.8V4.2S18 5 15 5zm-1 7.887V14a1 1 0 0 1-1 1h-1a.996.996 0 0 1-.5-.134.996.996 0 0 1-.5.134h-1a.996.996 0 0 1-.5-.134A.996.996 0 0 1 9 15H8a1 1 0 0 1-1-1v-1.113A4.404 4.404 0 0 1 5.1 9.6c0-2.58 2.428-4.7 5.4-4.7s5.4 2.12 5.4 4.7a4.404 4.404 0 0 1-1.9 3.287zM10.5 6C8.015 6 6.2 7.612 6.2 9.6A3.557 3.557 0 0 0 8 12.377V14h1v-1h1v1h1v-1h1v1h1v-1.623A3.557 3.557 0 0 0 14.8 9.6c0-1.988-1.815-3.6-4.3-3.6zM10 9.056c0 .63-.056.944-1.044.944h-.484A.472.472 0 0 1 8 9.528V8.473A.471.471 0 0 1 8.472 8h1.057a.471.471 0 0 1 .471.472zM11 12h-1v-1h1zm2-2.471a.472.472 0 0 1-.472.471h-.484C11.194 10 11 9.577 11 9.056v-.584A.471.471 0 0 1 11.472 8h1.057a.471.471 0 0 1 .471.472z"/></svg>