<svg id="Symbols" xmlns="http://www.w3.org/2000/svg" viewBox="0 0 13 13"><path d="M6.52 4h-.04A2.295 2.295 0 0 0 4 6.25a1.382 1.382 0 0 0 1 1.46V9h3V7.71a1.382 1.382 0 0 0 1-1.46A2.295 2.295 0 0 0 6.52 4zM5.274 6.25A.285.285 0 0 1 5 5.955v-.66A.285.285 0 0 1 5.274 5h.615a.285.285 0 0 1 .274.295v.365c0 .393-.033.59-.607.59zM7 8H6V7h1zm1-2.045a.285.285 0 0 1-.274.295h-.282c-.494 0-.607-.264-.607-.59v-.365A.285.285 0 0 1 7.111 5h.615A.285.285 0 0 1 8 5.295zm1.412-2.86C7.47 3.095 6.176 2 4.235 2A6.016 6.016 0 0 0 1 2.919v7.605a21.799 21.799 0 0 1 2.656-.149c1.563 0 3.42.825 5.009.825A7.434 7.434 0 0 0 12 10.08V2.777a6.699 6.699 0 0 1-2.588.32zM9 8.323V9a1 1 0 0 1-1 1H5a1 1 0 0 1-1-1v-.677A2.437 2.437 0 0 1 3 6.25 3.301 3.301 0 0 1 6.48 3 3.313 3.313 0 0 1 10 6.25a2.437 2.437 0 0 1-1 2.073z"/></svg>