<svg xmlns="http://www.w3.org/2000/svg" viewBox="0 0 17 17"><path d="M13.06 7.05a.167.167 0 0 0-.32 0l-.904 2.829a.167.167 0 0 1-.16.119S10 8.09 10 7.998c0 0 .005-1.984 0-2L8.66 3.383a.167.167 0 0 0-.32 0L7.007 5.998c-.005.016-.007 2-.007 2 0 .092-1.676 2-1.676 2a.167.167 0 0 1-.16-.12L4.259 7.05a.167.167 0 0 0-.32 0L3 9.998c-.005.016 0 4.833 0 4.833 0 .092.075.167.167.167H7.4v-2.576c0-.233.27-.424.602-.424h.995c.331 0 .603.19.603.424v2.576h4.233a.167.167 0 0 0 .167-.167V9.998c0-.016-.94-2.948-.94-2.948zM5 12.998H4v-2h1v2zm3.5-2.748a.75.75 0 1 1 0-1.5.75.75 0 0 1 0 1.5zm4.5 2.748h-1v-2h1v2z"/></svg>