<svg xmlns="http://www.w3.org/2000/svg" viewBox="0 0 13 13"><path d="M10.994 6.868l-.763-2.373a.137.137 0 0 0-.262 0l-.838 2.406A.137.137 0 0 1 9 6.998h-.863A.137.137 0 0 1 8 6.861V5.018a.138.138 0 0 0-.006-.04L6.631 2.096a.137.137 0 0 0-.262 0L5.006 4.98A.138.138 0 0 0 5 5.02v1.84a.137.137 0 0 1-.137.137H4a.137.137 0 0 1-.131-.097l-.838-2.406a.137.137 0 0 0-.262 0l-.763 2.373a.138.138 0 0 0-.006.04v3.953c0 .076.061.137.137.137H6V9.126c0-.07.07-.128.157-.128h.686c.087 0 .157.058.157.128v1.872h3.863a.137.137 0 0 0 .137-.137V6.907a.138.138 0 0 0-.006-.04zM4 9.998H3v-2h1v2zm3-2.22a.22.22 0 0 1-.22.22h-.56a.22.22 0 0 1-.22-.22v-.56a.22.22 0 0 1 .22-.22h.56a.22.22 0 0 1 .22.22v.56zm3 2.22H9v-2h1v2z"/></svg>