<svg xmlns="http://www.w3.org/2000/svg" viewBox="0 0 13 13"><path d="M4.75 3.854v.938a.406.406 0 0 1-.406.406h-.938A.406.406 0 0 1 3 4.792v-.938c0-.224.182-.406.406-.406h.938c.224 0 .406.182.406.406zm4.594-1.406h-.938A.406.406 0 0 0 8 2.854v.938c0 .224.182.406.406.406h.938a.406.406 0 0 0 .406-.406v-.938a.406.406 0 0 0-.406-.406zM11 5.998l-1.093-1H8.605l1.33 1.237-6.702 1.489L4 5.998H3l-1 2v1l1.197-.266L2.7 9.998h1l.592-1.51 1.858-.412-.95 2.922h2.6l-.997-3.067 1.5-.334L9.57 8.98l.963-.27-1.226-1.336L11 6.998v-1z"/></svg>