<svg id="Symbols" xmlns="http://www.w3.org/2000/svg" viewBox="0 0 21 21"><path d="M7.278 15.017a12.508 12.508 0 0 0 1.762-1.622l-.23-.057a1 1 0 0 1-.749-1.09l.049-.402.115-.953-.109-.028A1.5 1.5 0 0 1 7 9.415V7.55c-3.161.437-3.476 3.396-5.147 5.172-.11.272.52.21 1.032.08.044-.012 1.152-.182 2.125-1.892v2.245l-.76 1.094c-.469.469-1.25.927-1.25 1.585v1.81a.354.354 0 0 0 .354.355H5a1.245 1.245 0 0 0-.998-.948 1.942 1.942 0 0 1 .81-1.664 8.677 8.677 0 0 0 1.35-.876c-.249.338-.52.524-.52.958 0 .056 1.475 1.176 1.475 1.176.216.147.417.354.613.354h1.203a.826.826 0 0 0-.833-.708c-1.276-.936-1.155-1.178-.822-1.275zm11.53-9.12l.004.01-.006-.003c-.006.013-.003.022-.01.036a1.34 1.34 0 0 1-1.371.744C16.406 6.656 16 6.67 16 7.47v1.99c0 2.111-.625 2.623-.625 2.623l-1.163 1.173A3.89 3.89 0 0 0 14 14.927v2.165A1.095 1.095 0 0 1 15 18h-1.592a.41.41 0 0 1-.408-.372c-.049-.51.051-1.627 0-1.838a28.793 28.793 0 0 1-.198-1.163l-.034-1.862a4.545 4.545 0 0 1-1.018.035 5.488 5.488 0 0 1-.498-.051l.137-1.085.11.004a1.51 1.51 0 0 0 .93-.323A1.491 1.491 0 0 0 13 10.166V7.081l-.002-.007a15.697 15.697 0 0 0 .867-1.355l.151-.557.176-.765a4.389 4.389 0 0 1-.075-1.347 1.375 1.375 0 0 1 .708-.942 9.24 9.24 0 0 0 .017 1.034 1.075 1.075 0 0 0 .24.518c.066-.01.132-.02.198-.037l.006-.007v.005a2.755 2.755 0 0 1 .69-.067c.034 0 .06.012.093.016.002-.015.003-.032.006-.045a1.375 1.375 0 0 1 .708-.942 9.253 9.253 0 0 0 .017 1.034 1.907 1.907 0 0 1-.002.315 2.07 2.07 0 0 1 .447.818l1.214.6s.042.012.094.031l.001-.002.002.003c.118.044.3.14.3.342a.489.489 0 0 1-.048.173zm-7.425 4.757l-.849-.2-.28 2.215-1.2-.3.268-2.218-.95-.252A.501.501 0 0 1 8 9.414V7.391a21.334 21.334 0 0 0 4-.31v3.085a.501.501 0 0 1-.617.488z"/></svg>