<svg xmlns="http://www.w3.org/2000/svg" viewBox="0 0 13 13"><path d="M7.78 3.964l-.605-.607 1.133-1.132.605.606zM5.99 1H5v2h.99zM12 8.667V10h-2v.3a.7.7 0 0 1-.7.7h-.6a.7.7 0 0 1-.7-.7V10H5v.3a.7.7 0 0 1-.7.7h-.6a.7.7 0 0 1-.7-.7V10H1V8.445a1.016 1.016 0 0 1 1.016-1.016h.222l.423-.84A.862.862 0 0 1 3.478 6H5v-.94a.727.727 0 0 1 .727-.727h.546A.727.727 0 0 1 7 5.061V6h.586a.862.862 0 0 1 .717.384l.983 1.045h.78a1.68 1.68 0 0 1 1.188.491zm-4.357-1.61a.224.224 0 0 0-.214-.16l-.995-.003-.34-1.075a.223.223 0 0 0-.427 0l-.244 1.077h-1.09a.223.223 0 0 0-.114.415l.832.423-.314 1.185a.223.223 0 0 0 .373.215l.773-.773.799.776a.223.223 0 0 0 .37-.224l-.384-1.07.876-.533a.224.224 0 0 0 .099-.252zm-3.805-3.7L2.705 2.224 2.1 2.83l1.13 1.134z"/></svg>