<svg id="Symbols" xmlns="http://www.w3.org/2000/svg" viewBox="0 0 21 21"><path d="M10 5H9V3h1zm-3.047.424L5.58 4.05l-.521.522L6.43 5.945zm5.616.521l1.372-1.372-.521-.522-1.373 1.373zM19 16h-2.052a1.34 1.34 0 0 1 .052.353v.294A1.353 1.353 0 0 1 15.647 18h-.294A1.353 1.353 0 0 1 14 16.647v-.294a1.34 1.34 0 0 1 .052-.353H7.948a1.34 1.34 0 0 1 .052.353v.294A1.353 1.353 0 0 1 6.647 18h-.294A1.353 1.353 0 0 1 5 16.647v-.294A1.34 1.34 0 0 1 5.052 16H2v-2.358A1.642 1.642 0 0 1 3.642 12H4l.683-2.048A1.392 1.392 0 0 1 6.003 9H8v-.825A1.175 1.175 0 0 1 9.175 7h.65A1.175 1.175 0 0 1 11 8.175V9h1.255a1.392 1.392 0 0 1 1.158.62L15 12h.876a2.713 2.713 0 0 1 1.919.794L19 14zm-6.653-4.6a.362.362 0 0 0-.347-.26l-1.607-.004L9.845 9.4a.36.36 0 0 0-.69.001L8.76 11.14H7a.36.36 0 0 0-.184.67l1.343.683-.507 1.915a.36.36 0 0 0 .603.347l1.249-1.248 1.29 1.253a.36.36 0 0 0 .597-.362l-.619-1.73 1.414-.86a.362.362 0 0 0 .16-.406z"/></svg>