<svg xmlns="http://www.w3.org/2000/svg" viewBox="0 0 21 21"><path d="M7.379 13.245h.242c.124 0 .251-.026.379-.054V10h5v3.201c.114.02.228.044.345.044h.299c.12-.002.238-.039.356-.066V5.5A1.5 1.5 0 0 1 15.5 4h.5V3h-1a2 2 0 0 0-2 2v1H8v-.5A1.5 1.5 0 0 1 9.5 4h.5V3H9a2 2 0 0 0-2 2v8.19c.128.03.255.055.379.055zM8 7h5v2H8V7z"/><path d="M19 14.52c-1.007-.124-1.829-.772-2.5-1.52-.819.821-1.784 1.431-2.84 1.446h-.315c-1.168 0-2.098-.615-2.845-1.446-.829.831-1.808 1.446-2.879 1.446H7.38c-1.071 0-2.05-.615-2.879-1.446-.671.748-1.493 1.396-2.5 1.52v1.439c1.07-.096 1.897-.619 2.5-1.254.585.727 1.54 1.292 2.807 1.292h.386c1.267 0 2.222-.565 2.807-1.292.665.7 1.585 1.292 2.82 1.292h.373c1.267 0 2.222-.565 2.807-1.292.603.635 1.43 1.158 2.5 1.254V14.52z"/></svg>