<svg xmlns="http://www.w3.org/2000/svg" viewBox="0 0 21 21"><path d="M10.81 6.403a2.151 2.151 0 0 1-.177.934 1.113 1.113 0 0 1-.487.331c-.05.018-.115.018-.168.032H8.2V5.082h.93a4.942 4.942 0 0 1 .648.043 1.631 1.631 0 0 1 .54.165.932.932 0 0 1 .359.33 2.02 2.02 0 0 1 .134.783zM18.8 10.5a8.3 8.3 0 1 1-8.3-8.3 8.3 8.3 0 0 1 8.3 8.3zM16.065 16l-2.608-3.573L15.937 9h-1.885l-1.54 2.133-1.707-2.338a2.375 2.375 0 0 0 .823-.53 2.997 2.997 0 0 0 .572-1.862 3.22 3.22 0 0 0-.305-1.487 2.033 2.033 0 0 0-.792-.732 3.152 3.152 0 0 0-1.064-.315A9.424 9.424 0 0 0 8.9 3.8H6.806v8.4H8.2V9.106h.837l.08-.007 2.436 3.364L9 16h1.87l1.622-2.24L14.114 16z"/></svg>