<svg xmlns="http://www.w3.org/2000/svg" viewBox="0 0 17 17"><path d="M8.5 2.998a5.5 5.5 0 1 0 0 11 5.5 5.5 0 0 0 0-11zm1.15 8.885a.769.769 0 0 1-.767.767h-.766a.769.769 0 0 1-.767-.767v-.766a.77.77 0 0 1 .767-.767h.766a.77.77 0 0 1 .767.767v.766zm-.35-2.9v.742c0 .151-.134.273-.3.273H8c-.166 0-.3-.122-.3-.273v-1.8c0-.147.126-.266.288-.273l.5-.017c.67 0 1.212-.49 1.212-1.092s-.538-1.09-1.2-1.09-1.2.49-1.2 1.09c0 .151-.134.273-.3.273H6c-.166 0-.3-.122-.3-.273 0-1.403 1.256-2.545 2.8-2.545s2.8 1.142 2.8 2.545c0 1.127-.819 2.12-2 2.44z"/></svg>