<svg xmlns="http://www.w3.org/2000/svg" viewBox="0 0 17 17"><path d="M5.789 9H3.683a2.464 2.464 0 0 1-2.464-2.464v-.072A2.464 2.464 0 0 1 3.683 4h4.553L6.441 8.619A2.467 2.467 0 0 0 5.79 9zm7.528-5h-1.638L9.736 9h3.581a2.464 2.464 0 0 0 2.464-2.464v-.072A2.464 2.464 0 0 0 13.317 4zm-5.24 5.955l3.256-8.376-.755-.293-3.255 8.376a1.204 1.204 0 0 0-1.165.762l-.44 1.132a.81.81 0 0 0 .462 1.048l.754.293a.81.81 0 0 0 1.048-.461l.44-1.132a1.204 1.204 0 0 0-.344-1.349zM14 10h-4v1h4zm1 3h-3v1h3zM4 11H1v1h3z"/></svg>