<svg xmlns="http://www.w3.org/2000/svg" viewBox="0 0 21 21"><path d="M4 9h1v1H4zm12 0h1v1h-1z"/><path d="M10.539 9.158L5.132 3.822a8.01 8.01 0 0 1 2.481-1.366A8.78 8.78 0 0 1 10.461 2c2.021 0 3.825.624 5.407 1.872l-5.33 5.286zm-5.407 8.034C6.683 18.397 8.464 19 10.474 19a8.543 8.543 0 0 0 5.394-1.886l-5.317-5.272-5.42 5.35zm4.026-6.679l-5.299 5.355C2.62 14.293 2 12.5 2 10.487c0-.998.158-1.951.478-2.86A8.355 8.355 0 0 1 3.86 5.132l5.299 5.381zM5 11a1 1 0 0 0 1-1v-.99A1.01 1.01 0 0 0 4.99 8H3v5h1v-2l.949 2H6l-1-2zm14-.502a8.77 8.77 0 0 1-.464 2.87 8.062 8.062 0 0 1-1.384 2.5l-5.31-5.344 5.336-5.392C18.393 6.706 19 8.496 19 10.498zM18 9.01A1.01 1.01 0 0 0 16.99 8H15v5h1v-2l.848 2H18l-1-2a1 1 0 0 0 1-1v-.99z"/></svg>