<svg xmlns="http://www.w3.org/2000/svg" viewBox="0 0 21 21"><path d="M15.313 6.333h-1.196l-.944-2.26C12.955 3.499 12.48 3 11.583 3H7.411c-.894 0-1.368.499-1.59 1.073l-.946 2.26H3.687a.438.438 0 0 0-.437.437v.397c0 .46.373.833.833.833v4.167c0 .46.373.833.834.833h.833c.46 0 .833-.373.833-.833v-.834h5.834v.834c0 .46.373.833.833.833h.833c.46 0 .834-.373.834-.833V8c.46 0 .833-.373.833-.833V6.77a.438.438 0 0 0-.437-.437zM6.167 10.5a1.245 1.245 0 0 1-1.25-1.25A1.24 1.24 0 0 1 6.167 8c.69-.006 1.25.556 1.25 1.25 0 .691-.56 1.252-1.25 1.25zm.416-4.167h-.632l.909-2.14c.106-.335.17-.36.557-.36h4.2c.381 0 .546.025.656.36l1.006 2.14H6.583zm7.5 2.917a1.25 1.25 0 0 1-1.244 1.25 1.249 1.249 0 1 1 0-2.5 1.247 1.247 0 0 1 1.244 1.25zm-.6 8.81l-2.316-2.316.707-.707 1.684 1.684L17.208 14l.625.781-4.35 3.28z"/></svg>