<svg id="symbols" xmlns="http://www.w3.org/2000/svg" viewBox="0 0 13 13"><path d="M4.5 10c.248-.095.472-.198.686-.303l2.45-4.2a.999.999 0 0 1 .354-.355c.007-.196.01-.39.01-.581V2.39A4.523 4.523 0 0 1 4.5 1 4.523 4.523 0 0 1 1 2.39v2.17C1 6.5 1.214 8.737 4.5 10zm-.138-4.11a5.45 5.45 0 0 1-1.266.029c-.24-.051-1.269-.458-1.269-.458L1.6 4.977a2.163 2.163 0 0 0 .791.056c.388-.024 1.03.018 1.03.018a3.97 3.97 0 0 1-.04-.489 1.927 1.927 0 0 1 .1-.51s.083-.026-.117-.229S3.157 3 3.157 3a3.303 3.303 0 0 1 .862.372c.272.185 1.344 1.092 1.344 1.092a2.135 2.135 0 0 0 .555.017 1.013 1.013 0 0 1 .64-.191c.42 0 .427.203.427.203l.615.237-.66.092a5.907 5.907 0 0 1-1.022.198c-.46.034-1.115.82-1.556.87zM8.5 6L5 12h7zm.5 5H8v-1h1zM8 9V7h1v2z"/></svg>