<svg xmlns="http://www.w3.org/2000/svg" viewBox="0 0 17 17"><path d="M9.636 8.496a1 1 0 0 1 1.728 0l.96 1.646A9.433 9.433 0 0 0 13 6.143V3.007a7.374 7.374 0 0 1-5.5-2.006V1A7.374 7.374 0 0 1 2 3.008v3.136c0 2.634.3 5.645 4.626 7.514zm-6.023-.92l-.3-.51a2.442 2.442 0 0 0 .962-.03 11.205 11.205 0 0 1 1.547-.146 3.913 3.913 0 0 1-.06-.692 11.07 11.07 0 0 1 .15-1.263 1.49 1.49 0 0 1-.45-.422A2.449 2.449 0 0 1 5.1 3.4l.963.42a7.306 7.306 0 0 1 2.166 1.476 2.494 2.494 0 0 1 .51 1.173 2.712 2.712 0 0 0 .834.03 1.002 1.002 0 0 1 .87-.393c.632 0 .753.309.753.309l.904.26-.993.163a7.673 7.673 0 0 1-1.534.353c-.692.06-1.675 1.104-2.337 1.194a4.622 4.622 0 0 1-1.775-.352c-.36-.09-1.848-.456-1.848-.456zM10.5 9L7 15h7zm.5 5h-1v-1h1zm-1-2v-2h1v2z"/></svg>