<svg xmlns="http://www.w3.org/2000/svg" viewBox="0 0 17 17"><path d="M14.609 4.773l-.013-.012c-.009-.017-.021-.045-.038-.083a2.938 2.938 0 0 0-1.864-1.686.43.43 0 0 0-.544.431c-.01.326-.011.609-.007 1.157-1-.832-2.66-1.669-4.078-1.202a6.932 6.932 0 0 0-3.899 3.075C3.033 8.603.47 9.567 1.313 11.733a3.186 3.186 0 0 0 2.9 2.17 1.743 1.743 0 0 0 1.723-1.785c.06-1.222-.463-1.611-.572-1.6-.67-.373-1.523.001-1.583.475-.167.521.418.951.418.951s-.02-1.008.634-.858c.267.061.391.146.33.997-.014.19-.242.635-.985.635-.38 0-1.573-.274-1.103-1.792.41-1.269 2.734-1.906 2.734-1.907.209-.094.864-.081 1.08-.16-.025.734-.09.276.258 1.591.065.255.208.42.538.284.564-.23.05-1.091.407-1.772a2.963 2.963 0 0 0 1.423-.3c-.002.232.314.51.576.855.19.18.381.518.576.693a.359.359 0 0 0 .632-.2c-.013-.324-.02-1.652-.434-1.967a2.24 2.24 0 0 1 1.751-.19 2.319 2.319 0 0 0 .85.174c.834 0 2.01 0 2.505-.53a.73.73 0 0 0 .24-.535c-.045-.693-.837-1.453-1.602-2.189zm-1.067 1.311a.542.542 0 1 1 .542-.542.542.542 0 0 1-.542.542z"/></svg>