<svg xmlns="http://www.w3.org/2000/svg" viewBox="0 0 13 13"><path d="M10.887 3.65l-.01-.01-.029-.062a2.47 2.47 0 0 0-1.425-1.52.329.329 0 0 0-.416.33c-.007.25-.008.695-.006 1.114a2.953 2.953 0 0 0-2.834-.766 4.293 4.293 0 0 0-2.599 2.198C2.701 6.58.801 7.371 1.087 9.126a2.218 2.218 0 0 0 2.517 1.858 1.518 1.518 0 0 0 1.418-1.465c.045-.934-.355-1.332-.438-1.323-.513-.285-1.188.001-1.234.363a.875.875 0 0 0 .244.651s-.016-.694.484-.58c.204.047.3.112.252.763a.777.777 0 0 1-.752.685 1.102 1.102 0 0 1-.844-1.57 3.211 3.211 0 0 1 1.785-1.532v-.002c.16-.073.407-.14.572-.2-.018.562-.069.211.198 1.217a.333.333 0 0 0 .488.218c.431-.177.039-.835.311-1.356a3.727 3.727 0 0 0 1.442-.23c-.001.178.326.475.518.655.144.137.291.396.44.53a.278.278 0 0 0 .483-.154c.055-.392.06-.957-.255-1.198.442-.18.499-.26.932-.068a1.773 1.773 0 0 0 .65.132 2.383 2.383 0 0 0 1.631-.786.559.559 0 0 0 .183-.41c-.034-.53-.64-1.111-1.225-1.674zM10.5 5a.5.5 0 1 1 .5-.5.5.5 0 0 1-.5.5z"/></svg>