<svg xmlns="http://www.w3.org/2000/svg" viewBox="0 0 17 17"><path d="M8.217 3.641A1.093 1.093 0 1 1 9.31 4.734a1.093 1.093 0 0 1-1.093-1.093zm4.646 4.616l.008-.006L10.324 5H6.289l-.68-.72.205-.617 1.059-1.058-.573-.573-1.058 1.059-.6.2a.393.393 0 0 0-.189-.055.405.405 0 0 0-.405.405c0 .019.016.033.02.052l-.83.829 1.145 1.145.713-.713 1.38 1.52h1.2c-.066.141-.104.248-.104.248l-1.54 3.897-1.746 2.849a.7.7 0 0 0-.183.433.605.605 0 0 0 .393.564c.356.153.518-.062.73-.247l1.62-2.566.959-1.952 1.2 1.1v3.502c0 .334.198.612.495.603.293-.01.5-.14.5-.548l-.008-3.71a.7.7 0 0 0-.245-.466l-.864-1.054 1.125-2.628.31-.024 1.907 2.265.004-.003a.397.397 0 0 0 .319.166.405.405 0 0 0 .404-.405.396.396 0 0 0-.089-.24z"/></svg>