<svg xmlns="http://www.w3.org/2000/svg" viewBox="0 0 13 13"><path d="M6.283 2.784a.836.836 0 1 1 .836.836.836.836 0 0 1-.836-.836zm3.554 3.53l.006-.005-1.795-1.977H5.192l-.914-1.028.168-.503.657-.656-.438-.438-.657.657-.458.152a.3.3 0 0 0-.145-.041.31.31 0 0 0-.31.31c.001.014.013.025.015.039l-.634.634.876.875.545-.545 1.055 1.163h.917a2.54 2.54 0 0 0-.078.19L4.613 8.12l-1.335 2.178a.536.536 0 0 0-.14.331.463.463 0 0 0 .3.432c.272.117.396-.048.559-.19L5.236 8.91l.732-1.494 1.042.842v2.372a.406.406 0 1 0 .803 0c0-2.342-.006-2.489-.006-2.489a.535.535 0 0 0-.187-.357l-.806-.855.847-1.979 1.687 1.732.004-.002a.303.303 0 0 0 .243.127.31.31 0 0 0 .31-.31.304.304 0 0 0-.068-.184z"/></svg>