<?xml version="1.0" encoding="UTF-8"?><svg id="symbol" xmlns="http://www.w3.org/2000/svg" viewBox="0 0 21 21"><defs><style>.cls-1{stroke-width:0px;}</style></defs><path class="cls-1" d="m19.94183,14c-.06757-.28601-.22504-.53668-.44183-.71588v-1.34271l-1.94141-1.94141h-4.99902l-.2113.21368.65173-5.21368h-5v2h-2v-1h-1v1.20001l-4,.79999v5l1,1h.05823c-.02252.09546-.05823.18616-.05823.28845v.42303c0,.71161.57684,1.28851,1.28845,1.28851h.4231c.71161,0,1.28845-.5769,1.28845-1.28851v-.42303c0-.10229-.03571-.19299-.05823-.28845h1.11646c-.02252.09546-.05823.18616-.05823.28845v.42303c0,.71161.57684,1.28851,1.28845,1.28851h.4231c.71161,0,1.28845-.5769,1.28845-1.28851v-.42303c0-.10229-.03571-.19299-.05823-.28845h2.4762l1.97754-2h3.33496l.76953.76953v.23047h-4.48828l-.00781,2h-1.00391v1h3v-1h-1.00391l.00391-1h3.05823c-.02252.09546-.05823.18616-.05823.28845v.42303c0,.10229.03571.19299.05823.28845h.00006c.13428.5683.62091,1.00006,1.23022,1.00006h.4231c.60925,0,1.09595-.43176,1.23022-1,.02252-.09546.05823-.18616.05823-.28845v-.4231c0-.10229-.03571-.19299-.05823-.28845Zm-8.82465-2h-2.11719v-6h2.86719l-.75,6Z"/></svg>