<svg xmlns="http://www.w3.org/2000/svg" viewBox="0 0 21 21"><path d="M18.576 7.307l-.407-.07-.823-.142-.569-2.49c-.121-.628-.52-1.224-1.443-1.383L9.336 2.188c-.919-.159-1.494.27-1.823.82L6.139 5.163l-.813-.14-.407-.07a.457.457 0 0 0-.526.371l-.07.408c-.082.473.538 1.023 1.01 1.104l-1.04 4.18-.147.856a.869.869 0 0 0 .708 1.004l.856.148a.869.869 0 0 0 1.004-.709l.148-.856 3.852.664 3.853.664-.147.856a.869.869 0 0 0 .708 1.004l.856.148c.473.081.822-.236.903-.709l.08-.893.403-4.345c.472.082 1.426-.135 1.507-.607l.07-.408a.457.457 0 0 0-.37-.526zM6.628 8.766A1.298 1.298 0 0 1 5.565 7.26a1.293 1.293 0 0 1 1.506-1.064c.71.116 1.186.793 1.062 1.506a1.3 1.3 0 0 1-1.505 1.063zm1.267-3.3l-.65-.112 1.313-2.038c.168-.326.238-.34.636-.271l6.027 1.039c.392.068.557.122.611.486l.655 2.377-.887-.153-7.705-1.328zm8.599 4.217a1.304 1.304 0 0 1-1.5 1.063 1.302 1.302 0 1 1 .443-2.568c.702.115 1.175.79 1.057 1.505zM18.3 14h.7v3H2v-3h1.915c.215.118.447.212.701.255l.857.148A2.248 2.248 0 0 0 7.18 14h5.84a2.27 2.27 0 0 0 1.87 2.027l.857.147c.13.023.259.033.383.033 1.067 0 1.946-.774 2.137-1.883.006-.037.011-.074.015-.112l.02-.212z"/></svg>