<?xml version="1.0" encoding="UTF-8"?><svg id="symbols" xmlns="http://www.w3.org/2000/svg" viewBox="0 0 25 25"><path d="M5,4v17h15V4H5ZM9,14h-1v-5h-2.20001l2.70001-3.20001,2.70001,3.20001h-2.20001v5ZM14,18h-1.12164l-1.01599-2h-.86237v2h-1v-6h2c1.10455,0,2,.89545,2,2,0,.78271-.45398,1.45337-1.10907,1.7818-.00476.00238-.00977.00391-.01459.00629l1.12366,2.21191ZM19,18h-1v-1h-2v1h-1v-1.26593c0-.48541.08728-.96692.25775-1.42139l1.1853-3.16077c.03424-.09137.12158-.15192.21918-.15192h.67554c.0976,0,.18494.06055.21918.15192l1.1853,3.16077c.17047.45447.25775.93597.25775,1.42139v1.26593ZM17.80566,15.66406c.04199.11035.07617.22266.10449.33594h-1.82031c.02832-.11328.0625-.22559.10449-.33594l.80566-2.14844.80566,2.14844ZM13,14c0,.55231-.44769,1-1,1h-1v-2h1c.55231,0,1,.44769,1,1Z"/></svg>