<svg id="New_Symbols" xmlns="http://www.w3.org/2000/svg" viewBox="0 0 21 21"><path d="M4.011 14.93c-.386-1.918-.446-5.274 2.6-8.32 2.979-2.978 6.255-2.987 8.192-2.624.151.029.297.07.439.122.462 2.171-1.992 5.794-3.666 7.468-.994.993-2.803 2.39-4.603 3.269-.829.405-1.82.775-2.698.814a2.62 2.62 0 0 1-.264-.729zm13.003-8.733a2.769 2.769 0 0 0-.53-1.18c-.196 2.652-2.499 5.846-4.06 7.407-1.064 1.064-3 2.559-4.925 3.5-.83.405-1.544.646-2.177.787.23.128.48.224.748.278 1.918.386 5.274.446 8.32-2.6 2.978-2.979 2.987-6.255 2.624-8.192z"/></svg>