<svg xmlns="http://www.w3.org/2000/svg" viewBox="0 0 13 13"><path d="M10.762 6.603L10.124 5h-.62v-.762H11V3.62a.619.619 0 0 0-.619-.62H8V2H5v1H1.619A.619.619 0 0 0 1 3.619v6.143h1.512a.766.766 0 0 0-.036.178v.262a.798.798 0 0 0 .798.798h.262a.798.798 0 0 0 .797-.798V9.94a.766.766 0 0 0-.036-.178h4.406a.766.766 0 0 0-.036.178v.262a.798.798 0 0 0 .797.798h.262a.798.798 0 0 0 .798-.798V9.94a.766.766 0 0 0-.036-.178h.893a.62.62 0 0 0 .619-.62V7.43zM5 7H4V6h1zm2 0H6V6h1zm2 .238V6h.81l.463 1.238z"/></svg>