<svg id="finals" xmlns="http://www.w3.org/2000/svg" viewBox="0 0 21 21"><path d="M18.3 15h-3.6a.7.7 0 0 1-.7-.7v-1.6a.7.7 0 0 1 .7-.7h3.6a.7.7 0 0 1 .7.7v1.6a.7.7 0 0 1-.7.7zM12.3 15H8.7a.7.7 0 0 1-.7-.7v-1.6a.7.7 0 0 1 .7-.7h3.6a.7.7 0 0 1 .7.7v1.6a.7.7 0 0 1-.7.7zM6.3 15H2.7a.7.7 0 0 1-.7-.7v-1.6a.7.7 0 0 1 .7-.7h3.6a.7.7 0 0 1 .7.7v1.6a.7.7 0 0 1-.7.7zM12.3 11H8.7a.7.7 0 0 1-.7-.7V8.7a.7.7 0 0 1 .7-.7h3.6a.7.7 0 0 1 .7.7v1.6a.7.7 0 0 1-.7.7zM18.3 11h-3.6a.7.7 0 0 1-.7-.7V8.7a.7.7 0 0 1 .7-.7h3.6a.7.7 0 0 1 .7.7v1.6a.7.7 0 0 1-.7.7zM6.3 11H2.7a.7.7 0 0 1-.7-.7V8.7a.7.7 0 0 1 .7-.7h3.6a.7.7 0 0 1 .7.7v1.6a.7.7 0 0 1-.7.7zM14.3 7h-3.6a.7.7 0 0 1-.7-.7V4.7a.7.7 0 0 1 .7-.7h3.6a.7.7 0 0 1 .7.7v1.6a.7.7 0 0 1-.7.7z"/></svg>