<svg id="Layer_4" xmlns="http://www.w3.org/2000/svg" viewBox="0 0 21 21"><path d="M2.77 10.623a1.5 1.5 0 0 1 .243.826L3 14c-.013 4.525-.216 6-1.568 6C.464 20 .122 18.222 0 15.555l1.058-.441C1.058 16 1 17 1.432 17c.568 0 .458-1 .458-3.635 0-.263-.048-.53-.162-.767l-1.477-2.22A1.5 1.5 0 0 1 0 9.546V7c.034-4.031.248-6 1.5-6 .968 0 1.31 1.778 1.432 4.445l-1.058.441C1.874 5 2 4 1.5 4s-.414 1-.414 3.474c0 .342.078.68.265.968l1.42 2.181zM5.5 3.95c.169 0 .295.74.379 1.934l1.053-.439C6.81 2.778 6.468 1 5.5 1 4 1 4 5.253 4 10.5S4 20 5.5 20c.968 0 1.31-1.778 1.432-4.445l-1.053-.439c-.084 1.194-.21 1.934-.379 1.934-.336 0-.504-2.933-.504-6.55s.168-6.55.504-6.55zM10 10H9V1H8v19h1v-7h1v7h1V1h-1v9zm5 .5c0 5.247 0 9.5-1.5 9.5S12 15.747 12 10.5 12 1 13.5 1 15 5.253 15 10.5zm-.992 0c0-3.645-.17-6.6-.508-6.6s-.508 2.955-.508 6.6.17 6.6.508 6.6.508-2.955.508-6.6zm3.992 0c0 5.247 0 9.5-1.5 9.5S15 15.747 15 10.5 15 1 16.5 1 18 5.253 18 10.5zm-.992 0c0-3.645-.17-6.6-.508-6.6s-.508 2.955-.508 6.6.17 6.6.508 6.6.508-2.955.508-6.6zM20 17V1h-1v19h2v-3h-1z"/></svg>