<svg xmlns="http://www.w3.org/2000/svg" viewBox="0 0 21 21"><path d="M13.287 16c-1.395 0-2.323-1-3.718-1-1.39 0-2.318 1-3.713 1C5.16 16 4.58 15.122 4 15v1c.578.126 1.16 1 1.856 1 1.395 0 2.323-1 3.713-1 1.395 0 2.323 1 3.718 1 1.39 0 2.323-1 3.713-1v-1c-1.39 0-2.322 1-3.713 1zM17 6v2.008h-1.282a.597.597 0 0 1-.383-.139l-1.43-1.193c-.73-.611-1.146-.642-1.63-.55-.732.14-1.837.46-3.081 1.028C7.508 7.925 7.109 8 7.109 8H4.36l-.958-2H2l.605 3c.153.53.564.861 1.201 1L9 11l-1 2H5l.446 1.337.126.097c.111.086.27.211.363.264.4-.02.786-.186 1.266-.393.626-.27 1.405-.605 2.368-.605.966 0 1.745.336 2.372.605.512.22.916.395 1.346.395.427 0 .832-.175 1.343-.394.572-.247 1.28-.536 2.13-.587L17 13h-2l-1-2h.258a1 1 0 0 0 .742-.33l1.395-1.662H17V11h1V6h-1zm-7 1.701a13.93 13.93 0 0 1 2-.684V9h-2V7.701zM14 13H9l1-2h3l1 2zm0-4h-1V6.963a25.343 25.343 0 0 1 1.542 1.193L14 9z"/></svg>