<svg xmlns="http://www.w3.org/2000/svg" viewBox="0 0 21 21"><path d="M10.5 0L1 17h19zm-.222 16.204a4.366 4.366 0 0 1-3.113-1.477l1.252-1.056a2.172 2.172 0 0 0 1.883 1.103c1.24 0 1.825-1.08 1.372-1.807-.735-1.167-4.126-.675-4.126-3.524 0-1.556 1.292-2.643 3.14-2.643a3.352 3.352 0 0 1 2.733 1.19l-1.15 1.117a1.85 1.85 0 0 0-1.644-.903 1.415 1.415 0 0 0-1.445.899.973.973 0 0 0 .404 1.114c.911.632 2.773.55 3.588 2.027a2.39 2.39 0 0 1 .255 1.155 2.879 2.879 0 0 1-3.149 2.805z" id="aae0cadb-7ec2-44c5-9e56-0affe61b6612" data-name="New Symbols"/></svg>