<svg xmlns="http://www.w3.org/2000/svg" viewBox="0 0 21 21"><path d="M8.5 5L2 17h13zm.846 11.07a3.303 3.303 0 0 1-.92.13 3.343 3.343 0 0 1-1.293-.26 2.708 2.708 0 0 1-1.12-.866l-.05-.073.91-.806.066.061a4.74 4.74 0 0 0 .747.552 1.578 1.578 0 0 0 .758.192 1.017 1.017 0 0 0 1.14-.938c0-.635-.562-.814-1.271-1.042a2.752 2.752 0 0 1-1.873-1.26 1.944 1.944 0 0 1 .105-1.892A2.509 2.509 0 0 1 8.756 8.8a2.642 2.642 0 0 1 2.053.831l.135.142-.91.884-.07-.079a2.23 2.23 0 0 0-.583-.445 1.435 1.435 0 0 0-.66-.165 1.17 1.17 0 0 0-1.115.716.674.674 0 0 0 .32.782 1.633 1.633 0 0 0 .386.192l.435.149c1.124.376 2.185.732 2.185 2.17a2.098 2.098 0 0 1-1.586 2.093zm7.67-5.861A2.991 2.991 0 1 1 14 5.184V6.39A1.896 1.896 0 1 0 16.608 9zM18.962 9L18.3 7.002 16 7V6h2V5h-2V4a1 1 0 1 0-1-1v5h2.626l.674 2H20V9z" data-name="New Symbols"/></svg>