<svg xmlns="http://www.w3.org/2000/svg" viewBox="0 0 21 21"><path d="M17.171 10.48c-1.116-1.636-2.27-3.083-3.463-4.346C12.362 4.71 11.39 4 10.794 4c-.767 0-1.492.462-2.173 1.387a883.617 883.617 0 0 1-3.068 4.346C4.31 11.405 3.124 12.72 2 13.68c.528.853 1.542 1.485 3.042 1.893 1.107.284 2.335.427 3.681.427.596 0 1.457-.195 2.582-.587 1.125-.39 1.994-.586 2.608-.586.41 0 .869.018 1.38.052.512.036.852.054 1.022.054.785 0 1.679-.329 2.685-.987-.103-.675-.711-1.83-1.829-3.465zM7 13.75C7 14.44 6.44 15 5.75 15h-.5C4.56 15 4 14.44 4 13.75v-.5c0-.69.56-1.25 1.25-1.25h.5c.69 0 1.25.56 1.25 1.25v.5zM8.75 12h-.5C7.56 12 7 11.44 7 10.75v-.5C7 9.56 7.56 9 8.25 9h.5c.69 0 1.25.56 1.25 1.25v.5c0 .69-.56 1.25-1.25 1.25zm4.25.75c0 .69-.56 1.25-1.25 1.25h-.5c-.69 0-1.25-.56-1.25-1.25v-.5c0-.69.56-1.25 1.25-1.25h.5c.69 0 1.25.56 1.25 1.25v.5zm0-5C13 8.44 12.44 9 11.75 9h-.5C10.56 9 10 8.44 10 7.75v-.5c0-.69.56-1.25 1.25-1.25h.5c.69 0 1.25.56 1.25 1.25v.5zm4 5c0 .69-.56 1.25-1.25 1.25h-.5c-.69 0-1.25-.56-1.25-1.25v-.5c0-.69.56-1.25 1.25-1.25h.5c.69 0 1.25.56 1.25 1.25v.5z"/></svg>