<svg xmlns="http://www.w3.org/2000/svg" viewBox="0 0 21 21"><path d="M20 11.5l-3-.5V8h-2a2 2 0 0 0-2-2h-1v6h-1V6.618a2.558 2.558 0 0 0-1.613-2.391l-.443.886a1.6 1.6 0 0 1 .885.782 1.626 1.626 0 0 1 .171.723V8H9v4H1v2h1.058a1.237 1.237 0 0 0-.058.288v.423A1.289 1.289 0 0 0 3.289 16h.423A1.289 1.289 0 0 0 5 14.711v-.423A1.237 1.237 0 0 0 4.942 14H6.06a1.248 1.248 0 0 0-.061.3v.4A1.3 1.3 0 0 0 7.3 16h.4A1.3 1.3 0 0 0 9 14.7v-.4a1.248 1.248 0 0 0-.06-.3h7.118a1.237 1.237 0 0 0-.058.288v.423A1.289 1.289 0 0 0 17.289 16h.423A1.289 1.289 0 0 0 19 14.711v-.423a1.237 1.237 0 0 0-.058-.288H20zm-4-.5h-2V9h2z"/></svg>