<svg id="Symbols" xmlns="http://www.w3.org/2000/svg" viewBox="0 0 21 21"><path d="M8.5 8.9a3.4 3.4 0 1 1 3.4-3.4 3.4 3.4 0 0 1-3.4 3.4zm1.682 11.618a.25.25 0 0 0 .192-.09l1.746-2.097 2.821-1.271 3.839-2.703a.25.25 0 0 0-.239-.435l-2.74 1.125-.073-.074 3.075-2.822a.25.25 0 0 0 .025-.341l-.114-.141a.25.25 0 0 0-.336-.049l-3.752 2.465 2.937-3.604a.251.251 0 0 0-.036-.353l-.114-.093a.25.25 0 0 0-.328.01l-3.56 3.153 2.158-3.714a.251.251 0 0 0-.075-.332l-.174-.12a.25.25 0 0 0-.338.052l-2.657 3.284-.402-.369.115-1.892a.25.25 0 0 0-.206-.261l-.191-.034a.226.226 0 0 0-.044-.004.25.25 0 0 0-.24.177l-.82 2.74-.221 2.864-3.093 4.052a.25.25 0 0 0 .155.397l2.646.476a.231.231 0 0 0 .044.004zM7.64 10A4.64 4.64 0 0 0 3 14.64V16h5.48l.683-.895.193-2.48a1.3 1.3 0 0 1 .05-.272L10.11 10z"/></svg>