<svg id="Symbols" xmlns="http://www.w3.org/2000/svg" viewBox="0 0 17 17"><path d="M8.164 16.54l-2.014-.363a.3.3 0 0 1-.186-.476l2.447-3.206.172-2.296.65-2.18a.298.298 0 0 1 .288-.213c.202.032.363.175.354.327l-.09 1.482.314.268 2.057-2.614a.298.298 0 0 1 .235-.113.3.3 0 0 1 .172.054.37.37 0 0 1 .141.434l-1.72 2.961L13.97 7.93a.297.297 0 0 1 .199-.075.305.305 0 0 1 .187.066.308.308 0 0 1 .115.209.303.303 0 0 1-.066.225l-2.532 2.973 3.345-2.044a.292.292 0 0 1 .155-.044.3.3 0 0 1 .23.107.345.345 0 0 1 .08.236.318.318 0 0 1-.101.217l-2.822 2.251 2.33-.723a.419.419 0 0 1 .05-.002.305.305 0 0 1 .313.167.299.299 0 0 1-.124.38l-3.209 1.87-2.334 1.054-1.335 1.638a.298.298 0 0 1-.232.11zM7 1.1A2.9 2.9 0 1 0 9.9 4 2.9 2.9 0 0 0 7 1.1zm.143 10.913l.144-1.911a1.288 1.288 0 0 1 .05-.275L7.883 8H5.298A3.298 3.298 0 0 0 2 11.298V13h4.39z"/></svg>