<svg xmlns="http://www.w3.org/2000/svg" viewBox="0 0 13 13"><path d="M7 2.998H6v-1h1v1zm-4 2h1.456L4.828 3h3.344l.371 1.998H10c-.433.86-.698 1.91-.868 2.864-.088-.005-.17-.018-.262-.018-.82 0-1.614.232-2.37.693-.756-.462-1.55-.694-2.37-.694-.091 0-.173.015-.262.02-.17-.955-.435-2.005-.868-2.865zm2.385 0h2.23l-.558-1H5.942l-.557 1zm5.57 4.966c-.008-.008-.835-.82-2.085-.82-.812 0-1.608.337-2.37 1.005-.76-.668-1.558-1.007-2.37-1.007-1.245 0-2.079.814-2.087.823a.15.15 0 0 0 .001.212l.297.297a.149.149 0 0 0 .212 0 2.342 2.342 0 0 1 1.557-.62c.715 0 1.434.35 2.137 1.042a.112.112 0 0 0 .021.017A.352.352 0 0 0 6.5 11a.369.369 0 0 0 .257-.107c.7-.687 1.416-1.036 2.13-1.036.937 0 1.552.61 1.558.617a.15.15 0 0 0 .107.045c.04 0 .079-.017.107-.044l.297-.298a.151.151 0 0 0 0-.213z"/></svg>