<svg xmlns="http://www.w3.org/2000/svg" viewBox="0 0 21 21"><path d="M17.4 6.588a1.473 1.473 0 1 1-1.832-2.308A1.473 1.473 0 0 1 17.4 6.588zm-1.1 10.713l.255.254-2.586 1.18-13.437-6.26.443-.95L5.217 13.5a1.31 1.31 0 0 1 .348-.246l3.659-1.446-.538-1.473-5.527-2.667-.48 1.03-.634-.296.484-1.038L1 6.626 1.313 6l1.512.73.488-1.047.634.296-.492 1.055 4.886 2.358-.195-.536a1.85 1.85 0 0 1 1.05-2.353l3.123-1.248c.44-.165 1.222-.32 1.823.093.08.046.154.1.212.174.499.629.216 1.605.216 1.605l-.49 2.155 1.89 3.48s-.001-.001 0 0c.14.289.127.632-.278.83-.29.142-.56.034-.728-.227l-4.27-2.06.143.42a.925.925 0 0 1-.456 1.284c-.785.338-1.443.507-3.406 1.31l7.086 3.3 1.11-.517a1 1 0 0 1 1.13.199zm-5.92-6.925l3.913 1.888-1.657-2.752.264-1.734-3.05 1.035.53 1.563z"/></svg>