<svg xmlns="http://www.w3.org/2000/svg" viewBox="0 0 21 21"><path d="M5.013 11.45L5 14c-.013 4.525-.216 6-1.568 6-.968 0-1.31-1.778-1.432-4.445l1.058-.441C3.058 16 3 17 3.432 17c.568 0 .458-1 .458-3.635 0-.263-.048-.53-.162-.767l-1.477-2.22A1.5 1.5 0 0 1 2 9.546V7c.034-4.031.248-6 1.5-6 .968 0 1.31 1.778 1.432 4.445l-1.058.441C3.874 5 4 4 3.5 4s-.414 1-.414 3.474c0 .343.078.68.265.968l1.42 2.181a1.5 1.5 0 0 1 .242.826zM7 17V1H6v19h3v-3H7zm6-6.5c0 5.247 0 9.5-1.5 9.5S10 15.747 10 10.5 10 1 11.5 1 13 5.253 13 10.5zm-.923 0c0-4.142-.192-7.5-.577-7.5s-.577 3.358-.577 7.5.192 7.5.577 7.5.577-3.358.577-7.5zM18.1 1l-.676 11.04L17 6h-1l-.401 6.04L14.9 1H14l1.1 19h.9l.526-7.468L17 20h.9L19 1h-.9z"/></svg>