<svg id="New_Symbols" xmlns="http://www.w3.org/2000/svg" viewBox="0 0 21 21"><path d="M10.961 14.507c.018.063.039.125.039.193v.6a.7.7 0 0 1-.7.7h-.6a.7.7 0 0 1-.7-.7v-.6c0-.19.077-.36.2-.486l-6.034-1.006A2.045 2.045 0 0 0 2 15.05 1.95 1.95 0 0 0 3.95 17H10a1.95 1.95 0 0 0 1.95-1.95v-.378l-.989-.165zM5 15.3a.7.7 0 0 1-.7.7h-.6a.7.7 0 0 1-.7-.7v-.6a.7.7 0 0 1 .7-.7h.6a.7.7 0 0 1 .7.7v.6zm3 0a.7.7 0 0 1-.7.7h-.6a.7.7 0 0 1-.7-.7v-.6a.7.7 0 0 1 .7-.7h.6a.7.7 0 0 1 .7.7v.6zm-1.507-4.041l.326 1.544L2 12v-2h2.705l1.788 1.259zM17 14l2-1 .002-.918L11.964 7H9.96L8.491 4.753a.887.887 0 0 0-1.357-.16c-.875.84-1.987 1.976-2.714 2.727a.891.891 0 0 0 .167 1.374l2.803 1.975.504 2.316L14 14h1v2h-2v1h4.303c.427 0 .818-.241 1.009-.624L19 15h-.382a1 1 0 0 0-.894.553L17.5 16H16v-2h1zm-8.358-4l-.03-.155-2.097-1.718 1.36-1.652.945 1.51h2.78l1.032.715L10.8 10H8.642zm.335-7.473a1.35 1.35 0 1 1 2.414 1.207 1.35 1.35 0 0 1-2.414-1.207z"/></svg>