<svg id="Names" xmlns="http://www.w3.org/2000/svg" viewBox="0 0 21 21"><path d="M10.5 2.1c-4.632 0-8.4 3.768-8.4 8.4s3.768 8.4 8.4 8.4 8.4-3.768 8.4-8.4-3.768-8.4-8.4-8.4zm5.127 4.989c.065.766.042 1.04-.02 1.251-.014.05-.065.1-.03.083-.12.067-1.779.98-1.93 1.07-.028.018-.057.033-.084.048-.299-.217-.857-.618-1.075-.731-.17-.089-.473-.286-.701-.434a11.803 11.803 0 0 0-.29-.185 1.098 1.098 0 0 0-.257-.102 32.111 32.111 0 0 0-.076-.844c-.04-.374-.242-1.464-.306-1.8.23-.214.953-.706 1.271-.872.193-.1.423-.17.568-.21L15.25 5.98c.092.145.33.57.376 1.11zm-7.901 8.323c-.04-.002-.076 0-.124-.012-.133-.033-1.188-.408-2.171-.765l-1.1-2.86c.13-.188.356-.512.6-.856.37-.518.593-.742.643-.781.03-.024.065-.048.098-.072.224.09.567.223 1.025.385.522.186 1.08.3 1.425.36.093.376.246.83.459 1.356.261.646.452 1.079.63 1.362-.27.296-.71.842-1.485 1.883zm-.019-10.66c.229.036.673.116 1.183.267.709.21 1.022.396 1.217.5.002.013.267 1.406.309 1.806.03.268.058.612.074.822-.28.244-.896.784-1.172 1.052-.262.254-.715.682-.94.893a8.799 8.799 0 0 1-1.43-.35c-.52-.185-.91-.34-1.11-.42a6.49 6.49 0 0 1-.257-1.161 13.627 13.627 0 0 1-.126-1.365l2.252-2.043zm-4.1 7.24l1.156 3.002a5.5 5.5 0 0 1-.114.266l-.045.105a7.615 7.615 0 0 1-1.662-3.753c.21.137.436.264.666.38zm9.252 4.668c-.067.065-.12.127-.171.187-.156.186-.28.332-1.472.476-.754.09-1.338.102-1.432.08l-.293-.178c-.156-.162-.598-.636-.767-.881a4.291 4.291 0 0 1-.211-.33.323.323 0 0 0-.178-.162c.549-.737 1.21-1.581 1.49-1.883.073.006.156.01.25.01.753 0 2.06-.178 2.123-.193l.118-.026c.14-.03.251-.057.352-.084l1.202 1.474c-.168.557-.818 1.322-1.011 1.51zm1.55-2.04l-1.13-1.384c.212-.43.623-1.419.73-2.781.017-.112.014-.212.002-.303l.02-.011c.128-.077 1.332-.74 1.785-.993.042.022.079.043.092.055.099.115.643.884.954 1.33.003.004.082.126.14.243-.07.444-.68 2.508-.868 2.937-.222.131-.976.526-1.725.908zm2.398-.635c.298-.707.864-2.548.927-3.213l.413-.25a7.596 7.596 0 0 1-1.231 4.126c-.02-.23-.056-.46-.11-.663zm-.704-8.673a3.586 3.586 0 0 0-.59-.03l-2.47-1.587a5.384 5.384 0 0 0-.31-.508 7.654 7.654 0 0 1 3.37 2.125zm-8.696-1.8a5.55 5.55 0 0 0-.114.601L4.916 6.27l-.374.032c-.166.013-.307.029-.453.043a7.69 7.69 0 0 1 3.318-2.832zm6.856 13.638c-.363 0-.623-.014-.8-.035.225-.243.895-1.013 1.123-1.74a72.896 72.896 0 0 0 1.564-.812c.045.377.048.785.042 1.027a7.69 7.69 0 0 1-1.93 1.56z"/></svg>