<svg xmlns="http://www.w3.org/2000/svg" viewBox="0 0 21 21"><path d="M12.978 14.305l-.548-.8a3.456 3.456 0 0 0 1.603-3.005 3.456 3.456 0 0 0-1.603-3.005l.548-.8A4.526 4.526 0 0 1 14.9 10.5a4.526 4.526 0 0 1-1.922 3.805zm-.216-3.805a2.248 2.248 0 0 0-1.305-2.102l-.557.783a1.35 1.35 0 0 1 0 2.637l.557.784a2.248 2.248 0 0 0 1.305-2.102zM14.28 5l-.479.72a5.914 5.914 0 0 1 2.25 4.78 5.914 5.914 0 0 1-2.25 4.78l.48.72a6.9 6.9 0 0 0 2.52-5.5A6.9 6.9 0 0 0 14.28 5zM6 8H4a1 1 0 0 0-1 1v3a1 1 0 0 0 1 1h2zm4-2L7 8v5l3 2z"/></svg>