<svg xmlns="http://www.w3.org/2000/svg" viewBox="0 0 21 21"><path d="M6.5 1C5 1 5 5.253 5 10.5S5 20 6.5 20 8 15.747 8 10.5 8 1 6.5 1zm0 16.1c-.338 0-.508-2.955-.508-6.6s.17-6.6.508-6.6.508 2.955.508 6.6-.17 6.6-.508 6.6zM21 1v19h-1v-7h-1v7h-1V1h1v9h1V1h1zM4.013 11.45L4 14c-.013 4.525-.216 6-1.568 6-.968 0-1.31-1.778-1.432-4.445l1.058-.441C2.058 16 2 17 2.432 17c.568 0 .458-1 .458-3.635 0-.263-.048-.53-.162-.767l-1.477-2.22A1.5 1.5 0 0 1 1 9.546V7c.034-4.031.248-6 1.5-6 .968 0 1.31 1.778 1.432 4.445l-1.058.441C2.874 5 3 4 2.5 4s-.414 1-.414 3.474c0 .343.078.68.265.968l1.42 2.181a1.5 1.5 0 0 1 .242.826zM17 1v3h-1v16h-1V4h-1V1h3zm-4 9.5c0 5.247 0 9.5-2 9.5s-2-4.253-2-9.5c0-.512 0-9.01.002-9.5H10v10c0 3.59 0 6 1 6s1-2.41 1-6V1h.998L13 10.5z"/></svg>