<svg xmlns="http://www.w3.org/2000/svg" viewBox="0 0 21 21"><path d="M9.428 9.204l.043.432c.314-.086.661-.136 1.029-.136s.715.05 1.03.136c.01-.12.024-.258.042-.432l.994.107c-.047.442-.067.72-.067.725l-.11-.008c.376.262.611.6.611.972H8c0-.373.235-.71.61-.972l-.109.008c0-.005-.02-.283-.067-.725l.994-.107zM7.895 6.1l.97-.238a11.738 11.738 0 0 0-.434-1.422l-.933.36c.142.368.275.805.397 1.3zm-.769-2.07l.85-.529c-.414-.662-.91-.998-1.558-.998h-.003L6.5 3.5c.245 0 .476.289.626.53zM8.32 8.383l.99-.136c-.06-.44-.138-.931-.235-1.433l-.982.19c.094.484.169.956.227 1.38zm-3.628-.456l-.993-.115c-.06.512-.101 1.006-.13 1.444l.997.066c.029-.423.069-.9.126-1.395zm.403-2.269l-.968-.252c-.112.432-.212.918-.296 1.443l.987.158c.08-.493.173-.947.277-1.349zm.872-1.9l-.71-.703c-.319.321-.596.79-.827 1.394l.935.356c.18-.473.383-.825.602-1.047zm-1.45 6.28L3.519 10c-.018.475-.018 1-.018 1h1c0-.005 0-.515.017-.963zm12.055-5.59c-.23-.603-.509-1.072-.826-1.393l-.71.703c.218.222.421.574.602 1.047l.934-.357zm-.388 2.56l.987-.159a15.402 15.402 0 0 0-.296-1.443l-.968.252c.105.402.198.856.277 1.35zm.252 2.314l.998-.067a31.49 31.49 0 0 0-.131-1.443l-.993.115c.057.495.097.971.126 1.395zm-3.527-2.318l-.982-.19a27.6 27.6 0 0 0-.236 1.433l.99.136c.06-.423.134-.895.228-1.379zm.594-2.205l-.933-.359c-.157.408-.303.886-.435 1.422l.971.238c.122-.494.255-.932.397-1.3zm1.034-1.297l.025-.5L14.5 2.5c-.565 0-1.061.337-1.475 1l.849.53c.15-.241.38-.529.662-.529zM16.5 11h1s0-.526-.017-1l-1 .036c.017.447.017.96.017.964zM12 13.033V15a1 1 0 0 1-1 1h-1a1 1 0 0 1-1-1v-1.967C5.022 13.2 2 14.016 2 15c0 1.105 3.806 2 8.5 2s8.5-.895 8.5-2c0-.984-3.022-1.8-7-1.967z"/><path d="M10 11h1v4h-1z"/></svg>