<svg viewBox="0 0 21 21" xmlns="http://www.w3.org/2000/svg"><path d="M10 10.14V7.7c-.16-.84-1.68-1.5-3.5-1.5S3.16 6.86 3 7.7v3.5c.03.4.38.76.9 1.04a1.2 1.2 0 0 1 .06-.14C4.53 10.65 6.6 10 8.5 10a8.24 8.24 0 0 1 1.5.14zM3.62 8c0-.64 1.3-1.15 2.88-1.15S9.38 7.36 9.38 8 8.07 9.15 6.5 9.15 3.62 8.64 3.62 8zm4.88 3.2c-1.82 0-3.34.66-3.5 1.5v3.5c.06.89 1.6 1.6 3.5 1.6s3.44-.71 3.5-1.6v-3.5c-.16-.84-1.68-1.5-3.5-1.5zm0 2.95c-1.59 0-2.88-.51-2.88-1.15s1.3-1.15 2.88-1.15 2.88.51 2.88 1.15-1.3 1.15-2.88 1.15zm9.63 2.72L15 10.8V18h-1V8.85l-2.78-5.4.73-.32L14 7.1V3h1v6.05l3.86 7.5z"/></svg>