<svg xmlns="http://www.w3.org/2000/svg" viewBox="0 0 21 21"><path d="M14.519 7.332a1.473 1.473 0 1 1 2.636 1.317 1.473 1.473 0 0 1-2.636-1.317zm.421 5.331a4.844 4.844 0 0 0-1.285-3.127l-.962-1.015-1.908-2.007 3.714-3.106c.58-.49.455-.982.098-1.26s-.785-.126-1.15.142c-2.182 1.61-3.32 2.765-4.075 3.333a.924.924 0 0 0-.135 1.352l1.88 2.233.137.15-5.468 3.184c.562.46 1.097.703 1.593.703h.242c.623 0 1.306-.367 2.03-1.093.222-.223.532-.352.849-.352.361.01.675.155.894.398.631.705 1.27 1.047 1.95 1.047h.303c.406-.005.842-.183 1.296-.5l-.003-.082zM19 14.521c-1.007-.125-1.829-.773-2.5-1.521-.819.821-1.784 1.431-2.84 1.446h-.315c-1.168 0-2.098-.615-2.845-1.446-.829.831-1.808 1.446-2.879 1.446H7.38c-1.071 0-2.05-.615-2.879-1.446-.671.748-1.493 1.396-2.5 1.52v1.439c1.07-.096 1.897-.619 2.5-1.254.585.727 1.54 1.292 2.807 1.292h.386c1.267 0 2.222-.565 2.807-1.292.665.7 1.585 1.292 2.82 1.292h.373c1.267 0 2.222-.565 2.807-1.292.603.635 1.43 1.158 2.5 1.254V14.52z"/></svg>