<svg xmlns="http://www.w3.org/2000/svg" viewBox="0 0 17 17"><path d="M8.5 1.2a7.3 7.3 0 1 0 0 14.6 7.3 7.3 0 0 0 0-14.6zM9 15.075v-3.13c.567-.127 1-.61 1-1.215v-.46A1.27 1.27 0 0 0 8.73 9h-.46c-.232 0-.438.08-.626.188L5.424 7.04 5 7.464 7.185 9.65c-.107.187-.185.39-.185.621v.46c0 .606.433 1.088 1 1.215v3.13C4.594 14.817 1.9 11.97 1.9 8.5S4.594 2.183 8 1.925v2.13c-.567.127-1 .61-1 1.215v.46C7 6.431 7.569 7 8.27 7h.46A1.27 1.27 0 0 0 10 5.73v-.46c0-.606-.433-1.088-1-1.216V1.925c3.406.258 6.1 3.105 6.1 6.575s-2.694 6.317-6.1 6.575z"/></svg>