<svg xmlns="http://www.w3.org/2000/svg" viewBox="0 0 17 17"><path d="M11.71 13.5l-1.303 1.302a.902.902 0 0 1-1.276 0l-.955-.954a.902.902 0 0 1 0-1.276l1.303-1.303zm2.097-2.098l-1.302 1.302-2.23-2.23 1.302-1.303a.902.902 0 0 1 1.276 0l.954.955a.902.902 0 0 1 0 1.276zm-.241-6.313l.409-.41-3.464-3.563-.41.409.592.668L9.114 3.63 7.62 2.042l-.44.369 1.518 1.61-4.649 4.296-.007 2.224-2.022 2.006.41.442 2.107-2.017 1.812-.016 4.724-4.402 1.313 1.331.436-.39-1.836-1.926 1.573-1.454zM9.11 7.512l-.887-.93-.46.424.887.93-1.143 1.037-1.542-1.68L9.07 4.446l1.562 1.652zm1.506-2.379l-1.1-1.15 1.58-1.425 1.09 1.134z"/></svg>