<svg xmlns="http://www.w3.org/2000/svg" viewBox="0 0 21 21"><path d="M17.499 6.78l.505-.505-4.279-4.28-.505.506.927.928-1.658 1.658-1.94-1.94-.494.496 1.937 2.038-7.17 7.11-.13 2.011L2 17.352l.648.648 2.613-2.47 2.453-.05 7.158-6.92 1.485 1.486.495-.495-1.939-2.04 1.658-1.658zm-5.027 3.152l-1.244-1.244-.458.459 1.244 1.244-1.137 1.137-1.901-1.9 3.482-3.482 1.9 1.9zm1.758-3.004l-1.148-1.147 1.658-1.658 1.148 1.147zm.109 10.333l-1.519 1.518a1.052 1.052 0 0 1-1.487 0l-1.113-1.113a1.052 1.052 0 0 1 0-1.487l1.518-1.518zm2.445-2.445l-1.518 1.518-2.6-2.601 1.518-1.518a1.052 1.052 0 0 1 1.487 0l1.113 1.113a1.052 1.052 0 0 1 0 1.488z"/></svg>