<svg data-name="New Symbols" xmlns="http://www.w3.org/2000/svg" viewBox="0 0 21 21"><path d="M10.5 2.2a8.3 8.3 0 1 0 8.3 8.3 8.3 8.3 0 0 0-8.3-8.3zm3.48 11.084a3.467 3.467 0 0 1-3.727 2.868 4.617 4.617 0 0 1-2.317-.574 3.368 3.368 0 0 1-1.484-1.808l-.079-.205 1.736-.556.034.09a2.131 2.131 0 0 0 2.066 1.463 1.944 1.944 0 0 0 1.786-.99 1.702 1.702 0 0 0-.047-1.533 2.067 2.067 0 0 0-1.357-.816 4.936 4.936 0 0 0-.984-.092h-.573V9.583h.591a4.755 4.755 0 0 0 .915-.078 1.474 1.474 0 0 0 1.298-1.077 1.428 1.428 0 0 0-.458-1.42 1.892 1.892 0 0 0-1.21-.42 1.77 1.77 0 0 0-1.01.298 1.844 1.844 0 0 0-.643.832l-.067.18-1.709-.582.088-.207a3.86 3.86 0 0 1 5.835-1.55 2.735 2.735 0 0 1 .762.937 3.41 3.41 0 0 1 .125 2.376 2.563 2.563 0 0 1-.423.737 2.64 2.64 0 0 1-.878.696 2.72 2.72 0 0 1 1.73 2.98z"/></svg>