<svg xmlns="http://www.w3.org/2000/svg" viewBox="0 0 21 21"><path d="M6.95 7c0-.75.167-1.456.452-2.1.367.435.598.987.598 1.6 0 .743-.339 1.395-.855 1.852A5.093 5.093 0 0 1 6.95 7zm-2 0c0 .643-.098 1.263-.28 1.847.26.093.537.153.83.153.298 0 .58-.061.845-.158A6.087 6.087 0 0 1 6.05 7c0-.965.233-1.871.628-2.685A2.453 2.453 0 0 0 5.5 4c-.427 0-.82.123-1.171.313.394.814.621 1.723.621 2.687zM3.606 4.89A2.47 2.47 0 0 0 3 6.5c0 .743.338 1.395.853 1.851A5.2 5.2 0 0 0 4.05 7a5.26 5.26 0 0 0-.444-2.11zm14.308 1.196c2 2 2.086 4.914-.606 6.97-2.39 1.825-5.086 1.627-7.435 2.52l-1.196.454-.711.711c.084.176.067.377-.062.507l-2.02 2.02c-.17.17-.467.15-.662-.046l-.444-.444c-.195-.195-.216-.491-.046-.661l2.02-2.02c.13-.13.331-.147.507-.063l.72-.72.4-1.014c.757-1.92 1.17-5.78 2.565-7.608C13 4 15.914 4.086 17.914 6.086zm.455 3.452c.065-.956-.348-1.932-1.162-2.745-.754-.754-1.66-1.169-2.55-1.169-1.072 0-2.08.58-2.918 1.675-.734.96-1.087 2.698-1.398 4.23-.072.353-.182.734-.302 1.115l1.35 1.349c.459-.14.909-.26 1.297-.321 1.4-.219 2.725-.425 4.014-1.41 1.026-.784 1.603-1.725 1.67-2.724z"/></svg>