<svg xmlns="http://www.w3.org/2000/svg" viewBox="0 0 17 17"><path d="M14.58 2.998s-1.492 1.1-3.58 1.1c-.04 0-.074-.006-.113-.007.035.449.058.946.058 1.477 0 1.88-.298 4.04-.362 4.48.138-.02.269-.05.417-.05 2 0 3 2 3 2s-1.375-1.1-3-1.1c-.206 0-.408.018-.603.049-.268.973-.8 2.14-1.688 2.971.533.612 1.27 1.08 2.291 1.08 3 0 3.58-4 3.58-4s.365-2.422.365-4.43c0-2.05-.365-3.57-.365-3.57zm-1.08 4h-1a.501.501 0 0 1-.5-.5c0-.275.225-.5.5-.5h1c.275 0 .5.225.5.5s-.225.5-.5.5zm-3.92-5s-1.492 1.1-3.58 1.1-3.58-1.1-3.58-1.1-.365 1.515-.365 3.57.365 4.43.365 4.43.58 4 3.58 4 3.58-4 3.58-4 .365-2.422.365-4.43c0-2.05-.365-3.57-.365-3.57zm-6.08 3h1c.275 0 .5.225.5.5s-.225.5-.5.5h-1a.501.501 0 0 1-.5-.5c0-.275.225-.5.5-.5zm2.5 6c-2 0-3-2-3-2s1.375 1.1 3 1.1 3-1.1 3-1.1-1 2-3 2zm2.5-5h-1a.501.501 0 0 1-.5-.5c0-.275.225-.5.5-.5h1c.275 0 .5.225.5.5s-.225.5-.5.5z"/></svg>