<svg id="symbol" xmlns="http://www.w3.org/2000/svg" viewBox="0 0 21 21"><path d="M9 7l-.055.918.92 1.58c.678 1.061.655 2.052-.08 2.552a2.207 2.207 0 0 1-1.235.444 1.766 1.766 0 0 1-1.382-.771l-.1-.119c-.335-.374-.71-.821-1.068-1.26V19h4v-2h2v2h4V7zm1 8H8v-2h2zm4 0h-2v-2h2zm0-4h-2V9h2zm-5-1s.611.958.222 1.222c-.853.579-1.055.111-1.41-.284-.798-.894-1.86-2.247-2.302-2.818a.99.99 0 0 1-.208-.61V5.827L4 4l3.75-2.5 1.125 1.75 2.01.952a1 1 0 0 1 .508.55L11.865 6H8.5a.917.917 0 0 0-.296.07 1.136 1.136 0 0 0-.315.219 1.204 1.204 0 0 0-.197 1.464z"/></svg>