<?xml version="1.0" encoding="UTF-8"?><svg id="symbols" xmlns="http://www.w3.org/2000/svg" viewBox="0 0 21 21"><path d="M9.6048,11h2.3952l-2.30241,3h3.30241l-4,4.982,1.4032-3.982h-2.4032l1.6048-4ZM6.87231,13.89601l-1.37231-2.89601-1.37256,2.89644c-.08099.18439-.12744.38727-.12744.60156,0,.82843.67157,1.5,1.5,1.5s1.5-.67157,1.5-1.5c0-.21448-.04657-.41748-.12769-.60199ZM16.87231,13.89601l-1.37231-2.89601-1.37256,2.89644c-.08099.18439-.12744.38727-.12744.60156,0,.82843.67157,1.5,1.5,1.5s1.5-.67157,1.5-1.5c0-.21448-.04657-.41748-.12769-.60199ZM16.43329,7.37422c-.0278,0-.3576.0056-.3888.00683.12859-.40228.1872-.90536.1872-1.14853,0-1.93156-1.463-3.13372-3.7623-3.13372-1.7471,0-3.0362,1.246-3.6563,2.52639-.2506-.22094-.69109-.49306-1.23009-.52684-1.465-.09188-2.65621.73806-2.57261,2.19021-.0132-.00044-.4315-.00254-.4452-.00254-.9209,0-1.56519.53856-1.56519,1.31145s.74509,1.40052,1.666,1.40052h11.66649c.9199,0,1.66751-.62764,1.66751-1.40052s-.64681-1.22325-1.56671-1.22325Z"/></svg>