<svg id="symbols" xmlns="http://www.w3.org/2000/svg" viewBox="0 0 21 21"><path d="M13.5 10.1a4.4 4.4 0 1 0 0 8.8 4.4 4.4 0 0 0 0-8.8zm-.5 6.89l-2.637-2.636.99-.99L13 15.01l2.646-2.647.99.99L13 16.99zM7 4v1H6V4H2v2.502a2 2 0 1 1 0 4V13h4v-1h1v1h1.007a5.71 5.71 0 0 1 2.08-3.055l.223-.685-1.427-1.037A.2.2 0 0 1 9 7.861h1.765l.545-1.678a.2.2 0 0 1 .38 0l.545 1.678H14a.2.2 0 0 1 .117.362l-.807.586c.064-.002.126-.01.19-.01.548 0 1.077.083 1.58.228A1.98 1.98 0 0 1 15 8.5a2 2 0 0 1 2-2V4H7zm0 7H6v-1h1v1zm0-2H6V8h1v1zm0-2H6V6h1v1z" stroke-width="0"/></svg>