<svg xmlns="http://www.w3.org/2000/svg" viewBox="0 0 21 21"><path d="M2 12.5v.25c0-.054.01-.099.014-.15-.001-.033-.014-.066-.014-.1zm17 .25v-.25c0 .04-.014.077-.016.116.003.046.016.086.016.134z"/><path d="M19 14.75c0 2.347-3.806 4.25-8.5 4.25S2 17.097 2 14.75v-3.179C2.934 13.539 6.385 15 10.5 15s7.566-1.46 8.5-3.429v3.179zm-5-4.62a2.832 2.832 0 0 1-.379.027h-.242c-1.071 0-2.05-.617-2.879-1.449-.747.832-1.677 1.55-2.845 1.55-.22 0-.438-.04-.655-.107v.71c.246.086.477.139.68.139 1.235 0 2.155-.592 2.82-1.292.585.727 1.54 1.292 2.807 1.292h.386c.11 0 .203-.026.307-.034v-.836zM5.237 2.237c-.372.372-.304 1.11.193 1.607.284.284.866.444 1.261.609.755.313 1.374.612 1.374.612s-.302-.629-.619-1.39c-.158-.38-.321-.965-.602-1.245-.497-.497-1.235-.565-1.607-.193zM19 9.5c0 .662-.307 1.473-1.118 2.226C16.417 13.083 13.663 14 10.5 14s-5.918-.917-7.381-2.274C2.308 10.976 2 10.166 2 9.5c0-1.741 1.872-3.249 4.605-3.997.575.248 1.017.46 1.025.463a1.005 1.005 0 0 0 1.141-.193.99.99 0 0 0 .282-.703 15.462 15.462 0 0 1 4.164.17c-.11.238-.182.389-.185.393a1.005 1.005 0 0 0 .194 1.141 1 1 0 0 0 1.14.195c.01-.004.613-.294 1.34-.596.08-.033.168-.066.261-.1l.25-.096C17.923 7 19 8.182 19 9.5zm-1.584 1.279C16.29 9.149 13.624 8 10.5 8s-5.79 1.149-6.916 2.779C4.674 11.98 7.216 13 10.5 13s5.825-1.019 6.916-2.221zm-.654-7.54c-.372-.371-1.11-.304-1.607.194-.284.284-.444.866-.609 1.26-.314.756-.612 1.375-.612 1.375s.629-.303 1.389-.619c.38-.158.965-.321 1.246-.602.497-.497.565-1.235.193-1.607z"/></svg>