<svg xmlns="http://www.w3.org/2000/svg" viewBox="0 0 13 13"><path d="M10.388 4H7.31l-.334-2H8V1H3v3s-1 .277-1 .619v.732A3.46 3.46 0 0 1 3.5 5a3.419 3.419 0 0 1 3.2 2h.98a2.917 2.917 0 0 1 2.305-1 2.982 2.982 0 0 1 .737.102l.273-1.362a.619.619 0 0 0-.607-.74zM4 4V2h2.157l.333 2zm-.5 2.2a2.3 2.3 0 1 0 2.3 2.3 2.3 2.3 0 0 0-2.3-2.3zm0 3.5a1.2 1.2 0 1 1 1.2-1.2 1.2 1.2 0 0 1-1.2 1.2zm6.485-2.5A1.815 1.815 0 1 0 11.8 9.015 1.815 1.815 0 0 0 9.984 7.2zM10 10.1A1.1 1.1 0 1 1 11.1 9a1.1 1.1 0 0 1-1.1 1.1z"/></svg>