<svg id="Names" xmlns="http://www.w3.org/2000/svg" viewBox="0 0 21 21"><path d="M13.519 3.332a1.473 1.473 0 1 1 2.636 1.317 1.473 1.473 0 0 1-2.636-1.317zm4.813 4.67V8h-3.74l-.564-1.987s-.093-.81-.81-1.17a.703.703 0 0 0-.265-.068l-.037-.002-4.912-.295-2.107 3.237c-.194.388-.056.76.339.958.325.145.75.031.927-.324l.001-.002L8.97 5.723l2.142.16-8.739 10.014c-.516.562-.303 1.059-.115 1.23.399.365.873.256 1.321-.206l5.787-6.529 2.42 1.61-3.265 3.563c-.472.594-.252 1.052.152 1.255.404.202.795-.032 1.099-.367 1.823-2.007 2.947-3.15 3.575-3.857a.924.924 0 0 0-.134-1.352l-2.381-1.798 2.022-1.945.494 1.683h4.985c.366 0 .624-.21.624-.57 0-.45-.302-.614-.624-.614z"/></svg>