<svg xmlns="http://www.w3.org/2000/svg" viewBox="0 0 17 17"><path d="M5 8.167A2.833 2.833 0 1 0 7.833 11 2.833 2.833 0 0 0 5 8.167zM5 12.4A1.4 1.4 0 1 1 6.4 11 1.402 1.402 0 0 1 5 12.4zM5 7a3.992 3.992 0 0 1 3.952 3.524h1.204A3.494 3.494 0 0 1 13.5 8a3.453 3.453 0 0 1 1.086.19L14.794 7A.81.81 0 0 0 14 6.032H9.505L9.167 4H10V2H4.048v4.032H3.81a.81.81 0 0 0-.81.81v.715A3.954 3.954 0 0 1 5 7zm0-3h3.157l.339 2.032H5zm8.5 5.2a2.3 2.3 0 1 0 2.3 2.3 2.3 2.3 0 0 0-2.3-2.3zm0 3.5a1.2 1.2 0 1 1 1.2-1.2 1.202 1.202 0 0 1-1.2 1.2z"/></svg>