<svg xmlns="http://www.w3.org/2000/svg" viewBox="0 0 21 21"><path d="M11.281 8.587a1.212 1.212 0 1 1 2.424 0 1.212 1.212 0 0 1-2.424 0zm3.728 3.414h-1.598l-.93-1.38s-.128-.303-.72-.303c-.594 0-1.046.65-1.046.65l-1.669 1.403c-.112.379.064.687.305.997l1.547 1.684v2.18c0 .333.27.605.605.605.334 0 .497-.272.497-.606v-2.394c-.022-.338-.244-.466-.244-.466l-1.4-1.427 1.503-1.115L12.907 13h2.177s.916.028.916-.504c0-.496-.99-.495-.99-.495zM17.9 16.5a2.4 2.4 0 1 1-4.8 0 2.4 2.4 0 0 1 4.8 0zm-.6 0c0-.993-.807-1.8-1.8-1.8s-1.8.807-1.8 1.8.807 1.8 1.8 1.8 1.8-.807 1.8-1.8zM17 6.524V7a1 1 0 0 1-1 1v3.07c-.074-.026-.146-.054-.229-.075a3.407 3.407 0 0 0-.76-.094h-1.015l-.245-.363A2.393 2.393 0 0 0 14.9 8.5c0-.662-.269-1.262-.703-1.696a2.393 2.393 0 0 0-3.392 0 2.393 2.393 0 0 0-.703 1.696c0 .439.13.843.337 1.197a3.14 3.14 0 0 0-.524.507L8.338 11.53a1.096 1.096 0 0 0-.319.47H6v1c0 .141-.03.275-.083.396-.308.158-.593.35-.84.588-.027.003-.05.016-.077.016H4a1 1 0 0 1-1-1V8a1 1 0 0 1-1-1v-.476C2 6.236 2.236 6 2.524 6H3.95l1.136-2.713C5.352 2.6 5.92 2 6.994 2H12c1.077 0 1.646.599 1.907 1.287L15.04 6h1.436c.288 0 .524.236.524.524zM7 9.5A1.491 1.491 0 0 0 5.5 8 1.488 1.488 0 0 0 4 9.5 1.493 1.493 0 0 0 5.5 11 1.496 1.496 0 0 0 7 9.5zM14.035 6l-1.207-2.568c-.133-.403-.33-.432-.788-.432H7c-.465 0-.541.03-.668.432L5.241 6h8.794zM9.9 16.5a2.4 2.4 0 1 1-4.8 0 2.4 2.4 0 0 1 4.8 0zm-.6 0c0-.993-.807-1.8-1.8-1.8s-1.8.807-1.8 1.8.807 1.8 1.8 1.8 1.8-.807 1.8-1.8z"/></svg>