<svg xmlns="http://www.w3.org/2000/svg" viewBox="0 0 17 17"><path d="M8.2 3.498a1.3 1.3 0 1 1 2.599-.001 1.3 1.3 0 0 1-2.599.001zm4.03 4.007a.529.529 0 0 0-.521-.506h-1.298L9.38 5.619s-.33-.505-.922-.505c-.594 0-.944 1.054-.944 1.054l-1.582 4.964-1.905 2.435c-.102.128-.183.27-.183.432 0 .259.164.477.392.563.355.152.517-.062.729-.246l1.78-2.153.954-1.947 1.098 1.097v2.85c0 .334.27.606.605.606a.6.6 0 0 0 .598-.606v-3.002c-.022-.338-.244-.466-.244-.466l-1.4-1.59.805-2.278.746 1.22H11v5.951h.781V8.033c.278-.042.469-.292.45-.528zM4.034 8.553l1.097.353a.441.441 0 0 0 .554-.283l1.078-3.34a.441.441 0 0 0-.284-.555l-1.096-.353a.442.442 0 0 0-.555.284L3.751 7.998a.44.44 0 0 0 .283.555z"/></svg>