<svg xmlns="http://www.w3.org/2000/svg" viewBox="0 0 17 17"><path d="M7.698 6.5c.214-.568.302-1.255.302-2C8 2.567 7.433 2 5.5 2H2v1h3.5C5.987 3 7 2.825 7 4.5a6.5 6.5 0 0 1-.063.946C6.573 5.171 6.11 5 5.5 5H4c-.55 0-1 .45-1 1v1c0 .55.45 1 1 1h1.5c.611 0 1.073-.17 1.437-.446.039.268.063.577.063.946s-.024.678-.063.946C6.573 9.171 6.11 9 5.5 9H4c-.55 0-1 .45-1 1v1c0 .55.45 1 1 1h1.5c.611 0 1.073-.17 1.437-.446A6.5 6.5 0 0 1 7 12.5C7 14.298 5.987 14 5.5 14H2v1h3.5c1.933 0 2.5-.567 2.5-2.5 0-.745-.088-1.432-.302-2 .214-.568.302-1.255.302-2s-.088-1.432-.302-2zM5.5 7H4V6h1.5c.284 0 .746.004 1.083.5-.337.496-.8.5-1.083.5zm0 4H4v-1h1.5c.284 0 .746.004 1.083.5-.337.496-.8.5-1.083.5zm6-8H15V2h-3.5C9.567 2 9 2.567 9 4.5c0 .745.088 1.432.302 2C9.088 7.068 9 7.755 9 8.5s.088 1.432.302 2c-.214.568-.302 1.255-.302 2 0 1.933.567 2.5 2.5 2.5H15v-1h-3.5c-.487 0-1.5.298-1.5-1.5 0-.37.024-.678.063-.946.364.275.826.446 1.437.446H13c.55 0 1-.45 1-1v-1c0-.55-.45-1-1-1h-1.5c-.611 0-1.073.17-1.437.446C10.024 9.178 10 8.87 10 8.5s.024-.678.063-.946c.364.275.826.446 1.437.446H13c.55 0 1-.45 1-1V6c0-.55-.45-1-1-1h-1.5c-.611 0-1.073.17-1.437.446A6.5 6.5 0 0 1 10 4.5C10 2.825 11.013 3 11.5 3zm0 7H13v1h-1.5c-.284 0-.746-.004-1.083-.5.337-.496.8-.5 1.083-.5zm0-4H13v1h-1.5c-.284 0-.746-.004-1.083-.5.337-.496.8-.5 1.083-.5z"/></svg>