<svg xmlns="http://www.w3.org/2000/svg" viewBox="0 0 21 21"><path d="M10.5 15c3.168 0 5.794-2.583 6.382-6H20V7h-3.118A6.882 6.882 0 0 0 11 1.028V0h-1v1.028A6.882 6.882 0 0 0 4.118 7H1v2h3.118a7.816 7.816 0 0 0 1.685 3.702c-.806 1.35-1.618 4.118.602 5.902a6.468 6.468 0 0 0 4.106 1.339 9.17 9.17 0 0 0 6.451-2.698 14.476 14.476 0 0 0 2.52-5.115.5.5 0 1 0-.964-.26 13.736 13.736 0 0 1-2.285 4.692c-2.14 2.283-6.626 3.332-9.202 1.262-1.747-1.404-.93-3.523-.5-4.368A5.98 5.98 0 0 0 10.5 15zm5.6-8H12V6a1 1 0 0 0-1-1V1.903A6.068 6.068 0 0 1 16.1 7zM10 1.903V5a1 1 0 0 0-1 1v1H4.9A6.068 6.068 0 0 1 10 1.903zM9 9v1a1 1 0 0 0 1 1h1a1 1 0 0 0 1-1V9h4.1a5.98 5.98 0 0 1-5.6 5.125A5.98 5.98 0 0 1 4.9 9z"/></svg>