<svg id="symbols" xmlns="http://www.w3.org/2000/svg" viewBox="0 0 17 17"><path d="M8.5 12a5.366 5.366 0 0 0 4.965-4H16V6h-2.535A5.451 5.451 0 0 0 9 2.028V1H8v1.028A5.451 5.451 0 0 0 3.535 6H1v2h2.535a6.207 6.207 0 0 0 1.148 2.122c-.693 1.012-1.469 3.277.442 4.812a5.647 5.647 0 0 0 3.577 1.178 7.197 7.197 0 0 0 5.099-2.087 12.92 12.92 0 0 0 2.144-3.526.5.5 0 0 0-.928-.37 12.112 12.112 0 0 1-1.946 3.213c-1.655 1.765-5.213 2.506-7.32.813a2.486 2.486 0 0 1-.342-3.306A4.818 4.818 0 0 0 8.5 12zm4.283-6H10v-.3a.7.7 0 0 0-.7-.7H9V2.764A4.757 4.757 0 0 1 12.783 6zM8 2.764V5h-.3a.7.7 0 0 0-.7.7V6H4.217A4.757 4.757 0 0 1 8 2.764zM7 8v.3a.7.7 0 0 0 .7.7h1.6a.7.7 0 0 0 .7-.7V8h2.783A4.689 4.689 0 0 1 8.5 11.292 4.689 4.689 0 0 1 4.217 8z"/></svg>