<svg xmlns="http://www.w3.org/2000/svg" viewBox="0 0 21 21"><path d="M15.038 8.536a.507.507 0 0 1-.53.55l-.997.002h-1.336l-.874-.913-.263.742L9.032 6.91l1.394-.595.024-.011h.001a.53.53 0 0 1 .2-.044 1.208 1.208 0 0 1 .94.515l1.097 1.244h1.82a.54.54 0 0 1 .53.516zm-3.614-2.314a1.11 1.11 0 0 0 1.14-1.08v-.06a1.11 1.11 0 1 0-1.14 1.14zM19.8 10.5a9.3 9.3 0 1 1-9.3-9.3 9.3 9.3 0 0 1 9.3 9.3zm-9.3 8.3a8.256 8.256 0 0 0 5.496-2.097l-3.721-3.721c.001.444.002 1.154.002 2.334a.617.617 0 0 1-1.233 0v-2.902l-1.118-1.118-.972 1.983-1.812 2.193c-.216.187-.381.406-.742.25a.614.614 0 0 1-.4-.573.715.715 0 0 1 .187-.44l1.94-2.48.822-2.573-.925-.925-.27 1.929v.001a.54.54 0 0 1-.515.531.507.507 0 0 1-.55-.53l.328-2.891.033-.014-2.753-2.753A8.286 8.286 0 0 0 10.5 18.8zm8.3-8.3A8.286 8.286 0 0 0 5.004 4.297l11.699 11.699A8.256 8.256 0 0 0 18.8 10.5z"/></svg>