<svg xmlns="http://www.w3.org/2000/svg" viewBox="0 0 13 13"><path d="M10.907 2.559a.813.813 0 0 1 .322.377 1.923 1.923 0 0 0-.742.11c-.129.103-.076.319-.01.47a2.585 2.585 0 0 0 .544.607.238.238 0 0 1-.082.397 1.312 1.312 0 0 1-.54-.071l.18 1.213a3.124 3.124 0 0 1-.008 3.018 3.679 3.679 0 0 1-2.894 1.44l.31 1.114h.45c.547 0 .493.766.493.766H6.872c-1.143 0-.703-.28-.703-.28l.98-.533-.138-1.02s-.084-.047-1.318-.514a3.94 3.94 0 0 1-1.865-1.617l-1.603-.047s-.729.007-.993-.445c-.325-.557.72-1.623.72-1.623a.957.957 0 0 1-.939-.966c0-.933 1.068-.913 1.068-.913a.998.998 0 0 1-.11-1.139c.293-.399 1.07-.127 1.07-.127s.14-.553.46-.693.593.327.593.327l1.143 2.085a3.181 3.181 0 0 1 1.703-.462c1.087-.018 2.63 1.33 2.63 1.33.263-.484-.21-1.443-.611-2.196-.387-.722-.058-1.203.827-1.203a.954.954 0 0 1 .765.446 1.36 1.36 0 0 1 .356.149z"/></svg>