<svg xmlns="http://www.w3.org/2000/svg" viewBox="0 0 21 21"><path d="M19 9.211c0 .07-.056.126-.125.126-1.271 0-2.036 2.93-2.772 5.17-.035-.003-.067-.009-.105-.009-.748 0-1.25.502-1.998.502l.272-1.839c1.401-2.206 3.075-4.075 4.603-4.075.07 0 .125.056.125.125zM13.287 17c-1.395 0-2.323-1-3.718-1-1.39 0-2.318 1-3.713 1C5.16 17 4.58 16.122 4 16v1c.578.126 1.16 1 1.856 1 1.395 0 2.323-1 3.713-1 1.395 0 2.323 1 3.718 1 1.39 0 2.323-1 3.713-1v-1c-1.39 0-2.322 1-3.713 1zM2.135 10.345c.984.164 1.836 2.57 2.644 4.174a1.96 1.96 0 0 1 .454-.06c.809 0 1.346.54 2.156.54.441 0 .801-.16 1.17-.306-.31-1.413-.903-3.502-1.562-5.395.322-.307.362-.78.223-1.235-.148-.485-.288-1.52-1.01-2.244-.3-.302-.62-.412-1.008-.33-.335-.405-.686-.725-1.057-.928a.472.472 0 0 0-.452.829c.252.138.498.357.737.638a1.217 1.217 0 0 0 .167 1.508c.187.196.27.573.505 1.342.075.242.415.616 1.1.651.51 1.478.94 3.269 1.265 4.64-1.687-2.009-3.81-4.093-5.332-4.093a.135.135 0 1 0 0 .27zm6.987-5.052c1.756.375.455 5.816 1 9.249.051-.003.1-.011.153-.011.732 0 .916.469 1.646.469.422 0 .562-.157.914-.289.04-2.826.619-4.592 1.179-6.781.42-.063.88-.358.993-.777.003-.015.302-.376.783-1.61.16-.408.039-.854-.273-1.136.206-.51.338-.798.345-.813a.404.404 0 0 0-.213-.541.432.432 0 0 0-.564.204c-.007.015-.148.322-.366.862-.427.017-.72.273-.881.681-.522 1.338-.834 1.76-.852 1.824-.115.426.06.858.404 1.108-.486 1.899-1.015 3.247-1.158 5.655-.766-4.122-.626-8.513-3.11-8.33A.12.12 0 0 0 9 5.174c0 .065.055.119.122.119z"/></svg>