<svg xmlns="http://www.w3.org/2000/svg" viewBox="0 0 21 21"><path d="M18.476 6H17.04l-1.133-2.713A1.898 1.898 0 0 0 14 2H6.994a1.907 1.907 0 0 0-1.908 1.287L3.95 6H2.524A.526.526 0 0 0 2 6.524V7a1 1 0 0 0 1 1v6a1 1 0 0 0 1 1h1a1 1 0 0 0 1-1v-1h2.669l.99-1.54a1 1 0 0 1 1.682 0l.99 1.54H15v1a1 1 0 0 0 1 1h1a1 1 0 0 0 1-1V8a1 1 0 0 0 1-1v-.476A.526.526 0 0 0 18.476 6zM5.514 11H5.5a1.493 1.493 0 1 1 .014 0zM6 6h-.76l1.092-2.568C6.459 3.029 6.535 3 7 3h7.04c.458 0 .655.03.788.432L16.035 6zm9.5 5a1.5 1.5 0 0 1 0-3h.007a1.5 1.5 0 0 1-.007 3zm-5 1L6 19h9zm.5 6h-1v-1h1zm-1-2v-2h1v2z"/></svg>