<svg id="symbols" xmlns="http://www.w3.org/2000/svg" viewBox="0 0 17 17"><path d="M7.108 10.622a7.623 7.623 0 0 0-.916.043s-.102.297-.642.555a3.634 3.634 0 0 1-1.082.309L2.254 14h-.927l2.166-2.578.352-1.33.057-.197s.002-.656-.002-.67a6.724 6.724 0 0 0-.544-.778 1.196 1.196 0 0 1-.26-.605c-.014-.155.072-.2.093-1.174a13.43 13.43 0 0 0 .702 1.178 3.259 3.259 0 0 0 .315.408.21.21 0 0 0 .111.017c.025 0 .73-.342.898-.394.165-.053 2.56-.891 2.56-.973a89.11 89.11 0 0 0-.297-.788A5.836 5.836 0 0 1 7.33 4.94c0-.024-.03-.04-.093-.053-.06-.011-.831.076-.831-.018a1.406 1.406 0 0 1 .176-.477 5.364 5.364 0 0 1 1.032-.06L7.09 3.305a5.782 5.782 0 0 1-.916.015c-.282-.054-.908-.178-1.236-.244a.2.2 0 0 1-.153-.247l.032-.118a.2.2 0 0 1 .225-.144l1.307.214.429-.05-.21-.354-1.638-1.16a.2.2 0 0 1-.045-.281l.043-.059a.2.2 0 0 1 .27-.047l1.268.847.086-1.155a.2.2 0 0 1 .21-.184l.065.004a.199.199 0 0 1 .187.207 11.904 11.904 0 0 0-.007 1.381A15.07 15.07 0 0 0 8.18 4.173a1.363 1.363 0 0 1 .574-.017 8.443 8.443 0 0 0 1.61.03.887.887 0 0 1 .129.262c0 .059-.277.35-.277.35l-1.462.888a2.065 2.065 0 0 0 .112.684c.098.134.49.721.582.884a1.905 1.905 0 0 1 .186.686c0 .2-.195 1.144-.195 1.144l.86-.008-.468.801-.986.004a3.048 3.048 0 0 1-1.737.74zM15 15H8l3.5-6zm-3-2h-1v1h1zm0-1v-2h-1v2z"/></svg>