<svg xmlns="http://www.w3.org/2000/svg" viewBox="0 0 13 13"><path d="M9.272 5a3.944 3.944 0 0 0-1.345-3.159L8.387 1a5.226 5.226 0 0 1 1.612 4 5.875 5.875 0 0 1-.137 1.35l-.498-.854a.988.988 0 0 0-.12-.156c.006-.114.03-.224.028-.34zM6 6.386l.467.824a2.741 2.741 0 0 0 .279-.188l.89-1.526a.99.99 0 0 1 .207-.242A1.828 1.828 0 0 0 7.863 5a2.725 2.725 0 0 0-1.396-2.21L6 3.613a1.454 1.454 0 0 1 .863 1.691A1.307 1.307 0 0 1 6 6.386zM5 2L3 3.4v3.2L5 8zM1 4v2a1 1 0 0 0 1 1V3a1 1 0 0 0-1 1zm11 8H5l3.5-6zm-3-2H8v1h1zm0-1V7H8v2z"/></svg>