<svg id="symbols" xmlns="http://www.w3.org/2000/svg" viewBox="0 0 21 21"><path d="M11.43 4.495l.548-.8A4.526 4.526 0 0 1 13.9 7.5a4.522 4.522 0 0 1-.73 2.564.993.993 0 0 0-.511.395l-.398.62c-.093.077-.184.156-.283.226l-.548-.8A3.456 3.456 0 0 0 13.033 7.5a3.456 3.456 0 0 0-1.603-3.005zM15.051 7.5a5.903 5.903 0 0 1-.72 2.947l.01.013.482.749a6.898 6.898 0 0 0 .978-3.709A6.9 6.9 0 0 0 13.28 2l-.479.72a5.914 5.914 0 0 1 2.25 4.78zM9.9 8.818l.557.784A2.248 2.248 0 0 0 11.762 7.5a2.248 2.248 0 0 0-1.305-2.102l-.557.783a1.35 1.35 0 0 1 0 2.637zM9 3L6 5v5l3 2zM2 6v3a1 1 0 0 0 1 1h2V5H3a1 1 0 0 0-1 1zm16 12H9l4.5-7zm-4-2h-1v1h1zm0-1v-2h-1v2z"/></svg>