<svg id="Symbols" xmlns="http://www.w3.org/2000/svg" viewBox="0 0 21 21"><path d="M19.336 9.763L17.2 9l-1.63-2.964A2 2 0 0 0 13.817 5H3a1 1 0 0 0-1 1v8h2.058a1.237 1.237 0 0 0-.058.288v.423A1.289 1.289 0 0 0 5.289 16h.423A1.289 1.289 0 0 0 7 14.711v-.423A1.237 1.237 0 0 0 6.942 14h7.116a1.237 1.237 0 0 0-.058.288v.423A1.289 1.289 0 0 0 15.289 16h.423A1.289 1.289 0 0 0 17 14.711v-.423a1.237 1.237 0 0 0-.058-.288H19a1 1 0 0 0 1-1v-2.295a1 1 0 0 0-.664-.942zM6 8H4V6h2zm4 0H7V6h3zm2 1V6h1.8a1 1 0 0 1 .882.53L16 9z"/></svg>