<svg id="symbols" xmlns="http://www.w3.org/2000/svg" viewBox="0 0 21 21"><path d="M6 15.833L3 18v-1.833L6 14zm1 0L10 18v-1.833L7 14zM6 10l-3 2.167V14l3-2.167zm1 1.833L10 14v-1.833L7 10zM6 6L3 8.167V10l3-2.167zm1 1.833L10 10V8.167L7 6zM6 2L3 4.167V6l3-2.167zm1 1.833L10 6V4.167L7 2zM14 14l-3 2.167V18l3-2.167zm1 1.833L18 18v-1.833L15 14zM14 10l-3 2.167V14l3-2.167zm1 1.833L18 14v-1.833L15 10zM14 6l-3 2.167V10l3-2.167zm1 1.833L18 10V8.167L15 6zM14 2l-3 2.167V6l3-2.167zm1 1.833L18 6V4.167L15 2z"/></svg>