<svg id="symbols" xmlns="http://www.w3.org/2000/svg" viewBox="0 0 17 17"><path d="M5 12.817l-2 1.754v-1.484l2-1.754zm1 0l2 1.754v-1.484l-2-1.754zM5 8.095L3 9.85v1.484L5 9.58zM6 9.58l2 1.754V9.85L6 8.095zM5 4.857L3 6.611v1.484l2-1.754zm1 1.484l2 1.754V6.611L6 4.857zM5 1.62L3 3.373v1.484l2-1.754zm1 1.484l2 1.754V3.373L6 1.619zm5 8.23l-2 1.754v1.484l2-1.754zm1 1.484l2 1.754v-1.484l-2-1.754zm-1-4.722L9 9.85v1.484l2-1.754zm1 1.484l2 1.754V9.85l-2-1.754zm-1-4.722L9 6.611v1.484l2-1.754zm1 1.484l2 1.754V6.611l-2-1.754zM11 1.62L9 3.373v1.484l2-1.754zm1 1.484l2 1.754V3.373l-2-1.754z"/></svg>