<svg xmlns="http://www.w3.org/2000/svg" viewBox="0 0 21 21"><path d="M11 3h-1V2h1v1zm-.5 3.072l-3.555 1.51L7.713 5h.744l.37-1.998h3.345L12.543 5h.744l.768 2.583L10.5 6.071zM9.385 5h2.23l-.558-1H9.943l-.558 1zM7.356 15.235c1.087 0 2.141.336 3.144 1 1.003-.664 2.057-.999 3.144-.999.448 0 .857.067 1.236.161.097-.89.497-3.325 2.002-5.078L10.5 7.608l-6.382 2.711c1.506 1.754 1.905 4.19 2.001 5.079.38-.094.787-.163 1.237-.163zm6.288 1.766c-1.077 0-2.133.364-3.144 1.083C9.49 17.364 8.433 17 7.356 17c-1.652 0-2.759.876-2.77.886-.077.063-.076.165.002.228l.394.32c.038.031.09.047.141.047.05 0 .102-.016.14-.047.086-.068.872-.669 2.066-.669.948 0 1.902.378 2.836 1.123A.534.534 0 0 0 10.5 19a.552.552 0 0 0 .34-.116c.928-.739 1.88-1.115 2.827-1.115 1.242 0 2.058.658 2.066.664a.223.223 0 0 0 .142.049.228.228 0 0 0 .142-.048l.394-.32c.078-.063.078-.166 0-.23-.011-.009-1.109-.883-2.768-.883z"/></svg>