<svg xmlns="http://www.w3.org/2000/svg" viewBox="0 0 13 13"><path d="M7.487 6.707c-.22.172-.486.291-.787.291a1.3 1.3 0 1 1 1.3-1.3c0 .03-.015.056-.017.085a2.285 2.285 0 0 0-.496.924zm.44 2.226A1.284 1.284 0 0 0 6.7 7.998a1.3 1.3 0 1 0 .513 2.493c.03-.613.295-1.162.713-1.558zm1.067-.572c.164-.037.333-.06.507-.06.275 0 .535.056.78.144A1.29 1.29 0 0 0 11 7.298a1.3 1.3 0 0 0-2.6 0c0 .452.244.83.594 1.063zm.508 3.54a1.3 1.3 0 1 0 0-2.6 1.3 1.3 0 0 0 0 2.6zM6 .997c-.695 0-1.35.04-1.646.355-.344.366-.397.908-.388 1.269a6.116 6.116 0 0 0-1.802-.614l-.179.984c1.792.326 2.452 1.216 2.48 1.254l.82-.572c-.018-.026-.238-.335-.725-.69.447-.024.84-.093 1.05-.304C6.202 2.087 6 .998 6 .998zm-1.43 5.56a1.254 1.254 0 0 0-.37-.06 1.3 1.3 0 0 0 0 2.6c.08 0 .149-.032.225-.045.068-.631.39-1.18.863-1.553a2.3 2.3 0 0 1-.718-.941zm4.73-3.56c-.568 0-1.037.369-1.214.876a2.3 2.3 0 0 1 .842 1.28c.243-.09.498-.156.772-.156.211 0 .411.038.606.091.174-.221.294-.488.294-.791a1.3 1.3 0 0 0-1.3-1.3z"/></svg>