<svg xmlns="http://www.w3.org/2000/svg" viewBox="0 0 21 21"><path d="M5 9.998a2 2 0 1 1 4 0c0 .4-.12.771-.323 1.084A2.978 2.978 0 0 0 8 10.998c-.751 0-1.43.287-1.958.745A1.991 1.991 0 0 1 5 9.998zm4.98 3.797A1.993 1.993 0 0 0 8 11.998a2 2 0 1 0 0 4c.378 0 .728-.111 1.03-.293.074-.754.42-1.424.95-1.91zm3.05-4.504A1.981 1.981 0 0 0 12 8.998a2 2 0 1 0 0 4c1.035 0 1.877-.79 1.98-1.797a2.978 2.978 0 0 1-.95-1.91zm2.012 1.452A2.974 2.974 0 0 1 17 9.998c.234 0 .459.033.677.084.203-.313.323-.684.323-1.084a2 2 0 1 0-4 0 1.99 1.99 0 0 0 1.042 1.745zM13 16.998c0-.751.287-1.43.745-1.958A1.991 1.991 0 0 0 12 13.998a2 2 0 1 0 0 4c.4 0 .771-.12 1.084-.323a2.978 2.978 0 0 1-.084-.677zm3-3c.751 0 1.43.287 1.958.745A1.991 1.991 0 0 0 19 12.998a2 2 0 1 0-4 0c0 .4.12.771.323 1.084a2.96 2.96 0 0 1 .677-.084zm0 1a2 2 0 1 0 0 4 2 2 0 0 0 0-4zm-6-13c-3.124.057-3.047 2.482-3.008 2.924-1.268-.844-2.8-1.73-3.903-1.93l-.178.985c1.938.352 5.738 3.38 5.776 3.411l.625-.78a36.134 36.134 0 0 0-2.205-1.609C10.177 5.165 10 1.998 10 1.998zm2 6c.397 0 .775.081 1.123.222a2.966 2.966 0 0 1 .857-1.425A1.993 1.993 0 0 0 12 4.998a2 2 0 0 0-2 2c0 .538.215 1.025.561 1.384.43-.237.915-.384 1.439-.384z"/></svg>