<svg xmlns="http://www.w3.org/2000/svg" viewBox="0 0 21 21"><path d="M10.15 4.498a1.35 1.35 0 1 1 1.35 1.35 1.35 1.35 0 0 1-1.35-1.35zm5.74 5.702l.01-.008L13 6.998H8.387L5.9 4.2l-.005.004a.49.49 0 0 0-.394-.206.5.5 0 0 0-.5.5.489.489 0 0 0 .11.3l-.01.006L8 7.998h1.481c-.08.174-.127.306-.127.306l-1.902 4.813-2.157 3.52a.865.865 0 0 0-.227.535.747.747 0 0 0 .486.697c.439.189.64-.077.902-.305l2.002-3.17 1.183-2.412L11 13.342v3.831a.656.656 0 1 0 1.298 0c0-3.783-.01-4.02-.01-4.02a.864.864 0 0 0-.302-.577l-1.533-1.969 1.163-2.521.759-.088 2.726 2.798.006-.003a.49.49 0 0 0 .393.205.5.5 0 0 0 .5-.5.49.49 0 0 0-.11-.298z"/></svg>