<svg xmlns="http://www.w3.org/2000/svg" viewBox="0 0 21 21"><path d="M6.977 2.527A1.35 1.35 0 1 1 9.39 3.734a1.35 1.35 0 0 1-2.414-1.207zM17 15.44a2.22 2.22 0 0 1-.655.107c-1.168 0-2.098-.718-2.845-1.55-.829.832-1.808 1.449-2.879 1.449h-.242c-1.071 0-2.05-.617-2.879-1.449-.747.832-1.677 1.55-2.845 1.55-.22 0-.438-.04-.655-.107v1.418c.246.086.477.14.68.14 1.235 0 2.155-.593 2.82-1.293.585.727 1.54 1.292 2.807 1.292h.386c1.267 0 2.222-.565 2.807-1.292.665.7 1.585 1.292 2.82 1.292.195 0 .429-.056.68-.146v-1.41zM14 6h5V5h-5l-2-1v1H7.042l-3.78 2.124a.5.5 0 0 0-.127.754c.218.257.536.228.865.087l2.212-1.071c-.368 1.86.396 3.25.907 4.356l-.198 2.063 1.187-.563.136-1.437-.23-1.543 1.635.727.476 2.253-.99.492c.29.242.58.558 1.095.847.18.102.402.098.592.015l3.735-1.64a.733.733 0 1 0-.59-1.343l-2.812 1.235-.543-2.51-2.097-1.72L9 6h3v1l2-1z"/></svg>