<svg xmlns="http://www.w3.org/2000/svg" viewBox="0 0 21 21"><path d="M12.104 8.482c.504 1.047 1.425 2.437 1.425 3.5a3.292 3.292 0 0 1-3.088 3.369 3.292 3.292 0 0 1-3.088-3.37c0-1.05.92-2.452 1.406-3.46.97-2.014 1.682-3.758 1.682-3.758s.7 1.718 1.663 3.719zm5.837 2.016a7.491 7.491 0 0 0-11.247-6.49 1.76 1.76 0 0 1 .493.631 6.69 6.69 0 0 1 8.552 9.943l-1.226-.895v3.429l3.227-1.084-1.363-.972a7.442 7.442 0 0 0 1.564-4.562zm-5.472 6.39a6.69 6.69 0 0 1-8.206-8.974l1.224.893.101-3.429L2.26 6.462l1.354.965a7.486 7.486 0 0 0 8.962 10.258 1.747 1.747 0 0 1-.107-.57z"/></svg>