<svg xmlns="http://www.w3.org/2000/svg" viewBox="0 0 17 17"><path d="M9.778 7.632a6.257 6.257 0 0 1 .775 2.208 2.09 2.09 0 1 1-4.178 0 6.027 6.027 0 0 1 .76-2.177C7.9 6.072 8.464 5.071 8.464 5.071s.553.98 1.314 2.56zm2.438 1.323l-.078 3.047 2.769-1.537-1.274-.715A5.212 5.212 0 0 0 13.8 8.5a5.3 5.3 0 0 0-5.3-5.3 5.104 5.104 0 0 0-2.68.787 1.384 1.384 0 0 1 .329.49A4.544 4.544 0 0 1 8.5 3.8a4.705 4.705 0 0 1 4.7 4.7 4.385 4.385 0 0 1-.112.945zM8.5 13.2a4.705 4.705 0 0 1-4.7-4.7 4.31 4.31 0 0 1 .115-.943l.87.488.077-3.047-2.769 1.537 1.282.72A5.026 5.026 0 0 0 3.2 8.5a5.3 5.3 0 0 0 5.3 5.3 5.22 5.22 0 0 0 2.703-.77 1.385 1.385 0 0 1-.345-.49 4.624 4.624 0 0 1-2.358.66z"/></svg>