<svg xmlns="http://www.w3.org/2000/svg" viewBox="0 0 13 13"><path d="M10.861 7.87s-.924.055-1.766.128a7.159 7.159 0 0 0-1.672.186 8.613 8.613 0 0 1-2.232.768 6.077 6.077 0 0 1-2.158-.23c-.439-.11-2.048-.255-2.048-.255l-.366-.622a3.545 3.545 0 0 0 1.17-.037c.703-.108 1.683-.375 1.683-.375A6.93 6.93 0 0 1 3.4 6.49a13.462 13.462 0 0 1 .183-1.536 1.814 1.814 0 0 1-.549-.512c-.366-.439-.983-1.37-.983-1.37a6.67 6.67 0 0 1 1.715.326 9.823 9.823 0 0 1 2.633 1.995A3.36 3.36 0 0 1 7.02 7.01a11.596 11.596 0 0 0 1.976 0s.19-.43.958-.43a1.076 1.076 0 0 1 1.014.575l1.1.414z"/></svg>