<svg id="symbols" xmlns="http://www.w3.org/2000/svg" viewBox="0 0 21 21"><path d="M17.545 11.904a23.193 23.193 0 0 1-3.014.532 4.664 4.664 0 0 0-2.54.945 11.093 11.093 0 0 1-3.605 1.241A9.395 9.395 0 0 1 4.9 14.09c-.71-.177-3.31-.413-3.31-.413L1 12.672a4.797 4.797 0 0 0 1.89-.059c1.124-.236 2.719-.768 2.719-.768a7.69 7.69 0 0 1-.118-1.359 21.747 21.747 0 0 1 .295-2.482 2.93 2.93 0 0 1-.886-.827c-.591-.709-1.426-1.89-1.426-1.89a10.004 10.004 0 0 1 2.608.527 14.348 14.348 0 0 1 4.254 2.9A4.873 4.873 0 0 1 11.34 11a18.732 18.732 0 0 0 3.191 0 2.033 2.033 0 0 1 1.71-.695c1.24 0 1.477.768 1.477.768l1.777.831z"/></svg>