<svg xmlns="http://www.w3.org/2000/svg" viewBox="0 0 21 21"><path d="M18 16.44a2.22 2.22 0 0 1-.655.107c-1.168 0-2.098-.716-2.845-1.547-.829.831-1.808 1.446-2.879 1.446h-.242c-1.071 0-2.05-.615-2.879-1.446-.747.831-1.677 1.547-2.845 1.547-.22 0-.438-.04-.655-.107v1.418c.246.086.477.14.68.14 1.235 0 2.155-.593 2.82-1.293.585.727 1.54 1.292 2.807 1.292h.386c1.267 0 2.222-.565 2.807-1.292.665.7 1.585 1.292 2.82 1.292.195 0 .429-.056.68-.146v-1.41zM19 10h-2.753a2 2 0 0 1-1.796-1.12l-2.33-4.76A2 2 0 0 0 10.323 3H7v2H5V3H4v11h1v-2h2v2h1V5h.67c.446 0 .854.25 1.057.648l.273.536V14h1V8.147l1.18 2.316A2.902 2.902 0 0 0 14.742 12H16v2h1v-2h2v-2zM7 11H5V9h2v2zm0-3H5V6h2v2z"/></svg>