<svg xmlns="http://www.w3.org/2000/svg" viewBox="0 0 13 13"><path d="M7.268 5.826a3.183 3.183 0 0 1 .394 1.123A1.13 1.13 0 0 1 6.5 8.052 1.124 1.124 0 0 1 5.337 6.95a3.066 3.066 0 0 1 .387-1.108A8.425 8.425 0 0 1 6.5 4.523a8.198 8.198 0 0 1 .768 1.303zm1.766.614L8.97 8.9l2.236-1.241-1.253-.703A3.37 3.37 0 0 0 10 6.498a3.486 3.486 0 0 0-4.943-3.181 1.288 1.288 0 0 1 .266.753A2.675 2.675 0 0 1 6.5 3.79a2.712 2.712 0 0 1 2.708 2.708c0 .013-.003.025-.003.037zM6.5 9.206a2.712 2.712 0 0 1-2.708-2.708c0-.013.003-.025.003-.038l.171.096.063-2.46-2.236 1.241 1.253.703A3.293 3.293 0 0 0 3 6.498a3.486 3.486 0 0 0 4.943 3.181 1.288 1.288 0 0 1-.266-.753 2.676 2.676 0 0 1-1.177.28z"/></svg>