<svg id="Layer_4" xmlns="http://www.w3.org/2000/svg" viewBox="0 0 21 21"><path d="M9 4v4h2v3H9v6h2v3H8V1h3v3H9zm5.77 6.623l-1.42-2.181a1.758 1.758 0 0 1-.264-.968C13.086 5 13 4 13.5 4s.374 1 .374 1.886l1.058-.44C14.81 2.777 14.468 1 13.5 1c-1.252 0-1.466 1.969-1.5 6v2.547c0 .295.087.584.251.83l1.477 2.221c.114.238.162.504.162.767C13.89 16 14 17 13.432 17c-.432 0-.374-1-.374-1.886l-1.058.44c.122 2.668.464 4.446 1.432 4.446 1.352 0 1.555-1.475 1.568-6l.013-2.55a1.5 1.5 0 0 0-.243-.827zM16 1v3h1v16h1V4h1V1h-3zM6.1 1l-.676 10.94L4.9 6h-.8l-.501 6.378L2.9 1H2l1.1 19h.8l.626-7.468L5.1 20h.8L7 1h-.9z"/></svg>