<svg xmlns="http://www.w3.org/2000/svg" viewBox="0 0 21 21"><path d="M18 7.498a3.5 3.5 0 0 1-3.5 3.5H2v-1h12.5c1.379 0 2.5-1.122 2.5-2.5s-1.121-2.5-2.5-2.5a2.503 2.503 0 0 0-2.45 3h-1c-.023-.165-.05-.329-.05-.5a3.5 3.5 0 0 1 7 0zm-10.5-4.5a2.5 2.5 0 0 0-2.45 2h1.004c.126-.567.609-1 1.214-1h.464c.7 0 1.268.568 1.268 1.268v.464c0 .7-.568 1.268-1.268 1.268H3v1h4.5a2.5 2.5 0 0 0 0-5zm6.5 12.5a2.5 2.5 0 0 0-2.5-2.5H3v1h8.732c.7 0 1.268.568 1.268 1.268v.464c0 .7-.568 1.268-1.268 1.268h-.464c-.605 0-1.088-.433-1.214-1H9.05a2.5 2.5 0 0 0 4.95-.5z"/></svg>