<svg id="symbols" xmlns="http://www.w3.org/2000/svg" viewBox="0 0 13 13"><path d="M10.679 2.775c-.03.048-.303.4-.317.43a4.638 4.638 0 0 0-.47 2.17 5.665 5.665 0 0 1-.062.878c-.211.919-.214 1.19-.453 1.407-.849.816-.553 3.432-.208 3.812l.397.027a2.638 2.638 0 0 1 .291.501l-1.041-.002a.28.28 0 0 1-.067-.008c-.427-.106-.417-1.055-.655-1.743a1.065 1.065 0 0 1-.02-.364 3.353 3.353 0 0 0-.28-1.579 4.147 4.147 0 0 1-.134-.25 2.726 2.726 0 0 1-.36.023 9.753 9.753 0 0 1-1.547-.18l-.02-.004c-.36.697-.142.974-.965 1.522a1.408 1.408 0 0 0-.685 1.365c.058.313.165.706.259.736a2.585 2.585 0 0 1 .388.11c.054.05.075.374.075.374l-.678-.002c-.162 0-.397-.038-.478-.179l-.241-.928-.337-1.59c.5-.463.286-.998.117-1.582l-.024-.067c-.196.794-.771 1.437-1.37 1.434a.86.86 0 0 1-.668-.335c-.078-.14-.088-.2-.057-.243.034-.044.078-.005.185-.026a.78.78 0 0 0 .396-.22 2.956 2.956 0 0 0 .728-1.016c.708-1.439 1.065-1.653 2.73-2.024.934-.208 1.884-.246 2.28-.364.308-.091.5-.43.623-.623l.16-.497a.581.581 0 0 0-.324.041 4.102 4.102 0 0 0-.776.124c.068-.21-.043-.889 1.04-.765.229-.92.718-.555.876-1.528.07-.424.193-.773.552-.53.523.32.325.85.378 1.66.043-.056.61-.47.686-.584.05-.083.172-.104.275.025.147.191-.086.409-.2.594z"/></svg>