<svg id="symbols" xmlns="http://www.w3.org/2000/svg" viewBox="0 0 21 21"><path d="M17.25 4.482c-.047.078-.49.645-.511.696a7.492 7.492 0 0 0-.76 3.504 9.15 9.15 0 0 1-.1 1.418 3.783 3.783 0 0 1-1.055 2.273c-1.371 1.32-.893 5.16-.336 5.774l.641.044A4.262 4.262 0 0 1 15.6 19l-1.36-.003a.452.452 0 0 1-.107-.013c-.69-.17-.674-1.32-1.059-2.432a1.72 1.72 0 0 1-.03-.587 5.417 5.417 0 0 0-.455-2.55 6.71 6.71 0 0 1-.216-.405 4.402 4.402 0 0 1-.58.038 15.755 15.755 0 0 1-2.499-.292l-.034-.006c-.582 1.126-.228 1.574-1.558 2.459-.632.421-1.286.856-1.107 1.82.094.506.267 1.141.419 1.188a2.454 2.454 0 0 1 .465.179c.087.08.121.604.121.604l-.934-.003a.63.63 0 0 1-.61-.29l-.39-1.499-.705-2.182c.807-.75.462-1.613.188-2.556l-.038-.11c-.299 1.213-.86 2.177-1.65 2.292a1.48 1.48 0 0 1-1.281-.461.468.468 0 0 1-.13-.447 2.506 2.506 0 0 0 .846-.451 6.297 6.297 0 0 0 .946-1.587C4.986 9.38 6.413 9.045 9.06 8.274c1.942-.565 2.235-.72 2.876-.91.497-.148.807-.21 1.006-.524l.257-.802a.939.939 0 0 0-.522.067 3.24 3.24 0 0 0-.77.2c.11-.338-.023-1.104 1.194-1.236.371-1.487 1.162-.521 1.417-2.093.112-.685.312-1.25.891-.857.845.518.525.998.612 2.306.068-.089.983-.757 1.108-.942.08-.134.276-.168.443.04.238.31-.138.66-.321.96z"/></svg>