<svg xmlns="http://www.w3.org/2000/svg" viewBox="0 0 21 21"><path d="M6.15 3.498a1.35 1.35 0 1 1 2.699 0 1.35 1.35 0 0 1-2.699 0zm10.816 11.305c-.166-.911-.24-1.761-1.287-1.805-.647-.027-.786.708-.786.708-.647-.255-1.101-.216-1.417-.073l-.124.12a3.415 3.415 0 0 0-.807-1.117l-.626.576L8.81 10.05 8 5.998l-1.798-.706-2.076 2.4c-.08.174-.126.306-.126.306v8.175c0 .414.235.75.65.75.413 0 .648-.336.648-.75l-.001-4.11.344-1.08L7 12.341v3.831c0 .414.235.75.65.75.413 0 .648-.336.648-.75 0-3.783-.01-4.02-.01-4.02 0-.327-.201-.577-.201-.577L7 10.502V9.448l4.331 4.305-.325.275c.215.264.44.464.663.617.01.007.02.011.031.018-1.437.679-1.7 2.335-1.7 2.335h7.218s-.068-1.182-.252-2.195z"/></svg>