<svg xmlns="http://www.w3.org/2000/svg" viewBox="0 0 13 13"><path d="M10.737 5.286c-.304-.693-.944-1.29-1.801-1.29-.162 0-.322.04-.482.072-.296.128-.85.527-.85 1.303 0 .146.1.397.231.535.095.1.14.237.122.374a.403.403 0 0 1-.698.219c-.317-.348-.556-.84-.556-1.128 0-.897.328-1.463.813-1.8a4.007 4.007 0 0 0-2.054-.575C3.598 2.996 2 4.399 2 6.029c0 .404.1.723.276.975L3 9.998l1-.002V7.822a11.465 11.465 0 0 0 2 .072v2.104l1-.002.634-2.378c.409-.14.749-.343.988-.626.152.003.295.004.378.004.36 0 .756-.099 1.091-.269.03-.002.051.004.079.004.009.083.016.167.018.252.008.472.048 1.01-.188 1.013v1c.905-.175.98-.563 1-1.75.018-1.052-.072-1.637-.263-1.96zm-.737.47a.24.24 0 0 1-.24.24h-.52a.24.24 0 0 1-.24-.24v-.52a.24.24 0 0 1 .24-.24h.52a.24.24 0 0 1 .24.24v.52z"/></svg>