<svg data-name="New Symbols" xmlns="http://www.w3.org/2000/svg" viewBox="0 0 17 17"><path d="M6.034 5.509h2.444a11.459 11.459 0 0 0 1.388-.307 2.34 2.34 0 0 1 1.778.428c.43.336.643.523.643.523s.244-.15.662-.368a4.934 4.934 0 0 1 .807-.27 2.346 2.346 0 0 1-.157.764c-.134.24-.515.648-.47.721.128.203.534 1.4.859 1.555a6.82 6.82 0 0 1-.12.722 3.075 3.075 0 0 0 .92-.36 4.067 4.067 0 0 0 1.198-1.28 3.591 3.591 0 0 1-.407 1.995 2.641 2.641 0 0 1-1.086.943l-.003.725c0 .329-.047.393-.41.418s-.455.116-1.218-.35a8.207 8.207 0 0 1-1.224-1.599h-.247s-.27.621-.348.824a5.927 5.927 0 0 0-.103 1.115c0 .127-.078.43.155.633a1.012 1.012 0 0 1 .234.659H9.597a.843.843 0 0 1 .026-.507 5.718 5.718 0 0 0 0-1.343 1.677 1.677 0 0 0-.317-.658 1.85 1.85 0 0 1-1.338.354 6.514 6.514 0 0 1-2.235-.841s-.175.841-.227 1.246a8.527 8.527 0 0 0 0 1.192s.363.304.337.557H4.015a3.295 3.295 0 0 1 .13-.507 1.92 1.92 0 0 0 0-.684s-.077-.33-.13-.634.053-.734-.129-1.013A7.6 7.6 0 0 1 3 8.461v1.15a3.205 3.205 0 0 1-.5 1.383A3.4 3.4 0 0 1 2 9.611V6.937A2.016 2.016 0 0 1 3.41 5.19a4.476 4.476 0 0 1 2.624.319z"/></svg>